<?xml version="1.0" encoding="UTF-8" standalone="no"?>
<svg
   xmlns:dc="http://purl.org/dc/elements/1.1/"
   xmlns:cc="http://creativecommons.org/ns#"
   xmlns:rdf="http://www.w3.org/1999/02/22-rdf-syntax-ns#"
   xmlns:svg="http://www.w3.org/2000/svg"
   xmlns="http://www.w3.org/2000/svg"
   xmlns:sodipodi="http://sodipodi.sourceforge.net/DTD/sodipodi-0.dtd"
   xmlns:inkscape="http://www.inkscape.org/namespaces/inkscape"
   version="1.1"
   viewBox="0 0 196.28155 54.076897"
   stroke-miterlimit="10"
   id="svg2"
   inkscape:version="0.91 r13725"
   sodipodi:docname="logo.svg"
   width="196.28156"
   height="54.076897"
   style="fill:none;stroke:none;stroke-linecap:square;stroke-miterlimit:10">
  <metadata
     id="metadata23">
    <rdf:RDF>
      <cc:Work
         rdf:about="">
        <dc:format>image/svg+xml</dc:format>
        <dc:type
           rdf:resource="http://purl.org/dc/dcmitype/StillImage" />
        <dc:title />
      </cc:Work>
    </rdf:RDF>
  </metadata>
  <defs
     id="defs21" />
  <sodipodi:namedview
     pagecolor="#ffffff"
     bordercolor="#666666"
     borderopacity="1"
     objecttolerance="10"
     gridtolerance="10"
     guidetolerance="10"
     inkscape:pageopacity="0"
     inkscape:pageshadow="2"
     inkscape:window-width="3840"
     inkscape:window-height="2081"
     id="namedview19"
     showgrid="false"
     fit-margin-top="0"
     fit-margin-bottom="0"
     fit-margin-left="0"
     fit-margin-right="0"
     inkscape:zoom="8.0000004"
     inkscape:cx="92.352997"
     inkscape:cy="34.356793"
     inkscape:window-x="3840"
     inkscape:window-y="0"
     inkscape:window-maximized="1"
     inkscape:current-layer="svg2"
     inkscape:snap-bbox="true"
     inkscape:bbox-paths="true"
     inkscape:bbox-nodes="true"
     inkscape:snap-bbox-edge-midpoints="true"
     inkscape:snap-bbox-midpoints="true"
     inkscape:object-paths="true"
     inkscape:snap-intersection-paths="true"
     inkscape:object-nodes="true"
     inkscape:snap-smooth-nodes="true"
     inkscape:snap-midpoints="true"
     inkscape:snap-center="true"
     inkscape:snap-text-baseline="false"
     inkscape:snap-object-midpoints="true" />
  <clipPath
     id="p.0">
    <path
       d="m 0,0 294.37534,0 0,100 L 0,100 0,0 Z"
       id="path5"
       inkscape:connector-curvature="0"
       style="clip-rule:nonzero" />
  </clipPath>
  <path
     style="fill:#00bbff;fill-rule:nonzero;stroke:#000000;stroke-width:1;stroke-miterlimit:10;stroke-dasharray:none;stroke-opacity:1;fill-opacity:1"
     d="m 22.109375,0.500002 8.640625,0 0,24.468752 c 0,3.364583 -0.760417,5.807292 -2.28125,7.328125 -1.520833,1.520833 -3.963542,1.796871 -7.328125,1.796871 l -11.03125,0 c -3.3645833,0 -5.8072917,-0.276038 -7.328125,-1.796871 C 1.2604167,30.776046 0.5,28.333337 0.5,24.968754 l 0,-24.468752 8.640625,0 0,24.468752 c 0,1.927083 0.963542,2.890625 2.890625,2.890625 l 7.1875,0 c 1.927083,0 2.890625,-0.963542 2.890625,-2.890625 z"
     id="path4186"
     inkscape:connector-curvature="0"
     sodipodi:nodetypes="ccssssssccssssc" />
  <path
     style="fill:#00bbff;fill-rule:nonzero;stroke:#000000;stroke-width:1;stroke-miterlimit:10;stroke-dasharray:none;stroke-opacity:1;fill-opacity:1"
     d="m 45.859375,0.5 -12.71875,33.59375 9.359375,0 2.171875,-6 12,0 2.15625,6 9.359375,0 L 55.46875,0.5 l -9.609375,0 z m 4.8125,10.078125 3.828125,11.28125 -7.671875,0 3.84375,-11.28125 z"
     id="path4184"
     inkscape:connector-curvature="0" />
  <path
     style="fill:#00bbff;fill-rule:nonzero;stroke:#000000;stroke-width:1;stroke-miterlimit:10;stroke-dasharray:none;stroke-opacity:1;fill-opacity:1"
     d="M 81.743563,24.015627 89.899813,0.5 l 9.359381,0 -12.718751,33.59375 -9.60939,0 L 64.212303,0.5 l 9.35938,0 8.17188,23.515627 z"
     id="path4180"
     inkscape:connector-curvature="0" />
  <path
     style="fill:#00bbff;fill-rule:nonzero;stroke:#000000;stroke-width:1;stroke-miterlimit:10;stroke-dasharray:none;stroke-opacity:1;fill-opacity:1"
     d="m 126.61267,34.09375 -17.85937,0 c -3.13542,0 -5.33334,-0.249995 -6.81251,-1.718745 -1.46875,-1.479167 -2.203116,-3.786458 -2.203116,-6.921875 l 0,-15.359375 c 0,-3.3645847 0.760416,-5.8020853 2.281246,-7.312502 C 103.53975,1.2604167 105.97725,0.5 109.33142,0.5 l 17.28125,0 0,6.71875 -15.35938,0 c -1.91667,0 -2.875,0.958334 -2.875,2.875002 l 0,14.398438 c 0,1.631635 1.60602,2.929687 3,2.929687 8.91928,0 8.22426,0.0013 15.23438,-0.04688 z"
     id="path4178"
     inkscape:connector-curvature="0"
     sodipodi:nodetypes="cscsscsccsscccc" />
  <path
     style="fill:#00bbff;fill-rule:nonzero;stroke:#000000;stroke-width:1;stroke-miterlimit:10;stroke-dasharray:none;stroke-opacity:1;fill-opacity:1"
     d="m 141.7793,0.5 -12.71875,33.59375 9.35937,0 2.17188,-6 12,0 2.15625,6 9.35937,0 L 151.38867,0.5 l -9.60937,0 z m 4.8125,10.078125 3.82812,11.28125 -7.67187,0 3.84375,-11.28125 z"
     id="path4176"
     inkscape:connector-curvature="0" />
  <path
     style="fill:#00bbff;fill-rule:nonzero;stroke:#000000;stroke-width:1;stroke-miterlimit:10;stroke-dasharray:none;stroke-opacity:1;fill-opacity:1"
     d="m 195.78156,34.093752 -9.10937,0 -11.53125,-20.15625 0,20.15625 -8.64063,0 0,-33.59375 9.125,0 11.51563,20.156252 0,-20.156252 8.64062,0 0,33.59375 z"
     id="path13"
     inkscape:connector-curvature="0" />
  <path
     style="fill:#000000;fill-rule:nonzero"
     inkscape:connector-curvature="0"
     id="path17"
     d="m 4.0858568,53.936272 -1.328125,0 0,-7.75 1.328125,0 0,7.75 z m -1.421875,-9.796875 q 0,-0.328125 0.1875,-0.546875 0.203125,-0.21875 0.578125,-0.21875 0.390625,0 0.59375,0.21875 0.203125,0.21875 0.203125,0.546875 0,0.328125 -0.203125,0.546875 -0.203125,0.203125 -0.59375,0.203125 -0.375,0 -0.578125,-0.203125 -0.1875,-0.21875 -0.1875,-0.546875 z m 4.791092,2.046875 0.04687,0.984375 q 0.890625,-1.125 2.3125002,-1.125 2.46875,0 2.484375,2.78125 l 0,5.109375 -1.328125,0 0,-5.125 q 0,-0.84375 -0.375,-1.234375 -0.375,-0.40625 -1.171875,-0.40625 -0.6406252,0 -1.1406252,0.34375 -0.484375,0.34375 -0.75,0.90625 l 0,5.515625 -1.328125,0 0,-7.75 1.25,0 z m 8.6335752,-1.875 0,1.875 1.453125,0 0,1.03125 -1.453125,0 0,4.796875 q 0,0.46875 0.1875,0.703125 0.203125,0.234375 0.671875,0.234375 0.21875,0 0.625,-0.09375 l 0,1.078125 q -0.53125,0.140625 -1.015625,0.140625 -0.890625,0 -1.34375,-0.53125 -0.453125,-0.546875 -0.453125,-1.53125 l 0,-4.796875 -1.40625,0 0,-1.03125 1.40625,0 0,-1.875 1.328125,0 z m 6.740738,3.0625 q -0.3125,-0.04687 -0.65625,-0.04687 -1.296875,0 -1.765625,1.109375 l 0,5.5 -1.328125,0 0,-7.75 1.296875,0 0.01563,0.90625 q 0.65625,-1.046875 1.84375,-1.046875 0.390625,0 0.59375,0.109375 l 0,1.21875 z m 5.990616,6.5625 q -0.109375,-0.234375 -0.1875,-0.8125 -0.921875,0.953125 -2.203125,0.953125 -1.140625,0 -1.875,-0.640625 -0.734375,-0.65625 -0.734375,-1.640625 0,-1.21875 0.921875,-1.875 0.921875,-0.671875 2.578125,-0.671875 l 1.296875,0 0,-0.609375 q 0,-0.703125 -0.421875,-1.109375 -0.40625,-0.40625 -1.21875,-0.40625 -0.703125,0 -1.1875,0.359375 -0.484375,0.34375 -0.484375,0.859375 l -1.328125,0 q 0,-0.578125 0.40625,-1.109375 0.421875,-0.546875 1.125,-0.859375 0.703125,-0.328125 1.546875,-0.328125 1.34375,0 2.09375,0.671875 0.765625,0.671875 0.796875,1.84375 l 0,3.5625 q 0,1.0625 0.265625,1.703125 l 0,0.109375 -1.390625,0 z m -2.203125,-1.015625 q 0.625,0 1.1875,-0.3125 0.5625,-0.328125 0.8125,-0.84375 l 0,-1.578125 -1.046875,0 q -2.421875,0 -2.421875,1.421875 0,0.625 0.40625,0.96875 0.421875,0.34375 1.0625,0.34375 z m 7.956574,-0.78125 1.90625,-5.953125 1.359375,0 -2.78125,7.75 -1,0 -2.8125,-7.75 1.359375,0 1.96875,5.953125 z m 7.755371,1.9375 q -1.578125,0 -2.5625,-1.03125 -0.984375,-1.03125 -0.984375,-2.765625 l 0,-0.25 q 0,-1.140625 0.4375,-2.046875 0.4375,-0.90625 1.21875,-1.421875 0.796875,-0.515625 1.71875,-0.515625 1.515625,0 2.34375,1 0.84375,1 0.84375,2.84375 l 0,0.546875 -5.25,0 q 0.03125,1.15625 0.671875,1.859375 0.640625,0.703125 1.625,0.703125 0.703125,0 1.1875,-0.28125 0.5,-0.296875 0.859375,-0.765625 l 0.8125,0.625 q -0.984375,1.5 -2.921875,1.5 z m -0.171875,-6.9375 q -0.796875,0 -1.34375,0.59375 -0.546875,0.578125 -0.671875,1.625 l 3.875,0 0,-0.109375 q -0.04687,-1 -0.546875,-1.546875 -0.484375,-0.5625 -1.3125,-0.5625 z m 6.045913,-0.01563 q 0.875,-1.078125 2.28125,-1.078125 2.468746,0 2.484376,2.78125 l 0,5.109375 -1.32813,0 0,-5.125 q 0,-0.84375 -0.375,-1.234375 -0.374996,-0.40625 -1.171871,-0.40625 -0.640625,0 -1.140625,0.34375 -0.484375,0.34375 -0.75,0.90625 l 0,5.515625 -1.328125,0 0,-11 1.328125,0 0,4.1875 z m 8.181766,6.8125 -1.32813,0 0,-7.75 1.32813,0 0,7.75 z m -1.42188,-9.796875 q 0,-0.328125 0.1875,-0.546875 0.20313,-0.21875 0.57813,-0.21875 0.39062,0 0.59375,0.21875 0.20312,0.21875 0.20312,0.546875 0,0.328125 -0.20312,0.546875 -0.20313,0.203125 -0.59375,0.203125 -0.375,0 -0.57813,-0.203125 -0.1875,-0.21875 -0.1875,-0.546875 z m 6.65047,8.859375 q 0.70312,0 1.23437,-0.421875 0.53125,-0.4375 0.59375,-1.078125 l 1.25,0 q -0.0312,0.65625 -0.45312,1.265625 -0.42188,0.59375 -1.14063,0.953125 -0.70312,0.359375 -1.48437,0.359375 -1.57813,0 -2.51563,-1.046875 -0.9375,-1.0625 -0.9375,-2.890625 l 0,-0.21875 q 0,-1.140625 0.40625,-2.015625 0.42188,-0.875 1.20313,-1.359375 0.78125,-0.5 1.82812,-0.5 1.3125,0 2.17188,0.78125 0.85937,0.78125 0.92187,2.03125 l -1.25,0 q -0.0625,-0.75 -0.57812,-1.234375 -0.5,-0.484375 -1.26563,-0.484375 -1,0 -1.5625,0.734375 -0.54687,0.71875 -0.54687,2.09375 l 0,0.25 q 0,1.328125 0.54687,2.0625 0.54688,0.71875 1.57813,0.71875 z m 9.34351,0.171875 q -0.76563,0.90625 -2.26563,0.90625 -1.23437,0 -1.89062,-0.71875 -0.64063,-0.71875 -0.65625,-2.125 l 0,-5.046875 1.32812,0 0,5.015625 q 0,1.75 1.4375,1.75 1.51563,0 2.01563,-1.125 l 0,-5.640625 1.32812,0 0,7.75 -1.26562,0 -0.0312,-0.765625 z m 4.73579,0.765625 -1.32813,0 0,-11 1.32813,0 0,11 z m 6.90047,0 q -0.10937,-0.234375 -0.1875,-0.8125 -0.92187,0.953125 -2.20312,0.953125 -1.14063,0 -1.87501,-0.640625 -0.73437,-0.65625 -0.73437,-1.640625 0,-1.21875 0.92187,-1.875 0.92188,-0.671875 2.57813,-0.671875 l 1.29688,0 0,-0.609375 q 0,-0.703125 -0.42188,-1.109375 -0.40625,-0.40625 -1.21875,-0.40625 -0.70312,0 -1.1875,0.359375 -0.48438,0.34375 -0.48438,0.859375 l -1.32812,0 q 0,-0.578125 0.40625,-1.109375 0.42187,-0.546875 1.125,-0.859375 0.70313,-0.328125 1.54688,-0.328125 1.34375,0 2.09375,0.671875 0.76562,0.671875 0.79687,1.84375 l 0,3.5625 q 0,1.0625 0.26563,1.703125 l 0,0.109375 -1.39063,0 z m -2.20312,-1.015625 q 0.625,0 1.1875,-0.3125 0.5625,-0.328125 0.8125,-0.84375 l 0,-1.578125 -1.04688,0 q -2.42188,0 -2.42188,1.421875 0,0.625 0.40626,0.96875 0.42187,0.34375 1.0625,0.34375 z m 9.14407,-5.546875 q -0.3125,-0.04687 -0.65625,-0.04687 -1.29687,0 -1.76562,1.109375 l 0,5.5 -1.32813,0 0,-7.75 1.29688,0 0.0156,0.90625 q 0.65625,-1.046875 1.84375,-1.046875 0.39063,0 0.59375,0.109375 l 0,1.21875 z m 7.94702,5.625 q 0.703131,0 1.234381,-0.421875 0.531251,-0.4375 0.593751,-1.078125 l 1.250001,0 q -0.0312,0.65625 -0.45313,1.265625 -0.421871,0.59375 -1.140622,0.953125 -0.70313,0.359375 -1.484381,0.359375 -1.57812,0 -2.51562,-1.046875 -0.9375,-1.0625 -0.9375,-2.890625 l 0,-0.21875 q 0,-1.140625 0.40625,-2.015625 0.42187,-0.875 1.20312,-1.359375 0.78125,-0.5 1.82813,-0.5 1.312501,0 2.171872,0.78125 0.859381,0.78125 0.921881,2.03125 l -1.250001,0 q -0.0625,-0.75 -0.578131,-1.234375 -0.5,-0.484375 -1.265621,-0.484375 -1,0 -1.5625,0.734375 -0.54688,0.71875 -0.54688,2.09375 l 0,0.25 q 0,1.328125 0.54688,2.0625 0.54687,0.71875 1.57812,0.71875 z m 4.218513,-3 q 0,-1.140625 0.4375,-2.046875 0.45312,-0.921875 1.25,-1.40625 0.79687,-0.5 1.82812,-0.5 1.57813,0 2.54688,1.09375 0.98437,1.09375 0.98437,2.921875 l 0,0.09375 q 0,1.125 -0.4375,2.03125 -0.4375,0.890625 -1.25,1.390625 -0.79687,0.5 -1.84375,0.5 -1.5625,0 -2.54687,-1.09375 -0.96875,-1.09375 -0.96875,-2.890625 l 0,-0.09375 z m 1.32812,0.15625 q 0,1.28125 0.59375,2.0625 0.59375,0.78125 1.59375,0.78125 1.01563,0 1.60938,-0.78125 0.59375,-0.796875 0.59375,-2.21875 0,-1.28125 -0.60938,-2.0625 -0.59375,-0.796875 -1.59375,-0.796875 -0.98437,0 -1.59375,0.78125 -0.59375,0.78125 -0.59375,2.234375 z m 8.62427,-3.96875 0.0312,0.859375 q 0.85938,-1 2.29688,-1 1.625,0 2.21875,1.25 0.375,-0.5625 1,-0.90625 0.625,-0.34375 1.46875,-0.34375 2.54687,0 2.57812,2.703125 l 0,5.1875 -1.3125,0 0,-5.109375 q 0,-0.828125 -0.39062,-1.234375 -0.375,-0.421875 -1.26563,-0.421875 -0.73437,0 -1.23437,0.453125 -0.48438,0.4375 -0.5625,1.171875 l 0,5.140625 -1.32813,0 0,-5.078125 q 0,-1.6875 -1.65625,-1.6875 -1.29687,0 -1.78125,1.109375 l 0,5.65625 -1.3125,0 0,-7.75 1.25,0 z m 12.84568,0 0.0312,0.859375 q 0.85937,-1 2.29687,-1 1.625,0 2.21875,1.25 0.375,-0.5625 1,-0.90625 0.625,-0.34375 1.46875,-0.34375 2.54688,0 2.57813,2.703125 l 0,5.1875 -1.3125,0 0,-5.109375 q 0,-0.828125 -0.39063,-1.234375 -0.375,-0.421875 -1.26562,-0.421875 -0.73438,0 -1.23438,0.453125 -0.48437,0.4375 -0.5625,1.171875 l 0,5.140625 -1.32812,0 0,-5.078125 q 0,-1.6875 -1.65625,-1.6875 -1.29688,0 -1.78125,1.109375 l 0,5.65625 -1.3125,0 0,-7.75 1.25,0 z m 16.37695,6.984375 q -0.76563,0.90625 -2.26563,0.90625 -1.23437,0 -1.89062,-0.71875 -0.64063,-0.71875 -0.65625,-2.125 l 0,-5.046875 1.32812,0 0,5.015625 q 0,1.75 1.4375,1.75 1.51563,0 2.01563,-1.125 l 0,-5.640625 1.32812,0 0,7.75 -1.26562,0 -0.0312,-0.765625 z m 4.54828,-6.984375 0.0469,0.984375 q 0.89063,-1.125 2.3125,-1.125 2.46875,0 2.48438,2.78125 l 0,5.109375 -1.32813,0 0,-5.125 q 0,-0.84375 -0.375,-1.234375 -0.375,-0.40625 -1.17187,-0.40625 -0.64063,0 -1.14063,0.34375 -0.48437,0.34375 -0.75,0.90625 l 0,5.515625 -1.32812,0 0,-7.75 1.25,0 z m 8.2742,7.75 -1.32813,0 0,-7.75 1.32813,0 0,7.75 z m -1.42188,-9.796875 q 0,-0.328125 0.1875,-0.546875 0.20313,-0.21875 0.57813,-0.21875 0.39062,0 0.59375,0.21875 0.20312,0.21875 0.20312,0.546875 0,0.328125 -0.20312,0.546875 -0.20313,0.203125 -0.59375,0.203125 -0.375,0 -0.57813,-0.203125 -0.1875,-0.21875 -0.1875,-0.546875 z m 6.65048,8.859375 q 0.70313,0 1.23438,-0.421875 0.53125,-0.4375 0.59375,-1.078125 l 1.25,0 q -0.0312,0.65625 -0.45313,1.265625 -0.42187,0.59375 -1.14062,0.953125 -0.70313,0.359375 -1.48438,0.359375 -1.57812,0 -2.51562,-1.046875 -0.9375,-1.0625 -0.9375,-2.890625 l 0,-0.21875 q 0,-1.140625 0.40625,-2.015625 0.42187,-0.875 1.20312,-1.359375 0.78125,-0.5 1.82813,-0.5 1.3125,0 2.17187,0.78125 0.85938,0.78125 0.92188,2.03125 l -1.25,0 q -0.0625,-0.75 -0.57813,-1.234375 -0.5,-0.484375 -1.26562,-0.484375 -1,0 -1.5625,0.734375 -0.54688,0.71875 -0.54688,2.09375 l 0,0.25 q 0,1.328125 0.54688,2.0625 0.54687,0.71875 1.57812,0.71875 z m 9.34351,0.9375 q -0.10937,-0.234375 -0.1875,-0.8125 -0.92187,0.953125 -2.20312,0.953125 -1.14063,0 -1.875,-0.640625 -0.73438,-0.65625 -0.73438,-1.640625 0,-1.21875 0.92188,-1.875 0.92187,-0.671875 2.57812,-0.671875 l 1.29688,0 0,-0.609375 q 0,-0.703125 -0.42188,-1.109375 -0.40625,-0.40625 -1.21875,-0.40625 -0.70312,0 -1.1875,0.359375 -0.48437,0.34375 -0.48437,0.859375 l -1.32813,0 q 0,-0.578125 0.40625,-1.109375 0.42188,-0.546875 1.125,-0.859375 0.70313,-0.328125 1.54688,-0.328125 1.34375,0 2.09375,0.671875 0.76562,0.671875 0.79687,1.84375 l 0,3.5625 q 0,1.0625 0.26563,1.703125 l 0,0.109375 -1.39063,0 z m -2.20312,-1.015625 q 0.625,0 1.1875,-0.3125 0.5625,-0.328125 0.8125,-0.84375 l 0,-1.578125 -1.04688,0 q -2.42187,0 -2.42187,1.421875 0,0.625 0.40625,0.96875 0.42187,0.34375 1.0625,0.34375 z m 7.19094,-8.609375 0,1.875 1.45313,0 0,1.03125 -1.45313,0 0,4.796875 q 0,0.46875 0.1875,0.703125 0.20313,0.234375 0.67188,0.234375 0.21875,0 0.625,-0.09375 l 0,1.078125 q -0.53125,0.140625 -1.01563,0.140625 -0.89062,0 -1.34375,-0.53125 -0.45312,-0.546875 -0.45312,-1.53125 l 0,-4.796875 -1.40625,0 0,-1.03125 1.40625,0 0,-1.875 1.32812,0 z m 4.42823,9.625 -1.32813,0 0,-7.75 1.32813,0 0,7.75 z m -1.42188,-9.796875 q 0,-0.328125 0.1875,-0.546875 0.20313,-0.21875 0.57813,-0.21875 0.39062,0 0.59375,0.21875 0.20312,0.21875 0.20312,0.546875 0,0.328125 -0.20312,0.546875 -0.20313,0.203125 -0.59375,0.203125 -0.375,0 -0.57813,-0.203125 -0.1875,-0.21875 -0.1875,-0.546875 z m 3.19736,5.859375 q 0,-1.140625 0.4375,-2.046875 0.45312,-0.921875 1.25,-1.40625 0.79687,-0.5 1.82812,-0.5 1.57813,0 2.54688,1.09375 0.98437,1.09375 0.98437,2.921875 l 0,0.09375 q 0,1.125 -0.4375,2.03125 -0.4375,0.890625 -1.25,1.390625 -0.79687,0.5 -1.84375,0.5 -1.5625,0 -2.54687,-1.09375 -0.96875,-1.09375 -0.96875,-2.890625 l 0,-0.09375 z m 1.32812,0.15625 q 0,1.28125 0.59375,2.0625 0.59375,0.78125 1.59375,0.78125 1.01563,0 1.60938,-0.78125 0.59375,-0.796875 0.59375,-2.21875 0,-1.28125 -0.60938,-2.0625 -0.59375,-0.796875 -1.59375,-0.796875 -0.98437,0 -1.59375,0.78125 -0.59375,0.78125 -0.59375,2.234375 z m 8.62427,-3.96875 0.0469,0.984375 q 0.89062,-1.125 2.3125,-1.125 2.46875,0 2.48437,2.78125 l 0,5.109375 -1.32812,0 0,-5.125 q 0,-0.84375 -0.375,-1.234375 -0.375,-0.40625 -1.17188,-0.40625 -0.64062,0 -1.14062,0.34375 -0.48438,0.34375 -0.75,0.90625 l 0,5.515625 -1.32813,0 0,-7.75 1.25,0 z" />
</svg>
