<?xml version="1.0" encoding="UTF-8" standalone="no"?>
<svg
   xmlns:dc="http://purl.org/dc/elements/1.1/"
   xmlns:cc="http://creativecommons.org/ns#"
   xmlns:rdf="http://www.w3.org/1999/02/22-rdf-syntax-ns#"
   xmlns:svg="http://www.w3.org/2000/svg"
   xmlns="http://www.w3.org/2000/svg"
   viewBox="0 0 162.66667 42.666668"
   height="42.666668"
   width="162.66667"
   xml:space="preserve"
   id="svg2"
   version="1.1"><metadata
     id="metadata8"><rdf:RDF><cc:Work
         rdf:about=""><dc:format>image/svg+xml</dc:format><dc:type
           rdf:resource="http://purl.org/dc/dcmitype/StillImage" /></cc:Work></rdf:RDF></metadata><defs
     id="defs6" /><g
     transform="matrix(1.3333333,0,0,-1.3333333,0,42.666667)"
     id="g10"><g
       transform="scale(0.1)"
       id="g12"><path
         id="path14"
         style="fill:#000000;fill-opacity:1;fill-rule:evenodd;stroke:none"
         d="m 1187.73,29.8398 2.86,17.5 -524.418,-0.5117 V 66.6719 H 609.449 V 10 h 56.723 v 19.8398 z" /><path
         id="path16"
         style="fill:#000000;fill-opacity:1;fill-rule:evenodd;stroke:none"
         d="m 598.121,55.3516 -19.062,-0.2422 -0.039,11.3711 -57.418,0.1914 V 46.8281 H 5.66016 L 0,26.9883 H 521.602 V 10 h 56.679 v 11.3203 h 19.84 z m -19.84,-8.5235 h 11.3281 V 29.8398 H 578.281 Z" /><path
         id="path18"
         style="fill:#211e1e;fill-opacity:1;fill-rule:nonzero;stroke:none"
         d="m 775.98,95.5391 c -11.25,-3.8985 -21.718,-7.1875 -31.718,-9.3672 -10.16,-2.1914 -20.16,-3.2813 -30.633,-3.2813 -16.559,0 -30.309,2.1797 -41.09,7.1797 -11.09,4.6914 -20.16,10.7817 -26.559,18.7497 -6.57,7.66 -11.25,16.571 -14.07,26.719 -2.808,9.691 -4.371,20.16 -4.371,30.473 0,4.379 0.473,9.379 1.09,16.25 0.473,6.558 1.57,13.75 3.281,21.558 1.879,7.969 3.91,16.571 6.879,25.321 2.813,8.589 6.41,17.179 11.09,25.929 4.691,8.602 10.16,16.571 16.57,24.379 6.563,7.653 14.063,14.371 23.121,20.621 8.59,5.629 18.59,10.321 29.84,13.91 11.57,3.282 24.07,5.161 38.442,5.161 10.468,0 20.628,-0.789 30.308,-2.192 9.692,-1.41 18.75,-3.597 27.039,-6.097 l -8.289,-40 c -7.18,2.82 -15.148,5 -23.75,7.187 -8.75,1.883 -17.648,2.813 -26.711,2.813 -11.097,0 -20.789,-2.032 -29.539,-6.403 -8.281,-3.91 -15.461,-9.379 -21.558,-16.25 -6.09,-6.41 -10.782,-14.058 -14.692,-22.347 -4.371,-8.282 -7.34,-16.563 -9.84,-24.84 -2.031,-8.282 -3.59,-15.782 -4.691,-23.282 -0.93,-7.191 -1.399,-12.968 -1.399,-17.66 0,-5 0.469,-10.468 1.399,-16.25 0.781,-5.781 2.973,-10.781 6.25,-15.468 3.133,-4.68 8.281,-8.59 14.383,-11.872 6.398,-3.281 14.687,-4.691 25.468,-4.691 4.059,0 8.282,0.313 12.649,1.102 4.691,0.781 9.07,1.398 13.75,2.5 4.531,1.089 9.223,2.5 13.91,3.898 4.691,1.883 9.063,3.281 13.441,5.16 z" /><path
         id="path20"
         style="fill:#211e1e;fill-opacity:1;fill-rule:nonzero;stroke:none"
         d="M 943.359,86.1719 939.77,131.48 H 859.449 L 837.422,86.1719 h -45 L 906.641,315.852 h 60.468 L 988.98,86.1719 Z M 928.52,273.672 876.801,166.789 h 60 z" /><path
         id="path22"
         style="fill:#211e1e;fill-opacity:1;fill-rule:nonzero;stroke:none"
         d="m 1120.74,86.1719 -34.06,137.1801 -6.88,29.539 -19.06,-95.469 -14.06,-71.2501 h -39.22 l 46.09,229.6801 h 50.63 l 35,-137.813 5.78,-27.027 20.16,101.41 12.97,63.43 h 39.53 l -46.1,-229.6801 z" /><path
         id="path24"
         style="fill:#0094d9;fill-opacity:1;fill-rule:nonzero;stroke:none"
         d="m 176.289,167.891 c -2.969,-14.379 -6.879,-27.352 -12.66,-37.821 -5.777,-10.781 -12.649,-19.679 -20.93,-26.558 -8.289,-6.8714 -17.969,-12.1917 -29.07,-15.4729 -11.25,-3.2774 -23.4298,-5 -36.7188,-5 -12.6485,0 -23.1211,1.4101 -32.5,4.2226 -8.8985,2.9688 -16.5586,6.8789 -22.3399,11.8789 -5.6211,5.4614 -9.6914,11.8714 -12.19139,19.0584 -2.5,7.653 -3.89844,15.942 -3.89844,24.84 0,7.66 1.08984,16.25 2.80859,24.852 L 38.6289,316.641 H 81.9102 L 52.0703,166.789 c -1.4101,-7.187 -2.1914,-13.59 -2.1914,-19.059 0,-4.691 0.7813,-8.91 1.7227,-12.5 1.0976,-3.589 2.9687,-6.878 5.4687,-9.058 2.5,-2.5 5.7813,-4.383 10,-5.781 4.3789,-1.102 9.3789,-1.719 15.1602,-1.719 7.1797,0 13.4297,1.09 19.0585,2.808 5.473,1.872 10.473,4.692 14.531,8.59 4.219,4.071 7.809,9.379 10.309,15.629 2.973,6.09 5.473,13.903 6.883,22.973 l 29.84,147.969 h 43.597 z" /><path
         id="path26"
         style="fill:#0094d9;fill-opacity:1;fill-rule:nonzero;stroke:none"
         d="m 327.07,86.9492 -3.59,45.3128 H 243.16 L 221.129,86.9492 h -45 L 290.352,316.641 H 350.82 L 372.699,86.9492 Z M 312.23,274.449 260.512,167.57 h 60 z" /><path
         id="path28"
         style="fill:#0094d9;fill-opacity:1;fill-rule:nonzero;stroke:none"
         d="M 500.859,86.9492 H 443.672 L 419.609,316.641 h 46.411 l 11.871,-138.289 3.589,-45.313 22.661,47.813 64.839,135.789 h 48.598 z" /></g></g></svg>