<?xml version="1.0" encoding="UTF-8" standalone="no"?>
<svg
   xmlns:dc="http://purl.org/dc/elements/1.1/"
   xmlns:cc="http://creativecommons.org/ns#"
   xmlns:rdf="http://www.w3.org/1999/02/22-rdf-syntax-ns#"
   xmlns:svg="http://www.w3.org/2000/svg"
   xmlns="http://www.w3.org/2000/svg"
   xmlns:sodipodi="http://sodipodi.sourceforge.net/DTD/sodipodi-0.dtd"
   xmlns:inkscape="http://www.inkscape.org/namespaces/inkscape"
   version="1.1"
   viewBox="0 0 187.62027 54.626701"
   stroke-miterlimit="10"
   id="svg2"
   inkscape:version="0.91 r13725"
   sodipodi:docname="logo.svg"
   width="187.62027"
   height="54.626701"
   style="fill:none;stroke:none;stroke-linecap:square;stroke-miterlimit:10">
  <metadata
     id="metadata23">
    <rdf:RDF>
      <cc:Work
         rdf:about="">
        <dc:format>image/svg+xml</dc:format>
        <dc:type
           rdf:resource="http://purl.org/dc/dcmitype/StillImage" />
        <dc:title />
      </cc:Work>
    </rdf:RDF>
  </metadata>
  <defs
     id="defs21" />
  <sodipodi:namedview
     pagecolor="#ffffff"
     bordercolor="#666666"
     borderopacity="1"
     objecttolerance="10"
     gridtolerance="10"
     guidetolerance="10"
     inkscape:pageopacity="0"
     inkscape:pageshadow="2"
     inkscape:window-width="3840"
     inkscape:window-height="2081"
     id="namedview19"
     showgrid="false"
     fit-margin-top="1"
     fit-margin-left="1"
     fit-margin-right="1"
     fit-margin-bottom="1"
     inkscape:zoom="4.8809829"
     inkscape:cx="94.952792"
     inkscape:cy="30.471349"
     inkscape:window-x="3840"
     inkscape:window-y="0"
     inkscape:window-maximized="1"
     inkscape:current-layer="svg2" />
  <clipPath
     id="p.0">
    <path
       d="m 0,0 294.37534,0 0,100 L 0,100 0,0 Z"
       id="path5"
       inkscape:connector-curvature="0"
       style="clip-rule:nonzero" />
  </clipPath>
  <path
     style="fill:#0077ff;fill-opacity:1;fill-rule:nonzero"
     d="m 108.7207,1.0022727 c -2.53124,-0.0416668 -4.86458,0.4895832 -7,1.59375 -2.135411,1.09375 -3.989577,2.75 -5.562497,4.96875 -1.5625,2.2083349 -2.692712,4.8072923 -3.390625,7.7968753 -0.69792,2.979167 -0.973958,5.734375 -0.828125,8.265625 0.1875,3.791667 1.302083,6.802083 3.34375,9.03125 2.052087,2.21875 4.859377,3.364583 8.421877,3.4375 2.59374,0.05208 5.00001,-0.421875 7.21875,-1.421875 2.22916,-1.010417 4.02604,-2.442708 5.39062,-4.296875 1.375,-1.864583 2.16146,-3.989583 2.35938,-6.375 l -7.82813,0.09375 c -0.3125,1.8125 -1.03125,3.213542 -2.15625,4.203125 -1.12499,0.989583 -2.63021,1.453125 -4.51562,1.390625 -2.92709,-0.104167 -4.34896,-2.078125 -4.265627,-5.921875 0,-1.302083 0.208337,-3.46875 0.624997,-6.5 0.92709,-6.697918 3.50001,-9.9791669 7.71875,-9.8437503 1.6875,0.0625 2.92188,0.5416667 3.70313,1.4375 0.78126,0.8854182 1.15626,2.3697923 1.125,4.4531253 l 7.98437,0.01563 c -0.1875,-3.8125018 -1.36458,-6.8020836 -3.53125,-8.9687503 -2.15625,-2.1770833 -5.09375,-3.296875 -8.8125,-3.359375 z m -102.8359344,0.5 -3.796875,22.2812503 c -0.28125,2.395833 0.010417,4.526042 0.875,6.390625 0.875,1.864583 2.2239584,3.3125 4.046875,4.34375 1.8333334,1.02083 3.9895854,1.557288 6.4687504,1.609375 4,0.0625 7.317708,-1.015625 9.953125,-3.234375 2.635416,-2.229167 4.223958,-5.270833 4.765625,-9.125 l 3.796875,-22.2656253 -8.015625,0 -3.796875,22.2812503 c -0.697917,4.09375 -2.765625,6.088542 -6.203125,5.984375 -1.1875,-0.05208 -2.109378,-0.395833 -2.765625,-1.03125 -0.645834,-0.645833 -1.005209,-1.546875 -1.078125,-2.703125 -0.0625,-0.697917 -0.04687,-1.4375 0.04687,-2.21875 l 3.765625,-22.3125003 -8.0625004,0 z m 40.6250004,0 -18.078125,34.1250003 8.84375,0 3.015625,-6.375 10.90625,0 0.8125,6.375 8.34375,0 -6.296875,-34.1250003 -7.546875,0 z m 15.710937,0 5.71875,34.1250003 8.765625,0 16.5,-34.1250003 -9.1875,0 -10.453125,24.7500003 -2.671875,-24.7500003 -8.671875,0 z m 74.015627,0 -18.07813,34.1250003 8.84375,0 3.01563,-6.375 10.90625,0 0.8125,6.375 8.34375,0 -6.29688,-34.1250003 -7.54687,0 z m 22.49219,0 -5.90625,34.1250003 8.01562,0 3.75,-21.546875 8.15625,21.546875 7.76563,0 5.92187,-34.1250003 -8.01562,0 -3.71875,21.5312503 -8.14063,-21.5312503 -7.82812,0 z m -109.859379,9.6250003 1.5,11.765625 -7.078125,0 5.578125,-11.765625 z m 89.726559,0 1.5,11.765625 -7.07812,0 5.57812,-11.765625 z"
     id="path4167"
     inkscape:connector-curvature="0" />
  <path
     style="fill:#000000;fill-rule:nonzero"
     inkscape:connector-curvature="0"
     id="path17"
     d="m 1.859375,53.470113 -0.859375,0 1.359375,-7.75 0.84375,0 -1.34375,7.75 z M 2.59375,43.485738 q 0.03125,-0.46875 0.609375,-0.578125 0.28125,0.04687 0.390625,0.171875 0.125,0.125 0.15625,0.40625 -0.0625,0.265625 -0.203125,0.40625 -0.140625,0.125 -0.40625,0.171875 Q 2.5625,43.985733 2.59375,43.485738 Z m 3.724899,2.234375 -0.25,1.328125 q 0.515625,-0.71875 1.1875,-1.09375 0.671875,-0.390625 1.453125,-0.375 1.1093748,0.03125 1.609375,0.78125 0.515625,0.75 0.375,2.078125 l -0.8437502,5.03125 -0.84375,0 0.84375,-5.046875 q 0.03125,-0.40625 0.01563,-0.796875 -0.125,-1.265625 -1.3906248,-1.3125 -0.75,0 -1.40625,0.46875 -0.65625,0.453125 -1.140625,1.375 l -0.921875,5.3125 -0.84375,0 1.34375,-7.75 0.8125,0 z m 8.722916,-1.96875 -0.34375,1.96875 1.546875,0 -0.109375,0.703125 -1.5625,0 -0.859375,5.171875 -0.01563,0.4375 q 0,0.78125 0.71875,0.8125 0.21875,0 0.703125,-0.0625 l -0.04687,0.703125 q -0.421875,0.125 -0.859375,0.109375 -0.75,-0.01563 -1.09375,-0.515625 -0.34375,-0.515625 -0.25,-1.484375 l 0.859375,-5.171875 -1.390625,0 0.125,-0.703125 1.375,0 0.34375,-1.96875 0.859375,0 z m 6.371704,2.703125 q -0.28125,-0.0625 -0.5625,-0.0625 -0.828125,0 -1.515625,0.5 -0.671875,0.484375 -0.890625,1.25 l -0.921875,5.328125 -0.84375,0 1.34375,-7.75 0.84375,0 -0.265625,1.234375 q 0.421875,-0.6875 1.015625,-1.046875 0.609375,-0.359375 1.328125,-0.34375 0.25,0 0.578125,0.109375 l -0.109375,0.78125 z m 4.930146,7.015625 q -0.03125,-0.265625 -0.01563,-0.546875 l 0.0625,-0.53125 q -0.53125,0.578125 -1.234375,0.90625 -0.6875,0.328125 -1.484375,0.3125 -0.984375,-0.01563 -1.59375,-0.609375 -0.609375,-0.609375 -0.546875,-1.53125 0.0625,-0.765625 0.53125,-1.328125 0.46875,-0.5625 1.328125,-0.875 0.875,-0.3125 1.9375,-0.3125 l 1.578125,0.01563 0.140625,-0.890625 q 0.07813,-0.796875 -0.359375,-1.265625 -0.421875,-0.484375 -1.25,-0.515625 -0.84375,-0.01563 -1.484375,0.421875 -0.625,0.4375 -0.78125,1.140625 l -0.828125,0 q 0.140625,-1.015625 1.03125,-1.65625 0.90625,-0.640625 2.140625,-0.625 1.203125,0.03125 1.84375,0.734375 0.65625,0.6875 0.53125,1.78125 l -0.640625,3.90625 -0.0625,0.609375 q -0.01563,0.390625 0.0625,0.78125 l -0.01563,0.07813 -0.890625,0 z m -2.53125,-0.609375 q 0.796875,0.03125 1.515625,-0.375 0.71875,-0.40625 1.1875,-1.140625 l 0.296875,-1.71875 -1.375,0 q -1.296875,0 -2.125,0.46875 -0.828125,0.453125 -0.90625,1.3125 -0.0625,0.625 0.328125,1.03125 0.40625,0.40625 1.078125,0.421875 z m 7.998443,-0.59375 3.296875,-6.546875 0.90625,0 -4.015625,7.75 -0.6875,0 -1.609375,-7.75 0.84375,0 1.265625,6.546875 z m 7.390274,1.34375 q -0.9375,-0.01563 -1.625,-0.515625 -0.671875,-0.5 -1,-1.375 -0.3125,-0.875 -0.21875,-1.875 l 0.03125,-0.25 q 0.09375,-1.0625 0.625,-2.03125 0.546875,-0.984375 1.359375,-1.484375 0.828125,-0.515625 1.765625,-0.5 0.859375,0.01563 1.453125,0.484375 0.609375,0.453125 0.875,1.265625 0.28125,0.8125 0.171875,1.796875 l -0.04687,0.53125 -5.359375,0 -0.03125,0.171875 q -0.109375,0.78125 0.109375,1.5 0.234375,0.703125 0.734375,1.125 0.5,0.421875 1.21875,0.421875 0.6875,0.03125 1.234375,-0.25 0.546875,-0.296875 1.015625,-0.78125 l 0.5,0.421875 q -0.515625,0.671875 -1.234375,1.015625 -0.71875,0.34375 -1.578125,0.328125 z m 0.890625,-7.296875 q -0.921875,-0.03125 -1.671875,0.671875 -0.734375,0.6875 -1.09375,1.9375 l 4.484375,0.01563 0.03125,-0.109375 q 0.125,-1.015625 -0.359375,-1.75 -0.484375,-0.734375 -1.390625,-0.765625 z m 5.351502,0.71875 q 1.125,-1.484375 2.64062,-1.453125 1.10938,0.03125 1.60938,0.78125 0.51562,0.75 0.375,2.078125 l -0.84375,5.03125 -0.84375,0 0.84375,-5.046875 q 0.0312,-0.40625 0.0156,-0.796875 -0.125,-1.265625 -1.39062,-1.3125 -0.75,0 -1.40625,0.46875 -0.65625,0.453125 -1.140625,1.375 l -0.921875,5.3125 -0.84375,0 1.90625,-11 0.84375,0 -0.84375,4.5625 z m 6.91888,6.4375 -0.85937,0 1.35937,-7.75 0.84375,0 -1.34375,7.75 z m 0.73438,-9.984375 q 0.0312,-0.46875 0.60937,-0.578125 0.28125,0.04687 0.39063,0.171875 0.125,0.125 0.15625,0.40625 -0.0625,0.265625 -0.20313,0.40625 -0.14062,0.125 -0.40625,0.171875 -0.57812,-0.07813 -0.54687,-0.578125 z m 4.56865,9.40625 q 0.84375,0.03125 1.48437,-0.453125 0.65625,-0.5 0.875,-1.359375 l 0.79688,0 q -0.20313,1.15625 -1.125,1.859375 -0.90625,0.703125 -2.07813,0.6875 -0.9375,-0.03125 -1.57812,-0.515625 -0.625,-0.5 -0.90625,-1.375 -0.28125,-0.875 -0.1875,-1.96875 l 0.0312,-0.296875 q 0.0781,-0.765625 0.35937,-1.46875 0.28125,-0.703125 0.75,-1.25 0.48438,-0.546875 1.14063,-0.859375 0.65625,-0.328125 1.46875,-0.3125 1.1875,0.03125 1.89062,0.8125 0.70313,0.765625 0.65625,1.953125 l -0.79687,0 q 0.0156,-0.90625 -0.46875,-1.453125 -0.48438,-0.546875 -1.3125,-0.578125 -0.89063,-0.03125 -1.57813,0.515625 -0.67187,0.546875 -1.01562,1.546875 -0.34375,0.984375 -0.3125,2.109375 0.0156,1.140625 0.5,1.765625 0.5,0.625 1.40625,0.640625 z m 9.53316,-0.390625 q -0.92188,1.15625 -2.54688,1.109375 -1.09375,-0.01563 -1.64062,-0.78125 -0.53125,-0.78125 -0.375,-2.140625 l 0.82812,-4.96875 0.84375,0 -0.82812,4.984375 q -0.0469,0.390625 0,0.765625 0.0469,0.65625 0.39062,1.015625 0.34375,0.359375 0.9375,0.390625 0.85938,0.03125 1.59375,-0.40625 0.73438,-0.4375 0.95313,-1.125 l 0.95312,-5.625 0.85938,0 -1.34375,7.75 -0.82813,0 0.20313,-0.96875 z m 3.69166,0.96875 -0.85937,0 1.90625,-11 0.85937,0 -1.90625,11 z m 7.11553,0 q -0.0312,-0.265625 -0.0156,-0.546875 l 0.0625,-0.53125 q -0.53125,0.578125 -1.23438,0.90625 -0.6875,0.328125 -1.48437,0.3125 -0.98438,-0.01563 -1.59376,-0.609375 -0.60937,-0.609375 -0.54687,-1.53125 0.0625,-0.765625 0.53125,-1.328125 0.46875,-0.5625 1.32813,-0.875 0.875,-0.3125 1.9375,-0.3125 l 1.57812,0.01563 0.14063,-0.890625 q 0.0781,-0.796875 -0.35938,-1.265625 -0.42187,-0.484375 -1.25,-0.515625 -0.84375,-0.01563 -1.48437,0.421875 -0.625,0.4375 -0.78126,1.140625 l -0.82812,0 q 0.14062,-1.015625 1.03125,-1.65625 0.90625,-0.640625 2.14063,-0.625 1.20312,0.03125 1.84375,0.734375 0.65625,0.6875 0.53125,1.78125 l -0.64063,3.90625 -0.0625,0.609375 q -0.0156,0.390625 0.0625,0.78125 l -0.0156,0.07813 -0.89063,0 z m -2.53125,-0.609375 q 0.79688,0.03125 1.51563,-0.375 0.71875,-0.40625 1.1875,-1.140625 l 0.29687,-1.71875 -1.375,0 q -1.29687,0 -2.125,0.46875 -0.82813,0.453125 -0.90625,1.3125 -0.0625,0.625 0.32812,1.03125 0.40625,0.40625 1.07813,0.421875 z m 10.13906,-6.40625 q -0.28125,-0.0625 -0.5625,-0.0625 -0.82813,0 -1.51563,0.5 -0.67187,0.484375 -0.89062,1.25 l -0.92188,5.328125 -0.84375,0 1.34375,-7.75 0.84375,0 -0.26562,1.234375 q 0.42187,-0.6875 1.01562,-1.046875 0.60938,-0.359375 1.32813,-0.34375 0.25,0 0.57812,0.109375 l -0.10937,0.78125 z m 6.645751,6.4375 q 0.84375,0.03125 1.48437,-0.453125 0.65625,-0.5 0.875,-1.359375 l 0.79688,0 q -0.20313,1.15625 -1.125,1.859375 -0.90625,0.703125 -2.07813,0.6875 -0.9375,-0.03125 -1.578121,-0.515625 -0.625,-0.5 -0.90625,-1.375 -0.28125,-0.875 -0.1875,-1.96875 l 0.0312,-0.296875 q 0.0781,-0.765625 0.35937,-1.46875 0.28125,-0.703125 0.75,-1.25 0.484381,-0.546875 1.140631,-0.859375 0.65625,-0.328125 1.46875,-0.3125 1.1875,0.03125 1.89062,0.8125 0.70313,0.765625 0.65625,1.953125 l -0.79687,0 q 0.0156,-0.90625 -0.46875,-1.453125 -0.48438,-0.546875 -1.3125,-0.578125 -0.89063,-0.03125 -1.57813,0.515625 -0.67187,0.546875 -1.015621,1.546875 -0.34375,0.984375 -0.3125,2.109375 0.0156,1.140625 0.5,1.765625 0.500001,0.625 1.406251,0.640625 z m 4.59564,-3.359375 q 0.14062,-1.125 0.6875,-2.0625 0.5625,-0.9375 1.390619,-1.421875 0.84375,-0.484375 1.812501,-0.46875 0.95313,0.01563 1.625,0.53125 0.6875,0.515625 1,1.40625 0.3125,0.875 0.20313,1.953125 l 0,0.125 q -0.21875,1.828125 -1.3125,2.9375 -1.07813,1.109375 -2.593751,1.078125 -1.296879,-0.01563 -2.078129,-0.953125 -0.78125,-0.9375 -0.76562,-2.484375 l 0.0156,-0.40625 0.0156,-0.234375 z m 0.82812,0.234375 q -0.0781,0.859375 0.125,1.578125 0.21875,0.71875 0.70313,1.125 0.484369,0.40625 1.203119,0.421875 0.765631,0.01563 1.406251,-0.390625 0.64063,-0.40625 1.04688,-1.140625 0.42187,-0.75 0.54687,-1.65625 l 0.0156,-0.234375 q 0.14062,-1.375 -0.42188,-2.25 -0.54687,-0.890625 -1.60937,-0.90625 -1.140631,-0.03125 -1.98438,0.890625 -0.82812,0.90625 -1.01562,2.4375 l -0.0156,0.125 z m 9.13038,-4.046875 -0.23438,1.265625 q 1.03125,-1.4375 2.625,-1.40625 0.8125,0.01563 1.34375,0.421875 0.54688,0.390625 0.67188,1.078125 0.53125,-0.71875 1.23437,-1.109375 0.70313,-0.40625 1.53125,-0.390625 1.10938,0.03125 1.64063,0.734375 0.53125,0.703125 0.4375,1.953125 l -0.0156,0.15625 -0.84375,5.046875 -0.85937,0 0.84375,-5.0625 q 0.0469,-0.421875 0.0156,-0.796875 -0.14062,-1.265625 -1.45312,-1.296875 -0.875,0 -1.60938,0.578125 -0.71875,0.578125 -0.90625,1.453125 l -0.89062,5.125 -0.85938,0 0.85938,-5.125 q 0.21875,-1.96875 -1.45313,-2.03125 -0.8125,0 -1.53125,0.53125 -0.70312,0.515625 -0.95312,1.3125 l -0.90625,5.3125 -0.85938,0 1.34375,-7.75 0.82813,0 z m 12.67392,0 -0.23438,1.265625 q 1.03125,-1.4375 2.625,-1.40625 0.8125,0.01563 1.34375,0.421875 0.54688,0.390625 0.67188,1.078125 0.53125,-0.71875 1.23437,-1.109375 0.70313,-0.40625 1.53125,-0.390625 1.10938,0.03125 1.64063,0.734375 0.53125,0.703125 0.4375,1.953125 l -0.0156,0.15625 -0.84375,5.046875 -0.85937,0 0.84375,-5.0625 q 0.0469,-0.421875 0.0156,-0.796875 -0.14062,-1.265625 -1.45312,-1.296875 -0.875,0 -1.60938,0.578125 -0.71875,0.578125 -0.90625,1.453125 l -0.89062,5.125 -0.85938,0 0.85938,-5.125 q 0.21875,-1.96875 -1.45313,-2.03125 -0.8125,0 -1.53125,0.53125 -0.70312,0.515625 -0.95312,1.3125 l -0.90625,5.3125 -0.85938,0 1.34375,-7.75 0.82813,0 z m 15.68957,6.78125 q -0.92187,1.15625 -2.54687,1.109375 -1.09375,-0.01563 -1.64063,-0.78125 -0.53125,-0.78125 -0.375,-2.140625 l 0.82813,-4.96875 0.84375,0 -0.82813,4.984375 q -0.0469,0.390625 0,0.765625 0.0469,0.65625 0.39063,1.015625 0.34375,0.359375 0.9375,0.390625 0.85937,0.03125 1.59375,-0.40625 0.73437,-0.4375 0.95312,-1.125 l 0.95313,-5.625 0.85937,0 -1.34375,7.75 -0.82812,0 0.20312,-0.96875 z m 4.89478,-6.78125 -0.25,1.328125 q 0.51562,-0.71875 1.1875,-1.09375 0.67187,-0.390625 1.45312,-0.375 1.10938,0.03125 1.60938,0.78125 0.51562,0.75 0.375,2.078125 l -0.84375,5.03125 -0.84375,0 0.84375,-5.046875 q 0.0312,-0.40625 0.0156,-0.796875 -0.125,-1.265625 -1.39062,-1.3125 -0.75,0 -1.40625,0.46875 -0.65625,0.453125 -1.14063,1.375 l -0.92187,5.3125 -0.84375,0 1.34375,-7.75 0.8125,0 z m 6.67605,7.75 -0.85937,0 1.35937,-7.75 0.84375,0 -1.34375,7.75 z m 0.73438,-9.984375 q 0.0312,-0.46875 0.60937,-0.578125 0.28125,0.04687 0.39063,0.171875 0.125,0.125 0.15625,0.40625 -0.0625,0.265625 -0.20313,0.40625 -0.14062,0.125 -0.40625,0.171875 -0.57812,-0.07813 -0.54687,-0.578125 z m 4.56863,9.40625 q 0.84375,0.03125 1.48438,-0.453125 0.65625,-0.5 0.875,-1.359375 l 0.79687,0 q -0.20312,1.15625 -1.125,1.859375 -0.90625,0.703125 -2.07812,0.6875 -0.9375,-0.03125 -1.57813,-0.515625 -0.625,-0.5 -0.90625,-1.375 -0.28125,-0.875 -0.1875,-1.96875 l 0.0312,-0.296875 q 0.0781,-0.765625 0.35938,-1.46875 0.28125,-0.703125 0.75,-1.25 0.48437,-0.546875 1.14062,-0.859375 0.65625,-0.328125 1.46875,-0.3125 1.1875,0.03125 1.89063,0.8125 0.70312,0.765625 0.65625,1.953125 l -0.79688,0 q 0.0156,-0.90625 -0.46875,-1.453125 -0.48437,-0.546875 -1.3125,-0.578125 -0.89062,-0.03125 -1.57812,0.515625 -0.67188,0.546875 -1.01563,1.546875 -0.34375,0.984375 -0.3125,2.109375 0.0156,1.140625 0.5,1.765625 0.5,0.625 1.40625,0.640625 z m 9.20505,0.578125 q -0.0312,-0.265625 -0.0156,-0.546875 l 0.0625,-0.53125 q -0.53125,0.578125 -1.23437,0.90625 -0.6875,0.328125 -1.48438,0.3125 -0.98437,-0.01563 -1.59375,-0.609375 -0.60937,-0.609375 -0.54687,-1.53125 0.0625,-0.765625 0.53125,-1.328125 0.46875,-0.5625 1.32812,-0.875 0.875,-0.3125 1.9375,-0.3125 l 1.57813,0.01563 0.14062,-0.890625 q 0.0781,-0.796875 -0.35937,-1.265625 -0.42188,-0.484375 -1.25,-0.515625 -0.84375,-0.01563 -1.48438,0.421875 -0.625,0.4375 -0.78125,1.140625 l -0.82812,0 q 0.14062,-1.015625 1.03125,-1.65625 0.90625,-0.640625 2.14062,-0.625 1.20313,0.03125 1.84375,0.734375 0.65625,0.6875 0.53125,1.78125 l -0.64062,3.90625 -0.0625,0.609375 q -0.0156,0.390625 0.0625,0.78125 l -0.0156,0.07813 -0.89062,0 z m -2.53125,-0.609375 q 0.79687,0.03125 1.51562,-0.375 0.71875,-0.40625 1.1875,-1.140625 l 0.29688,-1.71875 -1.375,0 q -1.29688,0 -2.125,0.46875 -0.82813,0.453125 -0.90625,1.3125 -0.0625,0.625 0.32812,1.03125 0.40625,0.40625 1.07813,0.421875 z m 8.40469,-9.109375 -0.34375,1.96875 1.54688,0 -0.10938,0.703125 -1.5625,0 -0.85937,5.171875 -0.0156,0.4375 q 0,0.78125 0.71875,0.8125 0.21875,0 0.70313,-0.0625 l -0.0469,0.703125 q -0.42187,0.125 -0.85937,0.109375 -0.75,-0.01563 -1.09375,-0.515625 -0.34375,-0.515625 -0.25,-1.484375 l 0.85937,-5.171875 -1.39062,0 0.125,-0.703125 1.375,0 0.34375,-1.96875 0.85937,0 z m 2.59046,9.71875 -0.85938,0 1.35938,-7.75 0.84375,0 -1.34375,7.75 z m 0.73437,-9.984375 q 0.0312,-0.46875 0.60938,-0.578125 0.28125,0.04687 0.39062,0.171875 0.125,0.125 0.15625,0.40625 -0.0625,0.265625 -0.20312,0.40625 -0.14063,0.125 -0.40625,0.171875 -0.57813,-0.07813 -0.54688,-0.578125 z m 1.77176,6.046875 q 0.14063,-1.125 0.6875,-2.0625 0.5625,-0.9375 1.39063,-1.421875 0.84375,-0.484375 1.8125,-0.46875 0.95312,0.01563 1.625,0.53125 0.6875,0.515625 1,1.40625 0.3125,0.875 0.20312,1.953125 l 0,0.125 q -0.21875,1.828125 -1.3125,2.9375 -1.07812,1.109375 -2.59375,1.078125 -1.29687,-0.01563 -2.07812,-0.953125 -0.78125,-0.9375 -0.76563,-2.484375 l 0.0156,-0.40625 0.0156,-0.234375 z m 0.82813,0.234375 q -0.0781,0.859375 0.125,1.578125 0.21875,0.71875 0.70312,1.125 0.48438,0.40625 1.20313,0.421875 0.76562,0.01563 1.40625,-0.390625 0.64062,-0.40625 1.04687,-1.140625 0.42188,-0.75 0.54688,-1.65625 l 0.0156,-0.234375 q 0.14063,-1.375 -0.42187,-2.25 -0.54688,-0.890625 -1.60938,-0.90625 -1.14062,-0.03125 -1.98437,0.890625 -0.82813,0.90625 -1.01563,2.4375 l -0.0156,0.125 z m 9.16162,-4.046875 -0.25,1.328125 q 0.51562,-0.71875 1.1875,-1.09375 0.67187,-0.390625 1.45312,-0.375 1.10938,0.03125 1.60938,0.78125 0.51562,0.75 0.375,2.078125 l -0.84375,5.03125 -0.84375,0 0.84375,-5.046875 q 0.0312,-0.40625 0.0156,-0.796875 -0.125,-1.265625 -1.39062,-1.3125 -0.75,0 -1.40625,0.46875 -0.65625,0.453125 -1.14063,1.375 l -0.92187,5.3125 -0.84375,0 1.34375,-7.75 0.8125,0 z" />
</svg>
