<?xml version="1.0" encoding="UTF-8" standalone="no"?>
<svg
   xmlns:dc="http://purl.org/dc/elements/1.1/"
   xmlns:cc="http://creativecommons.org/ns#"
   xmlns:rdf="http://www.w3.org/1999/02/22-rdf-syntax-ns#"
   xmlns:svg="http://www.w3.org/2000/svg"
   xmlns="http://www.w3.org/2000/svg"
   xmlns:sodipodi="http://sodipodi.sourceforge.net/DTD/sodipodi-0.dtd"
   xmlns:inkscape="http://www.inkscape.org/namespaces/inkscape"
   version="1.1"
   viewBox="0 0 408.14059 117.65596"
   stroke-miterlimit="10"
   id="svg2"
   inkscape:version="0.91 r13725"
   sodipodi:docname="Logo.svg"
   width="408.14059"
   height="117.65596"
   style="fill:none;stroke:none;stroke-linecap:square;stroke-miterlimit:10">
  <metadata
     id="metadata19">
    <rdf:RDF>
      <cc:Work
         rdf:about="">
        <dc:format>image/svg+xml</dc:format>
        <dc:type
           rdf:resource="http://purl.org/dc/dcmitype/StillImage" />
        <dc:title></dc:title>
      </cc:Work>
    </rdf:RDF>
  </metadata>
  <defs
     id="defs17" />
  <sodipodi:namedview
     pagecolor="#ffffff"
     bordercolor="#666666"
     borderopacity="1"
     objecttolerance="10"
     gridtolerance="10"
     guidetolerance="10"
     inkscape:pageopacity="0"
     inkscape:pageshadow="2"
     inkscape:window-width="3840"
     inkscape:window-height="2085"
     id="namedview15"
     showgrid="false"
     inkscape:zoom="1.8541911"
     inkscape:cx="269.94941"
     inkscape:cy="159.76053"
     inkscape:window-x="0"
     inkscape:window-y="0"
     inkscape:window-maximized="1"
     inkscape:current-layer="svg2"
     fit-margin-bottom="0"
     fit-margin-top="0"
     fit-margin-left="0"
     fit-margin-right="0"
     inkscape:snap-page="false"
     inkscape:snap-object-midpoints="true"
     inkscape:snap-center="true"
     inkscape:snap-text-baseline="true"
     inkscape:object-paths="true"
     inkscape:snap-intersection-paths="true"
     inkscape:object-nodes="true"
     inkscape:snap-smooth-nodes="true"
     inkscape:snap-midpoints="true">
    <inkscape:grid
       type="xygrid"
       id="grid4150"
       originx="-233.65822"
       originy="-353.07255" />
  </sodipodi:namedview>
  <clipPath
     id="p.0">
    <path
       d="M 0,0 960,0 960,720 0,720 0,0 Z"
       id="path5"
       inkscape:connector-curvature="0"
       style="clip-rule:nonzero" />
  </clipPath>
  <path
     style="fill:#0000c8;fill-opacity:1;fill-rule:nonzero"
     d="m 9.9999999e-6,23.218601 13.6093000000001,0 0,57.609372 34.3907,0 0,-57.609372 13.6093,0 0,59.609372 q 0,2.375 -0.9062,4.5 -0.9063,2.125 -2.5,3.71875 -1.5781,1.57813 -3.7031,2.48438 -2.125,0.90625 -4.5,0.90625 l -38.3907,0 q -2.375,0 -4.5,-0.90625 -2.125,-0.90625 -3.7187,-2.48438 -1.5781,-1.59375 -2.4844,-3.71875 -0.9062000000001,-2.125 -0.9062000000001,-4.5 l 0,-59.609372 z"
     id="path4214"
     inkscape:connector-curvature="0" />
  <path
     style="fill:#0000c8;fill-opacity:1;fill-rule:nonzero"
     d="m 95.64061,23.218121 -27.46875,71.218752 13.90625,0 5.95312,-15.46875 27.57812,0 5.95312,15.46875 13.90625,0 -27.46875,-71.218752 -12.35936,0 z m 6.20311,20.04688 8.51563,22.09374 -17.12499,0 8.60936,-22.09374 z"
     id="path4212"
     inkscape:connector-curvature="0" />
  <path
     style="fill:#0000c8;fill-opacity:1;fill-rule:nonzero"
     d="m 158.8593,94.437353 -27.4687,-71.218752 14.6094,0 19.5312,51.656252 19.5781,-51.656252 14.5625,0 -27.4687,71.218752 -13.3438,0 z"
     id="path4208"
     inkscape:connector-curvature="0" />
  <path
     style="fill:#0000c8;fill-opacity:1;fill-rule:nonzero"
     d="m 206.2343,34.827971 q 0,-2.375 0.9063,-4.5 0.9062,-2.14062 2.4844,-3.6875 1.5937,-1.5625 3.7031,-2.48437 2.125,-0.9375 4.5156,-0.9375 l 36.4687,0 q 2.3907,0 4.5,0.9375 2.125,0.92187 3.7032,2.48437 1.5937,1.54688 2.5,3.6875 0.9062,2.125 0.9062,4.5 l 0,10.67188 -13.6094,0 0,-8.67188 -32.4687,0 0,44.000002 32.4687,0 0,-8.625 13.6094,0 0,10.625 q 0,2.375 -0.9062,4.5 -0.9063,2.125 -2.5,3.71875 -1.5782,1.57813 -3.7032,2.48438 -2.125,0.90625 -4.5,0.90625 l -36.4687,0 q -2.375,0 -4.5,-0.90625 -2.125,-0.90625 -3.7187,-2.48438 -1.5782,-1.59375 -2.4844,-3.71875 -0.9063,-2.125 -0.9063,-4.5 l 0,-48.000002 z"
     id="path4206"
     inkscape:connector-curvature="0" />
  <path
     style="fill:#0000c8;fill-opacity:1;fill-rule:nonzero"
     d="m 298.0781,23.218121 -27.46875,71.218752 13.90625,0 5.95312,-15.46875 27.57813,0 5.95312,15.46875 13.90625,0 -27.46875,-71.218752 -12.35937,0 z m 6.20312,20.04688 8.51563,22.09374 -17.125,0 8.60937,-22.09374 z"
     id="path4204"
     inkscape:connector-curvature="0" />
  <path
     style="fill:#0000c8;fill-opacity:1;fill-rule:nonzero"
     d="m 358.1249,94.437353 -13.6093,0 0,-71.218752 12.5937,0 37.4219,48.281252 0,-48.281252 13.6094,0 0,71.218752 -12.5938,0 -37.4219,-48.281252 0,48.281252 z"
     id="path13"
     inkscape:connector-curvature="0" />
  <rect
     style="fill:#0000c8;fill-opacity:1;stroke:#0000c8;stroke-width:0;stroke-linecap:round;stroke-linejoin:round;stroke-miterlimit:10;stroke-dasharray:none;stroke-dashoffset:0;stroke-opacity:1"
     id="rect4237"
     width="13.609298"
     height="408.14059"
     x="4.9999999e-06"
     y="-408.14059"
     transform="matrix(0,1,-1,0,0,0)" />
  <rect
     style="fill:#0000c8;fill-opacity:1;stroke:#0000c8;stroke-width:0;stroke-linecap:round;stroke-linejoin:round;stroke-miterlimit:10;stroke-dasharray:none;stroke-dashoffset:0;stroke-opacity:1"
     id="rect4237-8"
     width="13.609299"
     height="408.14059"
     x="104.04665"
     y="-408.14059"
     transform="matrix(0,1,-1,0,0,0)" />
</svg>
