<?xml version="1.0" encoding="UTF-8" standalone="no"?>
<!DOCTYPE svg PUBLIC "-//W3C//DTD SVG 1.1//EN" "http://www.w3.org/Graphics/SVG/1.1/DTD/svg11.dtd">
<svg xmlns:dc="http://purl.org/dc/elements/1.1/" xmlns:xl="http://www.w3.org/1999/xlink" xmlns="http://www.w3.org/2000/svg" version="1.1" viewBox="909 520 3061 633" width="3061" height="633">
  <defs/>
  <g id="SVG_with_text" stroke-opacity="1" fill="none" stroke-dasharray="none" fill-opacity="1" stroke="none">
    
    <g id="SVG_with_text_flashing">
      
      <g id="Group_19">
        
        <g id="Graphic_10">
          <path d="M 1465.3119 760.24 L 1523.6799 760.24 L 1523.6799 797.104 L 1524.7039 797.104 C 1533.5786 782.0853 1545.5252 771.1627 1560.5439 764.336 C 1575.5626 757.5093 1591.7758 754.096 1609.1839 754.096 C 1627.9573 754.096 1644.8532 757.424 1659.8719 764.08 C 1674.8906 770.736 1687.6905 779.8666 1698.2719 791.472 C 1708.8533 803.0774 1716.8745 816.7306 1722.336 832.432 C 1727.7973 848.1334 1730.528 865.0292 1730.528 883.12 C 1730.528 901.2108 1727.6266 918.1066 1721.824 933.808 C 1716.0212 949.5094 1707.9146 963.1626 1697.5039 974.768 C 1687.0932 986.3734 1674.5493 995.504 1659.8719 1002.16 C 1645.1945 1008.816 1629.152 1012.144 1611.7439 1012.144 C 1600.1385 1012.144 1589.8986 1010.9493 1581.0239 1008.56 C 1572.1492 1006.1707 1564.2986 1003.0987 1557.4719 999.344 C 1550.6452 995.5893 1544.8426 991.5787 1540.0639 987.312 C 1535.2852 983.0453 1531.36 978.864 1528.2879 974.768 L 1526.7519 974.768 L 1526.7519 1122.736 L 1465.3119 1122.736 Z M 1669.0879 883.12 C 1669.0879 873.5626 1667.4666 864.3467 1664.2239 855.472 C 1660.9812 846.5973 1656.2026 838.7467 1649.8879 831.92 C 1643.5732 825.0933 1635.9786 819.632 1627.1039 815.536 C 1618.2292 811.44 1608.16 809.392 1596.8959 809.392 C 1585.6318 809.392 1575.5626 811.44 1566.6879 815.536 C 1557.8132 819.632 1550.2186 825.0933 1543.9039 831.92 C 1537.5892 838.7467 1532.8106 846.5973 1529.5679 855.472 C 1526.3252 864.3467 1524.7039 873.5626 1524.7039 883.12 C 1524.7039 892.6774 1526.3252 901.8933 1529.5679 910.768 C 1532.8106 919.6427 1537.5892 927.4933 1543.9039 934.32 C 1550.2186 941.1467 1557.8132 946.608 1566.6879 950.704 C 1575.5626 954.8 1585.6318 956.848 1596.8959 956.848 C 1608.16 956.848 1618.2292 954.8 1627.1039 950.704 C 1635.9786 946.608 1643.5732 941.1467 1649.8879 934.32 C 1656.2026 927.4933 1660.9812 919.6427 1664.2239 910.768 C 1667.4666 901.8933 1669.0879 892.6774 1669.0879 883.12 Z" fill="#1709b3"/>
        </g>
        <g id="Graphic_11">
          <path d="M 1837.024 904.624 C 1839.072 923.0561 1846.2398 937.392 1858.528 947.632 C 1870.816 957.872 1885.6638 962.992 1903.072 962.992 C 1918.432 962.992 1931.3172 959.8347 1941.728 953.52 C 1952.1386 947.2053 1961.2692 939.2694 1969.12 929.712 L 2013.152 962.992 C 1998.8158 980.7414 1982.7733 993.3706 1965.024 1000.88 C 1947.2745 1008.3894 1928.672 1012.144 1909.216 1012.144 C 1890.7838 1012.144 1873.376 1009.072 1856.992 1002.928 C 1840.6078 996.784 1826.4426 988.08 1814.496 976.816 C 1802.5492 965.552 1793.0773 951.9841 1786.08 936.112 C 1779.0825 920.2399 1775.584 902.5761 1775.584 883.12 C 1775.584 863.6639 1779.0825 846.0001 1786.08 830.128 C 1793.0773 814.2559 1802.5492 800.6881 1814.496 789.424 C 1826.4426 778.1599 1840.6078 769.456 1856.992 763.312 C 1873.376 757.168 1890.7838 754.096 1909.216 754.096 C 1926.2827 754.096 1941.8985 757.0826 1956.064 763.056 C 1970.2293 769.0294 1982.3465 777.6479 1992.416 788.912 C 2002.4853 800.1761 2010.3359 814.08525 2015.968 830.64 C 2021.6 847.1947 2024.416 866.2239 2024.416 887.728 L 2024.416 904.624 Z M 1962.976 858.544 C 1962.6346 840.4532 1957.0026 826.2027 1946.08 815.792 C 1935.1572 805.3813 1919.968 800.176 1900.512 800.176 C 1882.0798 800.176 1867.488 805.4666 1856.736 816.048 C 1845.9838 826.6294 1839.4132 840.7946 1837.024 858.544 Z" fill="#1709b3"/>
        </g>
        <g id="Graphic_12">
          <path d="M 2081.76 760.24 L 2140.128 760.24 L 2140.128 799.664 L 2141.152 799.664 C 2146.9546 787.3759 2155.8292 776.7094 2167.776 767.664 C 2179.7226 758.6186 2195.9358 754.096 2216.416 754.096 C 2232.8 754.096 2246.7092 756.8266 2258.144 762.288 C 2269.5786 767.7494 2278.8799 774.9173 2286.048 783.792 C 2293.216 792.6667 2298.336 802.9066 2301.408 814.512 C 2304.48 826.1174 2306.016 838.2346 2306.016 850.864 L 2306.016 1006 L 2244.576 1006 L 2244.576 881.584 C 2244.576 874.7573 2244.2346 867.1627 2243.552 858.8 C 2242.8692 850.4373 2241.0772 842.5867 2238.176 835.248 C 2235.2746 827.9093 2230.752 821.7654 2224.608 816.816 C 2218.4639 811.8666 2210.1013 809.392 2199.52 809.392 C 2189.2798 809.392 2180.6613 811.09865 2173.664 814.512 C 2166.6665 817.92535 2160.864 822.5333 2156.256 828.336 C 2151.648 834.1387 2148.32 840.7946 2146.272 848.304 C 2144.224 855.8134 2143.2 863.664 2143.2 871.856 L 2143.2 1006 L 2081.76 1006 Z" fill="#1709b3"/>
        </g>
        <g id="Graphic_13">
          <path d="M 2630.112 728.496 C 2616.7998 714.1599 2603.9146 704.6027 2591.456 699.824 C 2578.9972 695.0453 2566.4533 692.656 2553.824 692.656 C 2535.0505 692.656 2518.0693 695.984 2502.88 702.64 C 2487.6905 709.296 2474.6346 718.5119 2463.712 730.288 C 2452.7892 742.0641 2444.3413 755.8026 2438.368 771.504 C 2432.3945 787.2054 2429.408 804.1012 2429.408 822.192 C 2429.408 841.6481 2432.3945 859.5679 2438.368 875.952 C 2444.3413 892.3361 2452.7892 906.5013 2463.712 918.448 C 2474.6346 930.3947 2487.6905 939.7813 2502.88 946.608 C 2518.0693 953.4347 2535.0505 956.848 2553.824 956.848 C 2568.5013 956.848 2582.7518 953.3494 2596.576 946.352 C 2610.4 939.3546 2623.2852 928.1761 2635.232 912.816 L 2688.48 950.704 C 2672.0958 973.2321 2652.128 989.616 2628.576 999.856 C 2605.0238 1010.096 2579.936 1015.216 2553.312 1015.216 C 2525.3224 1015.216 2499.6373 1010.6934 2476.256 1001.648 C 2452.8744 992.6026 2432.736 979.8027 2415.84 963.248 C 2398.9438 946.6933 2385.7173 926.8108 2376.16 903.6 C 2366.6025 880.3892 2361.824 854.6188 2361.824 826.288 C 2361.824 797.2745 2366.6025 770.9068 2376.16 747.184 C 2385.7173 723.4612 2398.9438 703.2374 2415.84 686.512 C 2432.736 669.7866 2452.8744 656.9014 2476.256 647.856 C 2499.6373 638.8106 2525.3224 634.288 2553.312 634.288 C 2577.888 634.288 2600.6718 638.63996 2621.664 647.344 C 2642.656 656.04804 2662.197 670.8106 2680.288 691.632 Z" fill="#1709b3"/>
        </g>
        <g id="Graphic_14">
          <path d="M 2693.088 760.24 L 2760.672 760.24 L 2829.28 930.736 L 2830.304 930.736 L 2891.744 760.24 L 2955.744 760.24 L 2839.52 1058.736 C 2835.0825 1070.3414 2830.2186 1080.496 2824.928 1089.2 C 2819.6372 1097.904 2813.408 1105.2426 2806.24 1111.216 C 2799.072 1117.1894 2790.624 1121.6267 2780.896 1124.528 C 2771.168 1127.4293 2759.4773 1128.88 2745.824 1128.88 C 2729.781 1128.88 2714.08 1126.832 2698.72 1122.736 L 2706.4 1067.44 C 2711.1786 1069.1467 2716.2132 1070.5973 2721.504 1071.792 C 2726.7946 1072.9867 2732.1705 1073.584 2737.632 1073.584 C 2745.1413 1073.584 2751.456 1072.9013 2756.576 1071.536 C 2761.696 1070.1707 2766.048 1068.0373 2769.632 1065.136 C 2773.216 1062.2347 2776.2026 1058.48 2778.592 1053.872 C 2780.9812 1049.264 2783.5412 1043.7174 2786.272 1037.232 L 2798.048 1008.048 Z" fill="#1709b3"/>
        </g>
        <g id="Graphic_15">
          <path d="M 2992.096 760.24 L 3050.464 760.24 L 3050.464 797.104 L 3051.488 797.104 C 3060.3626 782.0853 3072.309 771.1627 3087.328 764.336 C 3102.3466 757.5093 3118.5598 754.096 3135.968 754.096 C 3154.7413 754.096 3171.637 757.424 3186.656 764.08 C 3201.6746 770.736 3214.4745 779.8666 3225.056 791.472 C 3235.6373 803.0774 3243.6585 816.7306 3249.12 832.432 C 3254.5813 848.1334 3257.312 865.0292 3257.312 883.12 C 3257.312 901.2108 3254.4106 918.1066 3248.608 933.808 C 3242.8052 949.5094 3234.6986 963.1626 3224.288 974.768 C 3213.877 986.3734 3201.3333 995.504 3186.656 1002.16 C 3171.9785 1008.816 3155.936 1012.144 3138.528 1012.144 C 3126.9225 1012.144 3116.6826 1010.9493 3107.808 1008.56 C 3098.9332 1006.1707 3091.0826 1003.0987 3084.256 999.344 C 3077.4292 995.5893 3071.6266 991.5787 3066.848 987.312 C 3062.0692 983.0453 3058.144 978.864 3055.072 974.768 L 3053.536 974.768 L 3053.536 1122.736 L 2992.096 1122.736 Z M 3195.872 883.12 C 3195.872 873.5626 3194.2506 864.3467 3191.008 855.472 C 3187.7652 846.5973 3182.9866 838.7467 3176.672 831.92 C 3170.3572 825.0933 3162.7626 819.632 3153.888 815.536 C 3145.013 811.44 3134.944 809.392 3123.68 809.392 C 3112.416 809.392 3102.3466 811.44 3093.472 815.536 C 3084.5972 819.632 3077.0026 825.0933 3070.688 831.92 C 3064.3732 838.7467 3059.5946 846.5973 3056.352 855.472 C 3053.1092 864.3467 3051.488 873.5626 3051.488 883.12 C 3051.488 892.6774 3053.1092 901.8933 3056.352 910.768 C 3059.5946 919.6427 3064.3732 927.4933 3070.688 934.32 C 3077.0026 941.1467 3084.5972 946.608 3093.472 950.704 C 3102.3466 954.8 3112.416 956.848 3123.68 956.848 C 3134.944 956.848 3145.013 954.8 3153.888 950.704 C 3162.7626 946.608 3170.3572 941.1467 3176.672 934.32 C 3182.9866 927.4933 3187.7652 919.6427 3191.008 910.768 C 3194.2506 901.8933 3195.872 892.6774 3195.872 883.12 Z" fill="#1709b3"/>
        </g>
        <g id="Graphic_16">
          <path d="M 3376.096 794.544 L 3377.12 794.544 C 3381.8986 784.30395 3390.3465 775.0027 3402.464 766.64 C 3414.5813 758.2773 3430.197 754.096 3449.312 754.096 C 3465.696 754.096 3479.605 756.8266 3491.04 762.288 C 3502.4746 767.7494 3511.776 774.9173 3518.944 783.792 C 3526.112 792.6667 3531.232 802.9066 3534.304 814.512 C 3537.376 826.1174 3538.912 838.2346 3538.912 850.864 L 3538.912 1006 L 3477.472 1006 L 3477.472 881.584 C 3477.472 874.7573 3477.1306 867.1627 3476.448 858.8 C 3475.7652 850.4373 3473.9732 842.5867 3471.072 835.248 C 3468.1706 827.9093 3463.648 821.7654 3457.504 816.816 C 3451.36 811.8666 3442.9973 809.392 3432.416 809.392 C 3422.176 809.392 3413.5573 811.09865 3406.56 814.512 C 3399.5625 817.92535 3393.76 822.5333 3389.152 828.336 C 3384.544 834.1387 3381.216 840.7946 3379.168 848.304 C 3377.12 855.8134 3376.096 863.664 3376.096 871.856 L 3376.096 1006 L 3314.656 1006 L 3314.656 618.928 L 3376.096 618.928 Z" fill="#1709b3"/>
        </g>
        <g id="Graphic_17">
          <path d="M 3762.144 972.208 L 3760.608 972.208 C 3751.733 986.2027 3740.4693 996.3573 3726.816 1002.672 C 3713.1625 1008.9867 3698.144 1012.144 3681.76 1012.144 C 3670.496 1012.144 3659.488 1010.608 3648.736 1007.536 C 3637.984 1004.464 3628.4266 999.856 3620.064 993.712 C 3611.701 987.568 3604.96 979.888 3599.84 970.672 C 3594.72 961.456 3592.16 950.7041 3592.16 938.416 C 3592.16 925.1039 3594.549 913.7547 3599.328 904.368 C 3604.1066 894.9813 3610.5065 887.1307 3618.528 880.816 C 3626.5493 874.5013 3635.8505 869.4667 3646.432 865.712 C 3657.0133 861.9573 3668.021 859.1413 3679.456 857.264 C 3690.8906 855.3867 3702.4105 854.192 3714.016 853.68 C 3725.6213 853.168 3736.544 852.912 3746.784 852.912 L 3762.144 852.912 L 3762.144 846.256 C 3762.144 830.8959 3756.8533 819.376 3746.272 811.696 C 3735.6905 804.016 3722.208 800.176 3705.824 800.176 C 3692.853 800.176 3680.736 802.48 3669.472 807.088 C 3658.208 811.696 3648.48 817.9253 3640.288 825.776 L 3608.032 793.52 C 3621.6853 779.5253 3637.6425 769.456 3655.904 763.312 C 3674.1653 757.168 3693.024 754.096 3712.48 754.096 C 3729.888 754.096 3744.565 756.05865 3756.512 759.984 C 3768.4586 763.90935 3778.357 768.944 3786.208 775.088 C 3794.0586 781.232 3800.117 788.3146 3804.384 796.336 C 3808.6506 804.3574 3811.7226 812.464 3813.6 820.656 C 3815.4772 828.848 3816.5866 836.784 3816.928 844.464 C 3817.2692 852.144 3817.44 858.8853 3817.44 864.688 L 3817.44 1006 L 3762.144 1006 Z M 3758.56 895.92 L 3745.76 895.92 C 3737.2265 895.92 3727.6693 896.2613 3717.088 896.944 C 3706.5065 897.6267 3696.5226 899.248 3687.136 901.808 C 3677.749 904.368 3669.8133 908.1226 3663.328 913.072 C 3656.8425 918.0214 3653.6 924.9333 3653.6 933.808 C 3653.6 939.6107 3654.88 944.4746 3657.44 948.4 C 3660 952.3254 3663.328 955.6533 3667.424 958.384 C 3671.52 961.1147 3676.128 963.0773 3681.248 964.272 C 3686.368 965.4667 3691.488 966.064 3696.608 966.064 C 3717.7707 966.064 3733.3865 961.0294 3743.456 950.96 C 3753.5253 940.8906 3758.56 927.1521 3758.56 909.744 Z" fill="#1709b3"/>
        </g>
        <g id="Graphic_18">
          <rect x="3884.512" y="618.928" width="61.44" height="387.072" fill="#1709b3"/>
        </g>
      </g>
    </g>
    <g id="SVG_with_text_Layer_1">
      
      <g id="Graphic_5">
        
        <path d="M 1115.3245 947.1254 C 1108.3375 941.7379 1097.2766 931.0344 1091.0479 923.633 C 1080.5028 911.1026 1070.5663 894.159 1064.15 877.7667 C 1060.5757 868.6354 1058.6129 864.8512 1055.1009 860.3207 C 1047.4859 850.4975 1036.6223 843.9757 1024.2129 841.7777 C 1022.1111 841.4056 1007.596 841.1861 985.0452 841.1861 L 949.2169 841.1861 L 948.8522 834.8549 C 948.3848 826.7387 948.3823 814.8593 948.8465 807.2681 L 949.2107 801.3139 L 985.8489 801.0963 L 1022.4871 800.8787 L 1027.9357 799.4079 C 1037.3157 796.876 1045.3495 792.1555 1051.7837 785.3953 C 1057.6745 779.20615 1059.6069 775.8457 1064.6849 762.9607 C 1079.3827 725.66584 1106.7511 695.5964 1142.0598 677.9496 C 1183.9548 657.011 1231.9192 655.241 1275.0351 673.0425 L 1280.5245 675.3089 L 1279.4688 677.0673 C 1278.596 678.5213 1260.7209 709.56985 1260.5816 709.87395 C 1260.5569 709.9296 1256.8665 708.7345 1252.3794 707.2249 C 1238.7635 702.6443 1228.8351 701.05535 1213.831 701.05535 C 1199.1236 701.05535 1189.1672 702.62084 1175.8436 707.02826 C 1128.1806 722.79506 1095.6385 766.3306 1093.8413 816.7326 C 1092.8538 844.4259 1101.1442 870.9627 1117.7729 893.3365 C 1121.468 898.308 1133.2089 910.5035 1138.3114 914.6701 L 1141.0178 916.88 L 1131.127 934.0068 C 1125.6871 943.4266 1121.1663 951.2035 1121.0808 951.289 C 1120.9955 951.3743 1118.405 949.501 1115.3244 947.1257 Z" fill="#1700b3"/>
        <path d="M 1115.3245 947.1254 C 1108.3375 941.7379 1097.2766 931.0344 1091.0479 923.633 C 1080.5028 911.1026 1070.5663 894.159 1064.15 877.7667 C 1060.5757 868.6354 1058.6129 864.8512 1055.1009 860.3207 C 1047.4859 850.4975 1036.6223 843.9757 1024.2129 841.7777 C 1022.1111 841.4056 1007.596 841.1861 985.0452 841.1861 L 949.2169 841.1861 L 948.8522 834.8549 C 948.3848 826.7387 948.3823 814.8593 948.8465 807.2681 L 949.2107 801.3139 L 985.8489 801.0963 L 1022.4871 800.8787 L 1027.9357 799.4079 C 1037.3157 796.876 1045.3495 792.1555 1051.7837 785.3953 C 1057.6745 779.20615 1059.6069 775.8457 1064.6849 762.9607 C 1079.3827 725.66584 1106.7511 695.5964 1142.0598 677.9496 C 1183.9548 657.011 1231.9192 655.241 1275.0351 673.0425 L 1280.5245 675.3089 L 1279.4688 677.0673 C 1278.596 678.5213 1260.7209 709.56985 1260.5816 709.87395 C 1260.5569 709.9296 1256.8665 708.7345 1252.3794 707.2249 C 1238.7635 702.6443 1228.8351 701.05535 1213.831 701.05535 C 1199.1236 701.05535 1189.1672 702.62084 1175.8436 707.02826 C 1128.1806 722.79506 1095.6385 766.3306 1093.8413 816.7326 C 1092.8538 844.4259 1101.1442 870.9627 1117.7729 893.3365 C 1121.468 898.308 1133.2089 910.5035 1138.3114 914.6701 L 1141.0178 916.88 L 1131.127 934.0068 C 1125.6871 943.4266 1121.1663 951.2035 1121.0808 951.289 C 1120.9955 951.3743 1118.405 949.501 1115.3244 947.1257 Z" stroke="#1700b3" stroke-linecap="butt" stroke-linejoin="round" stroke-width="5"/>
      </g>
      <g id="Graphic_4">
        
        <path d="M 1194.9781 1050.4919 C 1138.096 1045.6498 1084.7179 1019.7941 1045.78 978.2223 C 1019.5808 950.2509 1000.4392 915.4647 990.9674 878.6109 L 989.0871 871.2948 L 999.4328 871.1415 C 1015.0029 870.9115 1021.4446 872.7731 1028.7641 879.6195 C 1033.0802 883.6567 1034.9995 886.61 1037.9846 893.8068 C 1055.0745 935.0095 1086.1681 968.915 1126.038 989.823 C 1161.0513 1008.1842 1201.9131 1014.9717 1242.2513 1009.1271 C 1270.8339 1004.9857 1300.4146 993.0549 1323.9463 976.1769 C 1333.8037 969.1068 1340.7284 963.1521 1349.4886 954.2127 C 1363.64 939.772 1374.3762 924.9338 1383.0894 907.7739 C 1397.3542 879.6807 1403.9028 852.3554 1403.9028 820.926 C 1403.9028 798.8933 1401.1669 781.6494 1394.4016 761.0432 C 1383.1712 726.8366 1361.6813 695.77385 1333.4283 672.90875 C 1289.8465 637.6381 1231.5152 623.337 1176.4065 634.4116 C 1130.4872 643.6395 1089.4928 669.5299 1061.3819 707.0562 C 1052.3485 719.1152 1045.11 731.733 1038.5693 746.822 C 1036.7617 750.9919 1034.5113 755.52495 1033.5683 756.8955 C 1030.9576 760.69 1025.45 765.4939 1021.5152 767.4085 C 1015.4618 770.35405 1012.4472 770.839 1000.1892 770.839 L 989.1019 770.839 L 989.9215 767.3216 C 991.1101 762.2208 993.7958 753.1528 996.2632 745.9097 C 1012.388 698.5729 1045.0633 656.5374 1087.2586 628.8478 C 1118.2805 608.4904 1150.5082 596.8142 1188.7932 592.0616 C 1200.2234 590.6427 1227.3042 590.6475 1238.869 592.0678 C 1277.5718 596.83 1310.5491 608.8982 1341.8627 629.7589 C 1355.2736 638.693 1366.801 648.3505 1379.0078 660.8783 C 1436.423 719.8037 1457.9287 805.6161 1435.064 884.555 C 1415.1733 953.2263 1364.7179 1008.8069 1298.5289 1034.9591 C 1276.8742 1043.5151 1255.1828 1048.5779 1231.8399 1050.524 C 1224.0369 1051.1747 1202.796 1051.1544 1194.9781 1050.487 Z" fill="#1700b3"/>
        <path d="M 1194.9781 1050.4919 C 1138.096 1045.6498 1084.7179 1019.7941 1045.78 978.2223 C 1019.5808 950.2509 1000.4392 915.4647 990.9674 878.6109 L 989.0871 871.2948 L 999.4328 871.1415 C 1015.0029 870.9115 1021.4446 872.7731 1028.7641 879.6195 C 1033.0802 883.6567 1034.9995 886.61 1037.9846 893.8068 C 1055.0745 935.0095 1086.1681 968.915 1126.038 989.823 C 1161.0513 1008.1842 1201.9131 1014.9717 1242.2513 1009.1271 C 1270.8339 1004.9857 1300.4146 993.0549 1323.9463 976.1769 C 1333.8037 969.1068 1340.7284 963.1521 1349.4886 954.2127 C 1363.64 939.772 1374.3762 924.9338 1383.0894 907.7739 C 1397.3542 879.6807 1403.9028 852.3554 1403.9028 820.926 C 1403.9028 798.8933 1401.1669 781.6494 1394.4016 761.0432 C 1383.1712 726.8366 1361.6813 695.77385 1333.4283 672.90875 C 1289.8465 637.6381 1231.5152 623.337 1176.4065 634.4116 C 1130.4872 643.6395 1089.4928 669.5299 1061.3819 707.0562 C 1052.3485 719.1152 1045.11 731.733 1038.5693 746.822 C 1036.7617 750.9919 1034.5113 755.52495 1033.5683 756.8955 C 1030.9576 760.69 1025.45 765.4939 1021.5152 767.4085 C 1015.4618 770.35405 1012.4472 770.839 1000.1892 770.839 L 989.1019 770.839 L 989.9215 767.3216 C 991.1101 762.2208 993.7958 753.1528 996.2632 745.9097 C 1012.388 698.5729 1045.0633 656.5374 1087.2586 628.8478 C 1118.2805 608.4904 1150.5082 596.8142 1188.7932 592.0616 C 1200.2234 590.6427 1227.3042 590.6475 1238.869 592.0678 C 1277.5718 596.83 1310.5491 608.8982 1341.8627 629.7589 C 1355.2736 638.693 1366.801 648.3505 1379.0078 660.8783 C 1436.423 719.8037 1457.9287 805.6161 1435.064 884.555 C 1415.1733 953.2263 1364.7179 1008.8069 1298.5289 1034.9591 C 1276.8742 1043.5151 1255.1828 1048.5779 1231.8399 1050.524 C 1224.0369 1051.1747 1202.796 1051.1544 1194.9781 1050.487 Z" stroke="#1700b3" stroke-linecap="butt" stroke-linejoin="round" stroke-width="5"/>
      </g>
      <g id="Graphic_3">
        
        <path d="M 1174.9995 976.2737 C 1166.0584 973.9809 1156.4354 970.7112 1150.7272 968.0265 L 1147.2775 966.404 L 1226.2983 829.6493 C 1269.7598 754.4344 1305.6358 692.3224 1306.0228 691.623 C 1306.716 690.37025 1306.8187 690.4238 1312.8984 695.20385 C 1316.2929 697.87286 1323.0798 704.09256 1327.9804 709.02545 C 1336.4781 717.5793 1336.8539 718.05164 1336.1009 719.23255 C 1335.6669 719.9136 1301.8007 778.5282 1260.8434 849.4873 C 1191.4173 969.7684 1186.276 978.5015 1184.9083 978.471 C 1184.1014 978.4525 1179.6425 977.4643 1174.9995 976.2737 Z" fill="#fc6d09"/>
        <path d="M 1174.9995 976.2737 C 1166.0584 973.9809 1156.4354 970.7112 1150.7272 968.0265 L 1147.2775 966.404 L 1226.2983 829.6493 C 1269.7598 754.4344 1305.6358 692.3224 1306.0228 691.623 C 1306.716 690.37025 1306.8187 690.4238 1312.8984 695.20385 C 1316.2929 697.87286 1323.0798 704.09256 1327.9804 709.02545 C 1336.4781 717.5793 1336.8539 718.05164 1336.1009 719.23255 C 1335.6669 719.9136 1301.8007 778.5282 1260.8434 849.4873 C 1191.4173 969.7684 1186.276 978.5015 1184.9083 978.471 C 1184.1014 978.4525 1179.6425 977.4643 1174.9995 976.2737 Z" stroke="#fc6d09" stroke-linecap="butt" stroke-linejoin="round" stroke-width="5"/>
      </g>
    </g>
  </g>
</svg>
