<?xml version="1.0" encoding="UTF-8" standalone="no"?>
<svg
   xmlns:dc="http://purl.org/dc/elements/1.1/"
   xmlns:cc="http://creativecommons.org/ns#"
   xmlns:rdf="http://www.w3.org/1999/02/22-rdf-syntax-ns#"
   xmlns:svg="http://www.w3.org/2000/svg"
   xmlns="http://www.w3.org/2000/svg"
   xmlns:sodipodi="http://sodipodi.sourceforge.net/DTD/sodipodi-0.dtd"
   xmlns:inkscape="http://www.inkscape.org/namespaces/inkscape"
   version="1.1"
   viewBox="0 0 124.99999 125"
   stroke-miterlimit="10"
   id="svg2"
   inkscape:version="0.91 r13725"
   sodipodi:docname="logo-square.svg"
   width="125"
   height="125"
   style="fill:none;stroke:none;stroke-linecap:square;stroke-miterlimit:10">
  <metadata
     id="metadata23">
    <rdf:RDF>
      <cc:Work
         rdf:about="">
        <dc:format>image/svg+xml</dc:format>
        <dc:type
           rdf:resource="http://purl.org/dc/dcmitype/StillImage" />
        <dc:title />
      </cc:Work>
    </rdf:RDF>
  </metadata>
  <defs
     id="defs21" />
  <sodipodi:namedview
     pagecolor="#ffffff"
     bordercolor="#666666"
     borderopacity="1"
     objecttolerance="10"
     gridtolerance="10"
     guidetolerance="10"
     inkscape:pageopacity="0"
     inkscape:pageshadow="2"
     inkscape:window-width="3840"
     inkscape:window-height="2085"
     id="namedview19"
     showgrid="false"
     fit-margin-top="0"
     fit-margin-bottom="0"
     fit-margin-left="0"
     fit-margin-right="0"
     inkscape:zoom="4.0000002"
     inkscape:cx="-77.951536"
     inkscape:cy="109.71898"
     inkscape:window-x="0"
     inkscape:window-y="0"
     inkscape:window-maximized="1"
     inkscape:current-layer="svg2"
     inkscape:snap-bbox="true"
     inkscape:bbox-paths="true"
     inkscape:bbox-nodes="true"
     inkscape:snap-bbox-edge-midpoints="true"
     inkscape:snap-bbox-midpoints="true"
     inkscape:object-paths="true"
     inkscape:snap-intersection-paths="true"
     inkscape:object-nodes="true"
     inkscape:snap-smooth-nodes="true"
     inkscape:snap-midpoints="true"
     inkscape:snap-center="true"
     inkscape:snap-text-baseline="false"
     inkscape:snap-object-midpoints="true" />
  <clipPath
     id="p.0">
    <path
       d="m 0,0 294.37534,0 0,100 L 0,100 0,0 Z"
       id="path5"
       inkscape:connector-curvature="0"
       style="clip-rule:nonzero" />
  </clipPath>
  <path
     style="fill:#00bbff;fill-rule:nonzero;stroke:#000000;stroke-width:1;stroke-linejoin:miter;stroke-miterlimit:10;stroke-dasharray:none;stroke-opacity:1;fill-opacity:1"
     d="m 34.113576,22.871601 8.640625,0 0,24.46875 c 0,3.36458 -0.760417,5.80729 -2.28125,7.32812 -1.520833,1.52084 -3.963542,1.79687 -7.328125,1.79687 l -11.03125,0 c -3.364583,0 -5.807292,-0.27603 -7.328125,-1.79687 -1.520833,-1.52083 -2.28125,-3.96354 -2.28125,-7.32812 l 0,-24.46875 8.640625,0 0,24.46875 c 0,1.92708 0.963542,2.89062 2.890625,2.89062 l 7.1875,0 c 1.927083,0 2.890625,-0.96354 2.890625,-2.89062 z"
     id="path4186"
     inkscape:connector-curvature="0"
     sodipodi:nodetypes="ccssssssccssssc" />
  <path
     style="fill:#00bbff;fill-rule:nonzero;stroke:#000000;stroke-width:1;stroke-linejoin:miter;stroke-miterlimit:10;stroke-dasharray:none;stroke-opacity:1;fill-opacity:1"
     d="m 57.863576,22.871591 -12.71875,33.59375 9.359375,0 2.171875,-6 11.999998,0 2.15625,6 9.35938,0 -12.71875,-33.59375 -9.609378,0 z m 4.812498,10.07813 3.82813,11.28125 -7.671878,0 3.843748,-11.28125 z"
     id="path4184"
     inkscape:connector-curvature="0" />
  <path
     style="fill:#00bbff;fill-rule:nonzero;stroke:#000000;stroke-width:1;stroke-linejoin:miter;stroke-miterlimit:10;stroke-dasharray:none;stroke-opacity:1;fill-opacity:1"
     d="m 94.756224,46.387221 8.156246,-23.51563 9.35938,0 -12.718746,33.59375 -9.60939,0 -12.71875,-33.59375 9.35938,0 8.17188,23.51563 z"
     id="path4180"
     inkscape:connector-curvature="0" />
  <path
     style="fill:#00bbff;fill-rule:nonzero;stroke:#000000;stroke-width:1;stroke-linejoin:miter;stroke-miterlimit:10;stroke-dasharray:none;stroke-opacity:1;fill-opacity:1"
     d="m 39.379201,102.1284 -17.85937,0 c -3.13542,0 -5.33334,-0.24999 -6.81251,-1.71874 -1.46875,-1.479171 -2.20312,-3.786461 -2.20312,-6.921881 l 0,-15.35937 c 0,-3.36459 0.76042,-5.80209 2.28125,-7.3125 1.52083,-1.52084 3.95833,-2.28126 7.3125,-2.28126 l 17.28125,0 0,6.71875 -15.35938,0 c -1.91667,0 -2.875,0.95834 -2.875,2.87501 l 0,14.39843 c 0,1.63164 1.60602,2.92969 3,2.92969 8.91928,0 8.22426,10e-4 15.23438,-0.0469 z"
     id="path4178"
     inkscape:connector-curvature="0"
     sodipodi:nodetypes="cscsscsccsscccc" />
  <path
     style="fill:#00bbff;fill-rule:nonzero;stroke:#000000;stroke-width:1;stroke-linejoin:miter;stroke-miterlimit:10;stroke-dasharray:none;stroke-opacity:1;fill-opacity:1"
     d="m 56.303013,68.534649 -12.71875,33.593751 9.35937,0 2.17188,-6.000001 11.999981,0 2.15625,6.000001 9.35937,0 -12.71875,-33.593751 -9.609351,0 z m 4.812501,10.07813 3.8281,11.28125 -7.671851,0 3.843751,-11.28125 z"
     id="path4176"
     inkscape:connector-curvature="0" />
  <path
     style="fill:#00bbff;fill-rule:nonzero;stroke:#000000;stroke-width:1;stroke-linejoin:miter;stroke-miterlimit:10;stroke-dasharray:none;stroke-opacity:1;fill-opacity:1"
     d="m 112.27185,102.12841 -9.10937,0 -11.531246,-20.156251 0,20.156251 -8.64063,0 0,-33.593751 9.125,0 11.515626,20.15625 0,-20.15625 8.64062,0 0,33.593751 z"
     id="path13"
     inkscape:connector-curvature="0" />
</svg>
