<?xml version="1.0" encoding="UTF-8" standalone="no"?>
<svg
   xmlns:dc="http://purl.org/dc/elements/1.1/"
   xmlns:cc="http://creativecommons.org/ns#"
   xmlns:rdf="http://www.w3.org/1999/02/22-rdf-syntax-ns#"
   xmlns:svg="http://www.w3.org/2000/svg"
   xmlns="http://www.w3.org/2000/svg"
   xmlns:sodipodi="http://sodipodi.sourceforge.net/DTD/sodipodi-0.dtd"
   xmlns:inkscape="http://www.inkscape.org/namespaces/inkscape"
   version="1.1"
   viewBox="0 0 905.67859 281.87936"
   fill="none"
   stroke="none"
   stroke-linecap="square"
   stroke-miterlimit="10"
   id="svg87"
   sodipodi:docname="scope_of_uavcan.svg"
   inkscape:version="1.0.1 (3bc2e813f5, 2020-09-07)"
   width="905.67859"
   height="281.87936">
  <metadata
     id="metadata93">
    <rdf:RDF>
      <cc:Work
         rdf:about="">
        <dc:format>image/svg+xml</dc:format>
        <dc:type
           rdf:resource="http://purl.org/dc/dcmitype/StillImage" />
        <dc:title />
      </cc:Work>
    </rdf:RDF>
  </metadata>
  <defs
     id="defs91" />
  <sodipodi:namedview
     pagecolor="#ffffff"
     bordercolor="#666666"
     borderopacity="1"
     objecttolerance="10"
     gridtolerance="10"
     guidetolerance="10"
     inkscape:pageopacity="0"
     inkscape:pageshadow="2"
     inkscape:window-width="3840"
     inkscape:window-height="2102"
     id="namedview89"
     showgrid="false"
     inkscape:zoom="2.1885417"
     inkscape:cx="447.01461"
     inkscape:cy="127.4153"
     inkscape:window-x="3840"
     inkscape:window-y="0"
     inkscape:window-maximized="1"
     inkscape:current-layer="svg87"
     fit-margin-top="10"
     fit-margin-bottom="10"
     fit-margin-left="10"
     fit-margin-right="10"
     inkscape:document-rotation="0" />
  <clipPath
     id="g8b0be7b881_0_81.0">
    <path
       d="M 0,0 H 960 V 540 H 0 Z"
       clip-rule="nonzero"
       id="path2" />
  </clipPath>
  <path
     fill="#000000"
     fill-opacity="0"
     d="m 94.1035,270.87937 c -7.83025,0 -14.17792,-6.34766 -14.17792,-14.17792 v -56.71502 c 0,-7.83027 -6.347662,-14.17792 -14.177908,-14.17792 7.830246,0 14.177908,-6.34766 14.177908,-14.17792 v -56.71503 0 c 0,-7.83026 6.34767,-14.17791 14.17792,-14.17791 h 772.2333 c 3.76019,0 7.36639,1.49374 10.02527,4.15261 2.65887,2.65888 4.15265,6.26508 4.15265,10.0253 v 56.71503 c 0,7.83026 6.34765,14.17792 14.17792,14.17792 -7.83027,0 -14.17792,6.34765 -14.17792,14.17792 v 56.71502 c 0,7.83026 -6.34766,14.17792 -14.17792,14.17792 z"
     fill-rule="evenodd"
     id="path7" />
  <path
     fill="#000000"
     fill-opacity="0"
     d="m 94.1035,270.87937 c -7.83025,0 -14.17792,-6.34766 -14.17792,-14.17792 v -56.71502 c 0,-7.83027 -6.347662,-14.17792 -14.177908,-14.17792 7.830246,0 14.177908,-6.34766 14.177908,-14.17792 v -56.71503 0 c 0,-7.83026 6.34767,-14.17791 14.17792,-14.17791 m 772.2333,0 c 3.76019,0 7.36639,1.49374 10.02527,4.15261 2.65887,2.65888 4.15265,6.26508 4.15265,10.0253 v 56.71503 c 0,7.83026 6.34765,14.17792 14.17792,14.17792 -7.83027,0 -14.17792,6.34765 -14.17792,14.17792 v 56.71502 c 0,7.83026 -6.34766,14.17792 -14.17792,14.17792"
     fill-rule="evenodd"
     id="path9" />
  <path
     stroke="#1700b3"
     stroke-width="2"
     stroke-linejoin="round"
     stroke-linecap="butt"
     d="m 94.1035,270.87937 c -7.83025,0 -14.17792,-6.34766 -14.17792,-14.17792 v -56.71502 c 0,-7.83027 -6.347662,-14.17792 -14.177908,-14.17792 7.830246,0 14.177908,-6.34766 14.177908,-14.17792 v -56.71503 0 c 0,-7.83026 6.34767,-14.17791 14.17792,-14.17791 m 772.2333,0 c 3.76019,0 7.36639,1.49374 10.02527,4.15261 2.65887,2.65888 4.15265,6.26508 4.15265,10.0253 v 56.71503 c 0,7.83026 6.34765,14.17792 14.17792,14.17792 -7.83027,0 -14.17792,6.34765 -14.17792,14.17792 v 56.71502 c 0,7.83026 -6.34766,14.17792 -14.17792,14.17792"
     fill-rule="evenodd"
     id="path11"
     style="stroke:#170000;stroke-opacity:1" />
  <path
     fill="#efefef"
     d="M 232.49913,10 H 350.48338 V 89.40158 H 232.49913 Z"
     fill-rule="evenodd"
     id="path13" />
  <path
     fill="#999999"
     d="m 256.61421,39.25766 2.03125,-0.1875 q 0.14063,1.21875 0.65625,2 0.53125,0.78125 1.64063,1.26562 1.10937,0.48438 2.48437,0.48438 1.23438,0 2.17188,-0.35938 0.9375,-0.375 1.39062,-1.01562 0.46875,-0.64063 0.46875,-1.39063 0,-0.76562 -0.45312,-1.32812 -0.4375,-0.57813 -1.45313,-0.95313 -0.65625,-0.26562 -2.89062,-0.79687 -2.23438,-0.53125 -3.125,-1.01563 -1.15625,-0.60937 -1.73438,-1.5 -0.5625,-0.90625 -0.5625,-2.03125 0,-1.21875 0.6875,-2.28125 0.70313,-1.07812 2.03125,-1.625 1.34375,-0.5625 2.98438,-0.5625 1.8125,0 3.1875,0.59375 1.375,0.57813 2.10937,1.70313 0.75,1.125 0.79688,2.54687 l -2.04688,0.15625 q -0.17187,-1.53125 -1.14062,-2.3125 -0.95313,-0.79687 -2.8125,-0.79687 -1.95313,0 -2.84375,0.71875 -0.89063,0.71875 -0.89063,1.71875 0,0.875 0.64063,1.4375 0.60937,0.5625 3.21875,1.15625 2.625,0.59375 3.59375,1.03125 1.42187,0.65625 2.09375,1.65625 0.67187,1 0.67187,2.3125 0,1.29687 -0.73437,2.4375 -0.73438,1.14062 -2.125,1.78125 -1.39063,0.64062 -3.125,0.64062 -2.20313,0 -3.70313,-0.64062 -1.48437,-0.64063 -2.32812,-1.92188 -0.84375,-1.29687 -0.89063,-2.92187 z m 15.59592,9.70312 v -16.25 h 1.8125 v 1.53125 q 0.64062,-0.90625 1.4375,-1.34375 0.8125,-0.45312 1.96875,-0.45312 1.5,0 2.64062,0.78125 1.15625,0.76562 1.73438,2.1875 0.59375,1.40625 0.59375,3.07812 0,1.8125 -0.64063,3.26563 -0.64062,1.4375 -1.875,2.20312 -1.23437,0.76563 -2.59375,0.76563 -1,0 -1.79687,-0.42188 -0.78125,-0.42187 -1.29688,-1.0625 v 5.71875 z m 1.79687,-10.3125 q 0,2.26563 0.92188,3.35938 0.92187,1.07812 2.21875,1.07812 1.32812,0 2.26562,-1.125 0.95313,-1.125 0.95313,-3.46875 0,-2.25 -0.92188,-3.35937 -0.92187,-1.125 -2.20312,-1.125 -1.28125,0 -2.26563,1.1875 -0.96875,1.1875 -0.96875,3.45312 z m 18.45972,4.35938 q -1.10938,0.9375 -2.14063,1.32812 -1.01562,0.39063 -2.1875,0.39063 -1.9375,0 -2.98437,-0.9375 -1.03125,-0.95313 -1.03125,-2.42188 0,-0.85937 0.39062,-1.57812 0.40625,-0.71875 1.03125,-1.14063 0.64063,-0.4375 1.4375,-0.65625 0.59375,-0.15625 1.76563,-0.29687 2.42187,-0.29688 3.5625,-0.6875 0,-0.40625 0,-0.51563 0,-1.21875 -0.5625,-1.71875 -0.76563,-0.67187 -2.26563,-0.67187 -1.40625,0 -2.07812,0.5 -0.67188,0.48437 -0.98438,1.73437 l -1.95312,-0.26562 q 0.26562,-1.25 0.875,-2.01563 0.60937,-0.78125 1.75,-1.1875 1.15625,-0.42187 2.67187,-0.42187 1.51563,0 2.45313,0.35937 0.9375,0.34375 1.375,0.89063 0.45312,0.53125 0.625,1.34375 0.0937,0.51562 0.0937,1.84375 v 2.65625 q 0,2.78125 0.125,3.51562 0.14062,0.73438 0.51562,1.40625 h -2.07812 q -0.3125,-0.625 -0.40625,-1.45312 z m -0.15625,-4.4375 q -1.09375,0.4375 -3.26563,0.75 -1.21875,0.17187 -1.73437,0.39062 -0.5,0.21875 -0.78125,0.65625 -0.28125,0.42188 -0.28125,0.9375 0,0.79688 0.60937,1.32813 0.60938,0.53125 1.76563,0.53125 1.14062,0 2.03125,-0.5 0.90625,-0.5 1.32812,-1.375 0.32813,-0.67188 0.32813,-2 z m 12.75656,1.59375 1.96875,0.25 q -0.32813,2.01562 -1.65625,3.17187 -1.3125,1.14063 -3.23438,1.14063 -2.42187,0 -3.89062,-1.57813 -1.45313,-1.57812 -1.45313,-4.51562 0,-1.90625 0.625,-3.32813 0.625,-1.4375 1.90625,-2.14062 1.29688,-0.71875 2.8125,-0.71875 1.92188,0 3.14063,0.96875 1.21875,0.96875 1.5625,2.75 l -1.9375,0.29687 q -0.28125,-1.1875 -0.98438,-1.78125 -0.70312,-0.59375 -1.70312,-0.59375 -1.5,0 -2.4375,1.07813 -0.9375,1.07812 -0.9375,3.40625 0,2.375 0.90625,3.45312 0.90625,1.0625 2.35937,1.0625 1.17188,0 1.95313,-0.71875 0.79687,-0.71875 1,-2.20312 z m 11.70312,0.51562 2.0625,0.25 q -0.48437,1.8125 -1.8125,2.8125 -1.3125,0.98438 -3.35937,0.98438 -2.57813,0 -4.09375,-1.57813 -1.5,-1.59375 -1.5,-4.46875 0,-2.95312 1.53125,-4.59375 1.53125,-1.64062 3.95312,-1.64062 2.35938,0 3.84375,1.60937 1.5,1.59375 1.5,4.51563 0,0.17187 0,0.53125 h -8.76562 q 0.10937,1.9375 1.09375,2.96875 0.98437,1.01562 2.45312,1.01562 1.09375,0 1.85938,-0.5625 0.78125,-0.57812 1.23437,-1.84375 z m -6.53125,-3.21875 h 6.5625 q -0.14062,-1.48437 -0.75,-2.21875 -0.95312,-1.15625 -2.46875,-1.15625 -1.375,0 -2.3125,0.92188 -0.9375,0.90625 -1.03125,2.45312 z m 10.3191,2.125 v -2 h 6.125 v 2 z"
     fill-rule="nonzero"
     id="path15" />
  <path
     fill="#999999"
     d="m 278.61632,67.16391 1.96875,0.25 q -0.32813,2.01562 -1.65625,3.17187 -1.3125,1.14063 -3.23438,1.14063 -2.42187,0 -3.89062,-1.57813 -1.45313,-1.57812 -1.45313,-4.51562 0,-1.90625 0.625,-3.32813 0.625,-1.4375 1.90625,-2.14062 1.29688,-0.71875 2.8125,-0.71875 1.92188,0 3.14063,0.96875 1.21875,0.96875 1.5625,2.75 l -1.9375,0.29687 q -0.28125,-1.1875 -0.98438,-1.78125 -0.70312,-0.59375 -1.70312,-0.59375 -1.5,0 -2.4375,1.07813 -0.9375,1.07812 -0.9375,3.40625 0,2.375 0.90625,3.45312 0.90625,1.0625 2.35937,1.0625 1.17188,0 1.95313,-0.71875 0.79687,-0.71875 1,-2.20312 z m 3.64062,4.29687 v -11.75 h 1.79688 v 1.78125 q 0.6875,-1.25 1.26562,-1.64062 0.57813,-0.40625 1.28125,-0.40625 1,0 2.04688,0.64062 l -0.6875,1.84375 q -0.73438,-0.42187 -1.46875,-0.42187 -0.64063,0 -1.17188,0.39062 -0.51562,0.39063 -0.73437,1.09375 -0.32813,1.0625 -0.32813,2.3125 v 6.15625 z m 15.23221,-1.45312 q -1.10937,0.9375 -2.14062,1.32812 -1.01563,0.39063 -2.1875,0.39063 -1.9375,0 -2.98438,-0.9375 -1.03125,-0.95313 -1.03125,-2.42188 0,-0.85937 0.39063,-1.57812 0.40625,-0.71875 1.03125,-1.14063 0.64062,-0.4375 1.4375,-0.65625 0.59375,-0.15625 1.76562,-0.29687 2.42188,-0.29688 3.5625,-0.6875 0,-0.40625 0,-0.51563 0,-1.21875 -0.5625,-1.71875 -0.76562,-0.67187 -2.26562,-0.67187 -1.40625,0 -2.07813,0.5 -0.67187,0.48437 -0.98437,1.73437 l -1.95313,-0.26562 q 0.26563,-1.25 0.875,-2.01563 0.60938,-0.78125 1.75,-1.1875 1.15625,-0.42187 2.67188,-0.42187 1.51562,0 2.45312,0.35937 0.9375,0.34375 1.375,0.89063 0.45313,0.53125 0.625,1.34375 0.0937,0.51562 0.0937,1.84375 v 2.65625 q 0,2.78125 0.125,3.51562 0.14063,0.73438 0.51563,1.40625 h -2.07813 q -0.3125,-0.625 -0.40625,-1.45312 z m -0.15625,-4.4375 q -1.09375,0.4375 -3.26562,0.75 -1.21875,0.17187 -1.73438,0.39062 -0.5,0.21875 -0.78125,0.65625 -0.28125,0.42188 -0.28125,0.9375 0,0.79688 0.60938,1.32813 0.60937,0.53125 1.76562,0.53125 1.14063,0 2.03125,-0.5 0.90625,-0.5 1.32813,-1.375 0.32812,-0.67188 0.32812,-2 z m 5.56906,5.89062 V 61.25766 h -1.76562 v -1.54688 h 1.76562 v -1.25 q 0,-1.1875 0.20313,-1.75 0.29687,-0.78125 1.01562,-1.26562 0.73438,-0.48438 2.03125,-0.48438 0.84375,0 1.85938,0.20313 l -0.29688,1.73437 q -0.625,-0.10937 -1.17187,-0.10937 -0.90625,0 -1.28125,0.39062 -0.375,0.39063 -0.375,1.45313 v 1.07812 h 2.28125 v 1.54688 h -2.28125 v 10.20312 z m 10.16965,-1.78125 0.28125,1.76563 q -0.84375,0.17187 -1.5,0.17187 -1.07812,0 -1.6875,-0.34375 -0.59375,-0.34375 -0.84375,-0.89062 -0.23437,-0.5625 -0.23437,-2.35938 v -6.76562 h -1.46875 v -1.54688 h 1.46875 v -2.90625 l 1.98437,-1.20312 v 4.10937 h 2 v 1.54688 h -2 v 6.875 q 0,0.84375 0.0937,1.09375 0.10938,0.25 0.34375,0.39062 0.25,0.14063 0.6875,0.14063 0.32813,0 0.875,-0.0781 z"
     fill-rule="nonzero"
     id="path17" />
  <path
     fill="#efefef"
     d="M 106.67592,10 H 224.66017 V 89.40158 H 106.67592 Z"
     fill-rule="evenodd"
     id="path19" />
  <path
     fill="#999999"
     d="m 155.60747,41.74204 h 2.14062 v 9.375 q 0,2.4375 -0.54687,3.875 -0.54688,1.4375 -2,2.34375 -1.4375,0.90625 -3.78125,0.90625 -2.28125,0 -3.73438,-0.78125 -1.45312,-0.79688 -2.07812,-2.28125 -0.60938,-1.48438 -0.60938,-4.0625 v -9.375 h 2.14063 v 9.35937 q 0,2.10938 0.39062,3.10938 0.40625,1 1.35938,1.54687 0.95312,0.54688 2.34375,0.54688 2.35937,0 3.35937,-1.07813 1.01563,-1.07812 1.01563,-4.125 z m 3.93974,16.21875 6.21875,-16.21875 h 2.3125 l 6.64063,16.21875 h -2.4375 l -1.89063,-4.90625 h -6.78125 l -1.78125,4.90625 z m 4.67188,-6.65625 h 5.5 l -1.6875,-4.5 q -0.78125,-2.04688 -1.15625,-3.35938 -0.3125,1.5625 -0.875,3.09375 z m 15.17924,6.65625 -6.29687,-16.21875 h 2.32812 l 4.21875,11.78125 q 0.5,1.42187 0.84375,2.65625 0.375,-1.32813 0.875,-2.65625 l 4.39063,-11.78125 h 2.1875 l -6.35938,16.21875 z"
     fill-rule="nonzero"
     id="path21" />
  <path
     fill="#efefef"
     d="M 358.32237,10 H 476.30662 V 89.40158 H 358.32237 Z"
     fill-rule="evenodd"
     id="path23" />
  <path
     fill="#999999"
     d="M 378.06475,44.46079 V 28.24204 h 3.21875 l 3.84375,11.48437 q 0.53125,1.60938 0.78125,2.40625 0.26562,-0.89062 0.85937,-2.60937 l 3.875,-11.28125 h 2.89063 V 44.46079 H 391.471 V 30.88266 l -4.71875,13.57813 h -1.9375 l -4.6875,-13.8125 v 13.8125 z m 26.34158,-1.45313 q -1.10937,0.9375 -2.14062,1.32813 -1.01563,0.39062 -2.1875,0.39062 -1.9375,0 -2.98438,-0.9375 -1.03125,-0.95312 -1.03125,-2.42187 0,-0.85938 0.39063,-1.57813 0.40625,-0.71875 1.03125,-1.14062 0.64062,-0.4375 1.4375,-0.65625 0.59375,-0.15625 1.76562,-0.29688 2.42188,-0.29687 3.5625,-0.6875 0,-0.40625 0,-0.51562 0,-1.21875 -0.5625,-1.71875 -0.76562,-0.67188 -2.26562,-0.67188 -1.40625,0 -2.07813,0.5 -0.67187,0.48438 -0.98437,1.73438 l -1.95313,-0.26563 q 0.26563,-1.25 0.875,-2.01562 0.60938,-0.78125 1.75,-1.1875 1.15625,-0.42188 2.67188,-0.42188 1.51562,0 2.45312,0.35938 0.9375,0.34375 1.375,0.89062 0.45313,0.53125 0.625,1.34375 0.0937,0.51563 0.0937,1.84375 v 2.65625 q 0,2.78125 0.125,3.51563 0.14063,0.73437 0.51563,1.40625 h -2.07813 q -0.3125,-0.625 -0.40625,-1.45313 z m -0.15625,-4.4375 q -1.09375,0.4375 -3.26562,0.75 -1.21875,0.17188 -1.73438,0.39063 -0.5,0.21875 -0.78125,0.65625 -0.28125,0.42187 -0.28125,0.9375 0,0.79687 0.60938,1.32812 0.60937,0.53125 1.76562,0.53125 1.14063,0 2.03125,-0.5 0.90625,-0.5 1.32813,-1.375 0.32812,-0.67187 0.32812,-2 z m 5.10035,5.89063 v -11.75 h 1.78125 v 1.67187 q 1.29687,-1.9375 3.75,-1.9375 1.0625,0 1.95312,0.39063 0.89063,0.375 1.32813,1 0.4375,0.60937 0.625,1.46875 0.10937,0.54687 0.10937,1.9375 v 7.21875 h -2 v -7.14063 q 0,-1.21875 -0.23437,-1.8125 -0.23438,-0.60937 -0.82813,-0.96875 -0.57812,-0.35937 -1.375,-0.35937 -1.28125,0 -2.20312,0.8125 -0.92188,0.79687 -0.92188,3.04687 v 6.42188 z m 12.60031,0 v -11.75 h 1.78125 v 1.67187 q 1.29687,-1.9375 3.75,-1.9375 1.0625,0 1.95312,0.39063 0.89063,0.375 1.32813,1 0.4375,0.60937 0.625,1.46875 0.10937,0.54687 0.10937,1.9375 v 7.21875 h -2 v -7.14063 q 0,-1.21875 -0.23437,-1.8125 -0.23438,-0.60937 -0.82813,-0.96875 -0.57812,-0.35937 -1.375,-0.35937 -1.28125,0 -2.20312,0.8125 -0.92188,0.79687 -0.92188,3.04687 v 6.42188 z m 20.63159,-3.78125 2.0625,0.25 q -0.48438,1.8125 -1.8125,2.8125 -1.3125,0.98437 -3.35938,0.98437 -2.57812,0 -4.09375,-1.57812 -1.5,-1.59375 -1.5,-4.46875 0,-2.95313 1.53125,-4.59375 1.53125,-1.64063 3.95313,-1.64063 2.35937,0 3.84375,1.60938 1.5,1.59375 1.5,4.51562 0,0.17188 0,0.53125 h -8.76563 q 0.10938,1.9375 1.09375,2.96875 0.98438,1.01563 2.45313,1.01563 1.09375,0 1.85937,-0.5625 0.78125,-0.57813 1.23438,-1.84375 z m -6.53125,-3.21875 h 6.5625 q -0.14063,-1.48438 -0.75,-2.21875 -0.95313,-1.15625 -2.46875,-1.15625 -1.375,0 -2.3125,0.92187 -0.9375,0.90625 -1.03125,2.45313 z m 18.70968,7 v -1.48438 q -1.10937,1.75 -3.28125,1.75 -1.40625,0 -2.59375,-0.76562 -1.17187,-0.78125 -1.8125,-2.17188 -0.64062,-1.39062 -0.64062,-3.1875 0,-1.76562 0.57812,-3.1875 0.59375,-1.4375 1.76563,-2.20312 1.17187,-0.76563 2.60937,-0.76563 1.0625,0 1.89063,0.45313 0.84375,0.4375 1.35937,1.15625 v -5.8125 h 1.98438 v 16.21875 z m -6.28125,-5.85938 q 0,2.25 0.9375,3.375 0.95313,1.10938 2.25,1.10938 1.3125,0 2.21875,-1.0625 0.92188,-1.0625 0.92188,-3.26563 0,-2.40625 -0.9375,-3.53125 -0.92188,-1.125 -2.29688,-1.125 -1.3125,0 -2.20312,1.07813 -0.89063,1.07812 -0.89063,3.42187 z"
     fill-rule="nonzero"
     id="path25" />
  <path
     fill="#999999"
     d="m 391.85025,70.00766 q -1.10937,0.9375 -2.14062,1.32812 -1.01563,0.39063 -2.1875,0.39063 -1.9375,0 -2.98438,-0.9375 -1.03125,-0.95313 -1.03125,-2.42188 0,-0.85937 0.39063,-1.57812 0.40625,-0.71875 1.03125,-1.14063 0.64062,-0.4375 1.4375,-0.65625 0.59375,-0.15625 1.76562,-0.29687 2.42188,-0.29688 3.5625,-0.6875 0,-0.40625 0,-0.51563 0,-1.21875 -0.5625,-1.71875 -0.76562,-0.67187 -2.26562,-0.67187 -1.40625,0 -2.07813,0.5 -0.67187,0.48437 -0.98437,1.73437 l -1.95313,-0.26562 q 0.26563,-1.25 0.875,-2.01563 0.60938,-0.78125 1.75,-1.1875 1.15625,-0.42187 2.67188,-0.42187 1.51562,0 2.45312,0.35937 0.9375,0.34375 1.375,0.89063 0.45313,0.53125 0.625,1.34375 0.0937,0.51562 0.0937,1.84375 v 2.65625 q 0,2.78125 0.125,3.51562 0.14063,0.73438 0.51563,1.40625 h -2.07813 q -0.3125,-0.625 -0.40625,-1.45312 z m -0.15625,-4.4375 q -1.09375,0.4375 -3.26562,0.75 -1.21875,0.17187 -1.73438,0.39062 -0.5,0.21875 -0.78125,0.65625 -0.28125,0.42188 -0.28125,0.9375 0,0.79688 0.60938,1.32813 0.60937,0.53125 1.76562,0.53125 1.14063,0 2.03125,-0.5 0.90625,-0.5 1.32813,-1.375 0.32812,-0.67188 0.32812,-2 z m 5.10031,-8.03125 v -2.29688 h 2 v 2.29688 z m 0,13.92187 v -11.75 h 2 v 11.75 z m 5.00226,0 v -11.75 h 1.79687 v 1.78125 q 0.6875,-1.25 1.26563,-1.64062 0.57812,-0.40625 1.28125,-0.40625 1,0 2.04687,0.64062 l -0.6875,1.84375 q -0.73437,-0.42187 -1.46875,-0.42187 -0.64062,0 -1.17187,0.39062 -0.51563,0.39063 -0.73438,1.09375 -0.32812,1.0625 -0.32812,2.3125 v 6.15625 z m 15.23221,-4.29687 1.96875,0.25 q -0.32813,2.01562 -1.65625,3.17187 -1.3125,1.14063 -3.23438,1.14063 -2.42187,0 -3.89062,-1.57813 -1.45313,-1.57812 -1.45313,-4.51562 0,-1.90625 0.625,-3.32813 0.625,-1.4375 1.90625,-2.14062 1.29688,-0.71875 2.8125,-0.71875 1.92188,0 3.14063,0.96875 1.21875,0.96875 1.5625,2.75 l -1.9375,0.29687 q -0.28125,-1.1875 -0.98438,-1.78125 -0.70312,-0.59375 -1.70312,-0.59375 -1.5,0 -2.4375,1.07813 -0.9375,1.07812 -0.9375,3.40625 0,2.375 0.90625,3.45312 0.90625,1.0625 2.35937,1.0625 1.17188,0 1.95313,-0.71875 0.79687,-0.71875 1,-2.20312 z m 3.64062,4.29687 v -11.75 h 1.79688 v 1.78125 q 0.6875,-1.25 1.26562,-1.64062 0.57813,-0.40625 1.28125,-0.40625 1,0 2.04688,0.64062 l -0.6875,1.84375 q -0.73438,-0.42187 -1.46875,-0.42187 -0.64063,0 -1.17188,0.39062 -0.51562,0.39063 -0.73437,1.09375 -0.32813,1.0625 -0.32813,2.3125 v 6.15625 z m 15.23221,-1.45312 q -1.10937,0.9375 -2.14062,1.32812 -1.01563,0.39063 -2.1875,0.39063 -1.9375,0 -2.98438,-0.9375 -1.03125,-0.95313 -1.03125,-2.42188 0,-0.85937 0.39063,-1.57812 0.40625,-0.71875 1.03125,-1.14063 0.64062,-0.4375 1.4375,-0.65625 0.59375,-0.15625 1.76562,-0.29687 2.42188,-0.29688 3.5625,-0.6875 0,-0.40625 0,-0.51563 0,-1.21875 -0.5625,-1.71875 -0.76562,-0.67187 -2.26562,-0.67187 -1.40625,0 -2.07813,0.5 -0.67187,0.48437 -0.98437,1.73437 l -1.95313,-0.26562 q 0.26563,-1.25 0.875,-2.01563 0.60938,-0.78125 1.75,-1.1875 1.15625,-0.42187 2.67188,-0.42187 1.51562,0 2.45312,0.35937 0.9375,0.34375 1.375,0.89063 0.45313,0.53125 0.625,1.34375 0.0937,0.51562 0.0937,1.84375 v 2.65625 q 0,2.78125 0.125,3.51562 0.14063,0.73438 0.51563,1.40625 h -2.07813 q -0.3125,-0.625 -0.40625,-1.45312 z m -0.15625,-4.4375 q -1.09375,0.4375 -3.26562,0.75 -1.21875,0.17187 -1.73438,0.39062 -0.5,0.21875 -0.78125,0.65625 -0.28125,0.42188 -0.28125,0.9375 0,0.79688 0.60938,1.32813 0.60937,0.53125 1.76562,0.53125 1.14063,0 2.03125,-0.5 0.90625,-0.5 1.32813,-1.375 0.32812,-0.67188 0.32812,-2 z m 5.56906,5.89062 V 61.25766 h -1.76562 v -1.54688 h 1.76562 v -1.25 q 0,-1.1875 0.20313,-1.75 0.29687,-0.78125 1.01562,-1.26562 0.73438,-0.48438 2.03125,-0.48438 0.84375,0 1.85938,0.20313 l -0.29688,1.73437 q -0.625,-0.10937 -1.17187,-0.10937 -0.90625,0 -1.28125,0.39062 -0.375,0.39063 -0.375,1.45313 v 1.07812 h 2.28125 v 1.54688 h -2.28125 v 10.20312 z m 10.16965,-1.78125 0.28125,1.76563 q -0.84375,0.17187 -1.5,0.17187 -1.07813,0 -1.6875,-0.34375 -0.59375,-0.34375 -0.84375,-0.89062 -0.23438,-0.5625 -0.23438,-2.35938 v -6.76562 h -1.46875 v -1.54688 h 1.46875 v -2.90625 l 1.98438,-1.20312 v 4.10937 h 2 v 1.54688 h -2 v 6.875 q 0,0.84375 0.0937,1.09375 0.10937,0.25 0.34375,0.39062 0.25,0.14063 0.6875,0.14063 0.32812,0 0.875,-0.0781 z"
     fill-rule="nonzero"
     id="path27" />
  <path
     fill="#efefef"
     d="M 484.14558,10 H 602.12983 V 89.40158 H 484.14558 Z"
     fill-rule="evenodd"
     id="path29" />
  <path
     fill="#999999"
     d="M 506.50955,44.46079 V 28.24204 h 7.1875 q 2.17188,0 3.29688,0.4375 1.125,0.4375 1.79687,1.54687 0.6875,1.10938 0.6875,2.4375 0,1.73438 -1.125,2.92188 -1.10937,1.17187 -3.45312,1.5 0.85937,0.40625 1.29687,0.79687 0.9375,0.875 1.78125,2.17188 l 2.82813,4.40625 h -2.70313 l -2.14062,-3.375 q -0.95313,-1.45313 -1.5625,-2.23438 -0.59375,-0.78125 -1.07813,-1.07812 -0.48437,-0.3125 -0.98437,-0.4375 -0.35938,-0.0781 -1.1875,-0.0781 h -2.5 v 7.20313 z m 2.14063,-9.0625 h 4.625 q 1.46875,0 2.29687,-0.29688 0.82813,-0.3125 1.25,-0.96875 0.4375,-0.67187 0.4375,-1.46875 0,-1.14062 -0.84375,-1.875 -0.82812,-0.75 -2.625,-0.75 h -5.14062 z m 13.18975,3.1875 q 0,-3.26563 1.8125,-4.82813 1.51563,-1.3125 3.70313,-1.3125 2.42187,0 3.95312,1.59375 1.54688,1.57813 1.54688,4.375 0,2.28125 -0.6875,3.57813 -0.67188,1.29687 -1.98438,2.01562 -1.29687,0.71875 -2.82812,0.71875 -2.46875,0 -4,-1.57812 -1.51563,-1.57813 -1.51563,-4.5625 z m 2.04688,0 q 0,2.25 0.98437,3.375 0.98438,1.125 2.48438,1.125 1.48437,0 2.46875,-1.125 0.98437,-1.125 0.98437,-3.4375 0,-2.1875 -1,-3.29688 -0.98437,-1.125 -2.45312,-1.125 -1.5,0 -2.48438,1.125 -0.98437,1.10938 -0.98437,3.35938 z m 13.13153,5.875 h -1.84375 V 28.24204 h 1.98437 v 5.78125 q 1.26563,-1.57813 3.21875,-1.57813 1.09375,0 2.0625,0.4375 0.96875,0.4375 1.59375,1.23438 0.625,0.78125 0.96875,1.90625 0.35938,1.10937 0.35938,2.39062 0,3.01563 -1.5,4.67188 -1.48438,1.64062 -3.57813,1.64062 -2.07812,0 -3.26562,-1.73437 z m -0.0156,-5.96875 q 0,2.125 0.57813,3.0625 0.9375,1.53125 2.53125,1.53125 1.3125,0 2.26562,-1.125 0.95313,-1.14063 0.95313,-3.39063 0,-2.29687 -0.92188,-3.39062 -0.90625,-1.09375 -2.20312,-1.09375 -1.3125,0 -2.26563,1.14062 -0.9375,1.125 -0.9375,3.26563 z m 10.03785,0.0937 q 0,-3.26563 1.8125,-4.82813 1.51562,-1.3125 3.70312,-1.3125 2.42188,0 3.95313,1.59375 1.54687,1.57813 1.54687,4.375 0,2.28125 -0.6875,3.57813 -0.67187,1.29687 -1.98437,2.01562 -1.29688,0.71875 -2.82813,0.71875 -2.46875,0 -4,-1.57812 -1.51562,-1.57813 -1.51562,-4.5625 z m 2.04687,0 q 0,2.25 0.98438,3.375 0.98437,1.125 2.48437,1.125 1.48438,0 2.46875,-1.125 0.98438,-1.125 0.98438,-3.4375 0,-2.1875 -1,-3.29688 -0.98438,-1.125 -2.45313,-1.125 -1.5,0 -2.48437,1.125 -0.98438,1.10938 -0.98438,3.35938 z m 15.64722,4.09375 0.28125,1.76562 q -0.84375,0.17188 -1.5,0.17188 -1.07813,0 -1.6875,-0.34375 -0.59375,-0.34375 -0.84375,-0.89063 -0.23438,-0.5625 -0.23438,-2.35937 v -6.76563 h -1.46875 v -1.54687 h 1.46875 v -2.90625 l 1.98438,-1.20313 v 4.10938 h 2 v 1.54687 h -2 v 6.875 q 0,0.84375 0.0937,1.09375 0.10937,0.25 0.34375,0.39063 0.25,0.14062 0.6875,0.14062 0.32812,0 0.875,-0.0781 z m 1.95086,-12.14063 v -2.29687 h 2 v 2.29687 z m 0,13.92188 v -11.75 h 2 v 11.75 z m 12.68976,-4.29688 1.96875,0.25 q -0.32812,2.01563 -1.65625,3.17188 -1.3125,1.14062 -3.23437,1.14062 -2.42188,0 -3.89063,-1.57812 -1.45312,-1.57813 -1.45312,-4.51563 0,-1.90625 0.625,-3.32812 0.625,-1.4375 1.90625,-2.14063 1.29687,-0.71875 2.8125,-0.71875 1.92187,0 3.14062,0.96875 1.21875,0.96875 1.5625,2.75 l -1.9375,0.29688 q -0.28125,-1.1875 -0.98437,-1.78125 -0.70313,-0.59375 -1.70313,-0.59375 -1.5,0 -2.4375,1.07812 -0.9375,1.07813 -0.9375,3.40625 0,2.375 0.90625,3.45313 0.90625,1.0625 2.35938,1.0625 1.17187,0 1.95312,-0.71875 0.79688,-0.71875 1,-2.20313 z"
     fill-rule="nonzero"
     id="path31" />
  <path
     fill="#999999"
     d="m 502.30065,67.96079 1.96875,-0.3125 q 0.15625,1.17187 0.90625,1.8125 0.76562,0.625 2.125,0.625 1.375,0 2.03125,-0.54688 0.67187,-0.5625 0.67187,-1.3125 0,-0.6875 -0.57812,-1.0625 -0.42188,-0.26562 -2.04688,-0.6875 -2.1875,-0.54687 -3.03125,-0.95312 -0.84375,-0.40625 -1.28125,-1.10938 -0.4375,-0.71875 -0.4375,-1.57812 0,-0.79688 0.35938,-1.45313 0.35937,-0.67187 0.98437,-1.125 0.45313,-0.32812 1.25,-0.5625 0.8125,-0.25 1.73438,-0.25 1.375,0 2.42187,0.40625 1.04688,0.39063 1.54688,1.07813 0.5,0.67187 0.6875,1.8125 l -1.95313,0.26562 q -0.125,-0.90625 -0.76562,-1.40625 -0.64063,-0.51562 -1.79688,-0.51562 -1.375,0 -1.96875,0.45312 -0.57812,0.45313 -0.57812,1.0625 0,0.39063 0.25,0.6875 0.23437,0.32813 0.75,0.53125 0.3125,0.125 1.76562,0.51563 2.10938,0.5625 2.9375,0.92187 0.84375,0.35938 1.3125,1.04688 0.48438,0.6875 0.48438,1.70312 0,1 -0.57813,1.875 -0.57812,0.875 -1.67187,1.35938 -1.09375,0.48437 -2.48438,0.48437 -2.29687,0 -3.5,-0.95312 -1.1875,-0.95313 -1.51562,-2.8125 z m 12.03125,8.03125 -0.21875,-1.875 q 0.65625,0.17187 1.14062,0.17187 0.65625,0 1.04688,-0.21875 0.40625,-0.21875 0.65625,-0.625 0.1875,-0.29687 0.60937,-1.46875 0.0625,-0.17187 0.1875,-0.5 l -4.46875,-11.76562 h 2.15625 l 2.4375,6.8125 q 0.48438,1.28125 0.85938,2.71875 0.34375,-1.375 0.8125,-2.6875 l 2.51562,-6.84375 h 1.98438 l -4.46875,11.95312 q -0.71875,1.9375 -1.10938,2.65625 -0.53125,0.98438 -1.21875,1.4375 -0.6875,0.46875 -1.64062,0.46875 -0.57813,0 -1.28125,-0.23437 z m 10.625,-8.03125 1.96875,-0.3125 q 0.15625,1.17187 0.90625,1.8125 0.76562,0.625 2.125,0.625 1.375,0 2.03125,-0.54688 0.67187,-0.5625 0.67187,-1.3125 0,-0.6875 -0.57812,-1.0625 -0.42188,-0.26562 -2.04688,-0.6875 -2.1875,-0.54687 -3.03125,-0.95312 -0.84375,-0.40625 -1.28125,-1.10938 -0.4375,-0.71875 -0.4375,-1.57812 0,-0.79688 0.35938,-1.45313 0.35937,-0.67187 0.98437,-1.125 0.45313,-0.32812 1.25,-0.5625 0.8125,-0.25 1.73438,-0.25 1.375,0 2.42187,0.40625 1.04688,0.39063 1.54688,1.07813 0.5,0.67187 0.6875,1.8125 l -1.95313,0.26562 q -0.125,-0.90625 -0.76562,-1.40625 -0.64063,-0.51562 -1.79688,-0.51562 -1.375,0 -1.96875,0.45312 -0.57812,0.45313 -0.57812,1.0625 0,0.39063 0.25,0.6875 0.23437,0.32813 0.75,0.53125 0.3125,0.125 1.76562,0.51563 2.10938,0.5625 2.9375,0.92187 0.84375,0.35938 1.3125,1.04688 0.48438,0.6875 0.48438,1.70312 0,1 -0.57813,1.875 -0.57812,0.875 -1.67187,1.35938 -1.09375,0.48437 -2.48438,0.48437 -2.29687,0 -3.5,-0.95312 -1.1875,-0.95313 -1.51562,-2.8125 z m 16.46875,1.71875 0.28125,1.76562 q -0.84375,0.17188 -1.5,0.17188 -1.07813,0 -1.6875,-0.34375 -0.59375,-0.34375 -0.84375,-0.89063 -0.23438,-0.5625 -0.23438,-2.35937 v -6.76563 h -1.46875 v -1.54687 h 1.46875 v -2.90625 l 1.98438,-1.20313 v 4.10938 h 2 v 1.54687 h -2 v 6.875 q 0,0.84375 0.0937,1.09375 0.10937,0.25 0.34375,0.39063 0.25,0.14062 0.6875,0.14062 0.32812,0 0.875,-0.0781 z m 9.98212,-2 2.0625,0.25 q -0.48438,1.8125 -1.8125,2.8125 -1.3125,0.98437 -3.35938,0.98437 -2.57812,0 -4.09375,-1.57812 -1.5,-1.59375 -1.5,-4.46875 0,-2.95313 1.53125,-4.59375 1.53125,-1.64063 3.95313,-1.64063 2.35937,0 3.84375,1.60938 1.5,1.59375 1.5,4.51562 0,0.17188 0,0.53125 h -8.76563 q 0.10938,1.9375 1.09375,2.96875 0.98438,1.01563 2.45313,1.01563 1.09375,0 1.85937,-0.5625 0.78125,-0.57813 1.23438,-1.84375 z m -6.53125,-3.21875 h 6.5625 q -0.14063,-1.48438 -0.75,-2.21875 -0.95313,-1.15625 -2.46875,-1.15625 -1.375,0 -2.3125,0.92187 -0.9375,0.90625 -1.03125,2.45313 z m 11.10034,7 v -11.75 h 1.78125 v 1.65625 q 0.54687,-0.875 1.46875,-1.39063 0.92187,-0.53125 2.09375,-0.53125 1.29687,0 2.125,0.54688 0.84375,0.53125 1.1875,1.51562 1.39062,-2.0625 3.625,-2.0625 1.75,0 2.6875,0.96875 0.9375,0.96875 0.9375,2.98438 v 8.0625 h -1.96875 v -7.40625 q 0,-1.1875 -0.20313,-1.70313 -0.1875,-0.53125 -0.70312,-0.84375 -0.5,-0.32812 -1.1875,-0.32812 -1.23438,0 -2.0625,0.82812 -0.8125,0.8125 -0.8125,2.625 v 6.82813 h -2 v -7.64063 q 0,-1.3125 -0.48438,-1.96875 -0.48437,-0.67187 -1.59375,-0.67187 -0.84375,0 -1.5625,0.4375 -0.70312,0.4375 -1.03125,1.29687 -0.3125,0.84375 -0.3125,2.45313 v 6.09375 z m 18.07599,-3.5 1.96875,-0.3125 q 0.15625,1.17187 0.90625,1.8125 0.76562,0.625 2.125,0.625 1.375,0 2.03125,-0.54688 0.67187,-0.5625 0.67187,-1.3125 0,-0.6875 -0.57812,-1.0625 -0.42188,-0.26562 -2.04688,-0.6875 -2.1875,-0.54687 -3.03125,-0.95312 -0.84375,-0.40625 -1.28125,-1.10938 -0.4375,-0.71875 -0.4375,-1.57812 0,-0.79688 0.35938,-1.45313 0.35937,-0.67187 0.98437,-1.125 0.45313,-0.32812 1.25,-0.5625 0.8125,-0.25 1.73438,-0.25 1.375,0 2.42187,0.40625 1.04688,0.39063 1.54688,1.07813 0.5,0.67187 0.6875,1.8125 l -1.95313,0.26562 q -0.125,-0.90625 -0.76562,-1.40625 -0.64063,-0.51562 -1.79688,-0.51562 -1.375,0 -1.96875,0.45312 -0.57812,0.45313 -0.57812,1.0625 0,0.39063 0.25,0.6875 0.23437,0.32813 0.75,0.53125 0.3125,0.125 1.76562,0.51563 2.10938,0.5625 2.9375,0.92187 0.84375,0.35938 1.3125,1.04688 0.48438,0.6875 0.48438,1.70312 0,1 -0.57813,1.875 -0.57812,0.875 -1.67187,1.35938 -1.09375,0.48437 -2.48438,0.48437 -2.29687,0 -3.5,-0.95312 -1.1875,-0.95313 -1.51562,-2.8125 z"
     fill-rule="nonzero"
     id="path33" />
  <path
     fill="#efefef"
     d="M 735.79175,10 H 853.776 V 89.40158 H 735.79175 Z"
     fill-rule="evenodd"
     id="path35" />
  <path
     fill="#999999"
     d="m 786.09639,57.96079 v -2.26563 h 2.26562 v 2.26563 z m 7.5625,0 v -2.26563 h 2.26562 v 2.26563 z m 7.54687,0 v -2.26563 h 2.26563 v 2.26563 z"
     fill-rule="nonzero"
     id="path37" />
  <path
     fill="#1700b3"
     fill-opacity="0.3333"
     d="m 106.6766,100.73674 h 747.0866 v 79.40157 H 106.6766 Z"
     fill-rule="evenodd"
     id="path39"
     style="fill:#00dac6;fill-opacity:1" />
  <path
     stroke="#ffffff"
     stroke-width="1"
     stroke-linejoin="round"
     stroke-linecap="butt"
     d="m 106.6766,100.73674 h 747.0866 v 79.40157 H 106.6766 Z"
     fill-rule="evenodd"
     id="path41" />
  <path
     fill="#1700b3"
     d="m 247.35585,143.01004 2.15625,0.54687 q -0.67188,2.64063 -2.4375,4.03125 -1.75,1.39063 -4.28125,1.39063 -2.625,0 -4.26563,-1.0625 -1.64062,-1.07813 -2.5,-3.09375 -0.85937,-2.03125 -0.85937,-4.35938 0,-2.53125 0.96875,-4.40625 0.96875,-1.89062 2.75,-2.875 1.79687,-0.98437 3.9375,-0.98437 2.4375,0 4.09375,1.25 1.65625,1.23437 2.3125,3.48437 l -2.10938,0.5 q -0.5625,-1.78125 -1.64062,-2.57812 -1.07813,-0.8125 -2.70313,-0.8125 -1.85937,0 -3.125,0.90625 -1.25,0.89062 -1.76562,2.40625 -0.5,1.5 -0.5,3.10937 0,2.0625 0.59375,3.60938 0.60937,1.53125 1.875,2.29687 1.28125,0.76563 2.76562,0.76563 1.79688,0 3.04688,-1.03125 1.25,-1.04688 1.6875,-3.09375 z m 3.7991,-0.1875 q 0,-3.26563 1.8125,-4.82813 1.51563,-1.3125 3.70313,-1.3125 2.42187,0 3.95312,1.59375 1.54688,1.57813 1.54688,4.375 0,2.28125 -0.6875,3.57813 -0.67188,1.29687 -1.98438,2.01562 -1.29687,0.71875 -2.82812,0.71875 -2.46875,0 -4,-1.57812 -1.51563,-1.57813 -1.51563,-4.5625 z m 2.04688,0 q 0,2.25 0.98437,3.375 0.98438,1.125 2.48438,1.125 1.48437,0 2.46875,-1.125 0.98437,-1.125 0.98437,-3.4375 0,-2.1875 -1,-3.29688 -0.98437,-1.125 -2.45312,-1.125 -1.5,0 -2.48438,1.125 -0.98437,1.10938 -0.98437,3.35938 z m 11.30346,5.875 v -11.75 h 1.78125 v 1.65625 q 0.54688,-0.875 1.46875,-1.39063 0.92188,-0.53125 2.09375,-0.53125 1.29688,0 2.125,0.54688 0.84375,0.53125 1.1875,1.51562 1.39063,-2.0625 3.625,-2.0625 1.75,0 2.6875,0.96875 0.9375,0.96875 0.9375,2.98438 v 8.0625 h -1.96875 v -7.40625 q 0,-1.1875 -0.20312,-1.70313 -0.1875,-0.53125 -0.70313,-0.84375 -0.5,-0.32812 -1.1875,-0.32812 -1.23437,0 -2.0625,0.82812 -0.8125,0.8125 -0.8125,2.625 v 6.82813 h -2 v -7.64063 q 0,-1.3125 -0.48437,-1.96875 -0.48438,-0.67187 -1.59375,-0.67187 -0.84375,0 -1.5625,0.4375 -0.70313,0.4375 -1.03125,1.29687 -0.3125,0.84375 -0.3125,2.45313 v 6.09375 z m 18.87284,0 v -11.75 h 1.78125 v 1.65625 q 0.54687,-0.875 1.46875,-1.39063 0.92187,-0.53125 2.09375,-0.53125 1.29687,0 2.125,0.54688 0.84375,0.53125 1.1875,1.51562 1.39062,-2.0625 3.625,-2.0625 1.75,0 2.6875,0.96875 0.9375,0.96875 0.9375,2.98438 v 8.0625 h -1.96875 v -7.40625 q 0,-1.1875 -0.20313,-1.70313 -0.1875,-0.53125 -0.70312,-0.84375 -0.5,-0.32812 -1.1875,-0.32812 -1.23438,0 -2.0625,0.82812 -0.8125,0.8125 -0.8125,2.625 v 6.82813 h -2 v -7.64063 q 0,-1.3125 -0.48438,-1.96875 -0.48437,-0.67187 -1.59375,-0.67187 -0.84375,0 -1.5625,0.4375 -0.70312,0.4375 -1.03125,1.29687 -0.3125,0.84375 -0.3125,2.45313 v 6.09375 z m 18.12283,-5.875 q 0,-3.26563 1.8125,-4.82813 1.51563,-1.3125 3.70313,-1.3125 2.42187,0 3.95312,1.59375 1.54688,1.57813 1.54688,4.375 0,2.28125 -0.6875,3.57813 -0.67188,1.29687 -1.98438,2.01562 -1.29687,0.71875 -2.82812,0.71875 -2.46875,0 -4,-1.57812 -1.51563,-1.57813 -1.51563,-4.5625 z m 2.04688,0 q 0,2.25 0.98437,3.375 0.98438,1.125 2.48438,1.125 1.48437,0 2.46875,-1.125 0.98437,-1.125 0.98437,-3.4375 0,-2.1875 -1,-3.29688 -0.98437,-1.125 -2.45312,-1.125 -1.5,0 -2.48438,1.125 -0.98437,1.10938 -0.98437,3.35938 z m 11.30343,5.875 v -11.75 h 1.78125 v 1.67187 q 1.29688,-1.9375 3.75,-1.9375 1.0625,0 1.95313,0.39063 0.89062,0.375 1.32812,1 0.4375,0.60937 0.625,1.46875 0.10938,0.54687 0.10938,1.9375 v 7.21875 h -2 v -7.14063 q 0,-1.21875 -0.23438,-1.8125 -0.23437,-0.60937 -0.82812,-0.96875 -0.57813,-0.35937 -1.375,-0.35937 -1.28125,0 -2.20313,0.8125 -0.92187,0.79687 -0.92187,3.04687 v 6.42188 z m 18.89496,0 v -16.21875 h 1.98437 v 5.8125 q 1.39063,-1.60938 3.51563,-1.60938 1.3125,0 2.26562,0.51563 0.96875,0.51562 1.375,1.42187 0.42188,0.90625 0.42188,2.64063 v 7.4375 h -1.98438 v -7.4375 q 0,-1.5 -0.65625,-2.17188 -0.64062,-0.6875 -1.82812,-0.6875 -0.89063,0 -1.67188,0.46875 -0.76562,0.45313 -1.10937,1.23438 -0.32813,0.78125 -0.32813,2.17187 v 6.42188 z m 12.60034,-13.92188 v -2.29687 h 2 v 2.29687 z m 0,13.92188 v -11.75 h 2 v 11.75 z m 4.65848,0.96875 1.9375,0.29687 q 0.125,0.89063 0.67187,1.29688 0.75,0.5625 2.03125,0.5625 1.375,0 2.125,-0.5625 0.76563,-0.54688 1.03125,-1.54688 0.15625,-0.60937 0.14063,-2.54687 -1.3125,1.53125 -3.25,1.53125 -2.42188,0 -3.75,-1.75 -1.32813,-1.75 -1.32813,-4.1875 0,-1.6875 0.60938,-3.10938 0.60937,-1.42187 1.76562,-2.1875 1.15625,-0.78125 2.70313,-0.78125 2.09375,0 3.4375,1.6875 v -1.42187 h 1.82812 v 10.15625 q 0,2.75 -0.5625,3.89062 -0.54687,1.14063 -1.76562,1.79688 -1.20313,0.67187 -2.96875,0.67187 -2.10938,0 -3.40625,-0.95312 -1.29688,-0.9375 -1.25,-2.84375 z m 1.65625,-7.04688 q 0,2.3125 0.90625,3.375 0.92187,1.0625 2.3125,1.0625 1.375,0 2.29687,-1.0625 0.92188,-1.0625 0.92188,-3.3125 0,-2.15625 -0.95313,-3.25 -0.95312,-1.09375 -2.29687,-1.09375 -1.32813,0 -2.26563,1.07813 -0.92187,1.07812 -0.92187,3.20312 z m 11.31909,6.07813 v -16.21875 h 1.98438 v 5.8125 q 1.39062,-1.60938 3.51562,-1.60938 1.3125,0 2.26563,0.51563 0.96875,0.51562 1.375,1.42187 0.42187,0.90625 0.42187,2.64063 v 7.4375 h -1.98437 v -7.4375 q 0,-1.5 -0.65625,-2.17188 -0.64063,-0.6875 -1.82813,-0.6875 -0.89062,0 -1.67187,0.46875 -0.76563,0.45313 -1.10938,1.23438 -0.32812,0.78125 -0.32812,2.17187 v 6.42188 z m 11.81909,-4.875 v -2 h 6.125 v 2 z m 8.27906,4.875 v -16.21875 h 1.98437 v 16.21875 z m 13.11163,-3.78125 2.0625,0.25 q -0.48438,1.8125 -1.8125,2.8125 -1.3125,0.98437 -3.35938,0.98437 -2.57812,0 -4.09375,-1.57812 -1.5,-1.59375 -1.5,-4.46875 0,-2.95313 1.53125,-4.59375 1.53125,-1.64063 3.95313,-1.64063 2.35937,0 3.84375,1.60938 1.5,1.59375 1.5,4.51562 0,0.17188 0,0.53125 h -8.76563 q 0.10938,1.9375 1.09375,2.96875 0.98438,1.01563 2.45313,1.01563 1.09375,0 1.85937,-0.5625 0.78125,-0.57813 1.23438,-1.84375 z m -6.53125,-3.21875 h 6.5625 q -0.14063,-1.48438 -0.75,-2.21875 -0.95313,-1.15625 -2.46875,-1.15625 -1.375,0 -2.3125,0.92187 -0.9375,0.90625 -1.03125,2.45313 z m 14.35034,7 -4.46875,-11.75 h 2.10938 l 2.51562,7.03125 q 0.42188,1.14062 0.76563,2.375 0.25,-0.9375 0.73437,-2.23438 l 2.60938,-7.17187 h 2.04687 l -4.45312,11.75 z m 16.10938,-3.78125 2.0625,0.25 q -0.48438,1.8125 -1.8125,2.8125 -1.3125,0.98437 -3.35938,0.98437 -2.57812,0 -4.09375,-1.57812 -1.5,-1.59375 -1.5,-4.46875 0,-2.95313 1.53125,-4.59375 1.53125,-1.64063 3.95313,-1.64063 2.35937,0 3.84375,1.60938 1.5,1.59375 1.5,4.51562 0,0.17188 0,0.53125 h -8.76563 q 0.10938,1.9375 1.09375,2.96875 0.98438,1.01563 2.45313,1.01563 1.09375,0 1.85937,-0.5625 0.78125,-0.57813 1.23438,-1.84375 z m -6.53125,-3.21875 h 6.5625 q -0.14063,-1.48438 -0.75,-2.21875 -0.95313,-1.15625 -2.46875,-1.15625 -1.375,0 -2.3125,0.92187 -0.9375,0.90625 -1.03125,2.45313 z m 11.05343,7 v -16.21875 h 1.98438 v 16.21875 z m 19.03125,-4.29688 1.96875,0.25 q -0.32812,2.01563 -1.65625,3.17188 -1.3125,1.14062 -3.23437,1.14062 -2.42188,0 -3.89063,-1.57812 -1.45312,-1.57813 -1.45312,-4.51563 0,-1.90625 0.625,-3.32812 0.625,-1.4375 1.90625,-2.14063 1.29687,-0.71875 2.8125,-0.71875 1.92187,0 3.14062,0.96875 1.21875,0.96875 1.5625,2.75 l -1.9375,0.29688 q -0.28125,-1.1875 -0.98437,-1.78125 -0.70313,-0.59375 -1.70313,-0.59375 -1.5,0 -2.4375,1.07812 -0.9375,1.07813 -0.9375,3.40625 0,2.375 0.90625,3.45313 0.90625,1.0625 2.35938,1.0625 1.17187,0 1.95312,-0.71875 0.79688,-0.71875 1,-2.20313 z m 2.92188,-1.57812 q 0,-3.26563 1.8125,-4.82813 1.51562,-1.3125 3.70312,-1.3125 2.42188,0 3.95313,1.59375 1.54687,1.57813 1.54687,4.375 0,2.28125 -0.6875,3.57813 -0.67187,1.29687 -1.98437,2.01562 -1.29688,0.71875 -2.82813,0.71875 -2.46875,0 -4,-1.57812 -1.51562,-1.57813 -1.51562,-4.5625 z m 2.04687,0 q 0,2.25 0.98438,3.375 0.98437,1.125 2.48437,1.125 1.48438,0 2.46875,-1.125 0.98438,-1.125 0.98438,-3.4375 0,-2.1875 -1,-3.29688 -0.98438,-1.125 -2.45313,-1.125 -1.5,0 -2.48437,1.125 -0.98438,1.10938 -0.98438,3.35938 z m 11.30344,5.875 v -11.75 h 1.78125 v 1.65625 q 0.54687,-0.875 1.46875,-1.39063 0.92187,-0.53125 2.09375,-0.53125 1.29687,0 2.125,0.54688 0.84375,0.53125 1.1875,1.51562 1.39062,-2.0625 3.625,-2.0625 1.75,0 2.6875,0.96875 0.9375,0.96875 0.9375,2.98438 v 8.0625 h -1.96875 v -7.40625 q 0,-1.1875 -0.20313,-1.70313 -0.1875,-0.53125 -0.70312,-0.84375 -0.5,-0.32812 -1.1875,-0.32812 -1.23438,0 -2.0625,0.82812 -0.8125,0.8125 -0.8125,2.625 v 6.82813 h -2 v -7.64063 q 0,-1.3125 -0.48438,-1.96875 -0.48437,-0.67187 -1.59375,-0.67187 -0.84375,0 -1.5625,0.4375 -0.70312,0.4375 -1.03125,1.29687 -0.3125,0.84375 -0.3125,2.45313 v 6.09375 z m 18.87286,0 v -11.75 h 1.78125 v 1.65625 q 0.54688,-0.875 1.46875,-1.39063 0.92188,-0.53125 2.09375,-0.53125 1.29688,0 2.12497,0.54688 0.84375,0.53125 1.1875,1.51562 1.39063,-2.0625 3.625,-2.0625 1.75,0 2.6875,0.96875 0.9375,0.96875 0.9375,2.98438 v 8.0625 h -1.96875 v -7.40625 q 0,-1.1875 -0.20312,-1.70313 -0.1875,-0.53125 -0.70313,-0.84375 -0.5,-0.32812 -1.1875,-0.32812 -1.23437,0 -2.0625,0.82812 -0.8125,0.8125 -0.8125,2.625 v 6.82813 h -2 v -7.64063 q 0,-1.3125 -0.48434,-1.96875 -0.48438,-0.67187 -1.59375,-0.67187 -0.84375,0 -1.5625,0.4375 -0.70313,0.4375 -1.03125,1.29687 -0.3125,0.84375 -0.3125,2.45313 v 6.09375 z m 26.56034,0 v -1.71875 q -1.35938,1.98437 -3.71875,1.98437 -1.04688,0 -1.95313,-0.39062 -0.89062,-0.40625 -1.32812,-1 -0.4375,-0.60938 -0.60938,-1.48438 -0.125,-0.59375 -0.125,-1.85937 v -7.28125 h 1.98438 v 6.51562 q 0,1.5625 0.125,2.10938 0.1875,0.78125 0.79687,1.23437 0.60938,0.4375 1.5,0.4375 0.90625,0 1.6875,-0.45312 0.78125,-0.46875 1.10938,-1.25 0.32812,-0.79688 0.32812,-2.29688 v -6.29687 h 1.98438 v 11.75 z m 4.91284,0 v -11.75 h 1.78125 v 1.67187 q 1.29687,-1.9375 3.75,-1.9375 1.0625,0 1.95312,0.39063 0.89063,0.375 1.32813,1 0.4375,0.60937 0.625,1.46875 0.10937,0.54687 0.10937,1.9375 v 7.21875 h -2 v -7.14063 q 0,-1.21875 -0.23437,-1.8125 -0.23438,-0.60937 -0.82813,-0.96875 -0.57812,-0.35937 -1.375,-0.35937 -1.28125,0 -2.20312,0.8125 -0.92188,0.79687 -0.92188,3.04687 v 6.42188 z m 12.60034,-13.92188 v -2.29687 h 2 v 2.29687 z m 0,13.92188 v -11.75 h 2 v 11.75 z m 12.68976,-4.29688 1.96875,0.25 q -0.32813,2.01563 -1.65625,3.17188 -1.3125,1.14062 -3.23438,1.14062 -2.42187,0 -3.89062,-1.57812 -1.45313,-1.57813 -1.45313,-4.51563 0,-1.90625 0.625,-3.32812 0.625,-1.4375 1.90625,-2.14063 1.29688,-0.71875 2.8125,-0.71875 1.92188,0 3.14063,0.96875 1.21875,0.96875 1.5625,2.75 l -1.9375,0.29688 q -0.28125,-1.1875 -0.98438,-1.78125 -0.70312,-0.59375 -1.70312,-0.59375 -1.5,0 -2.4375,1.07812 -0.9375,1.07813 -0.9375,3.40625 0,2.375 0.90625,3.45313 0.90625,1.0625 2.35937,1.0625 1.17188,0 1.95313,-0.71875 0.79687,-0.71875 1,-2.20313 z m 11.32812,2.84375 q -1.10937,0.9375 -2.14062,1.32813 -1.01563,0.39062 -2.1875,0.39062 -1.9375,0 -2.98438,-0.9375 -1.03125,-0.95312 -1.03125,-2.42187 0,-0.85938 0.39063,-1.57813 0.40625,-0.71875 1.03125,-1.14062 0.64062,-0.4375 1.4375,-0.65625 0.59375,-0.15625 1.76562,-0.29688 2.42188,-0.29687 3.5625,-0.6875 0,-0.40625 0,-0.51562 0,-1.21875 -0.5625,-1.71875 -0.76562,-0.67188 -2.26562,-0.67188 -1.40625,0 -2.07813,0.5 -0.67187,0.48438 -0.98437,1.73438 l -1.95313,-0.26563 q 0.26563,-1.25 0.875,-2.01562 0.60938,-0.78125 1.75,-1.1875 1.15625,-0.42188 2.67188,-0.42188 1.51562,0 2.45312,0.35938 0.9375,0.34375 1.375,0.89062 0.45313,0.53125 0.625,1.34375 0.0937,0.51563 0.0937,1.84375 v 2.65625 q 0,2.78125 0.125,3.51563 0.14063,0.73437 0.51563,1.40625 h -2.07813 q -0.3125,-0.625 -0.40625,-1.45313 z m -0.15625,-4.4375 q -1.09375,0.4375 -3.26562,0.75 -1.21875,0.17188 -1.73438,0.39063 -0.5,0.21875 -0.78125,0.65625 -0.28125,0.42187 -0.28125,0.9375 0,0.79687 0.60938,1.32812 0.60937,0.53125 1.76562,0.53125 1.14063,0 2.03125,-0.5 0.90625,-0.5 1.32813,-1.375 0.32812,-0.67187 0.32812,-2 z m 9.44409,4.10938 0.28125,1.76562 q -0.84375,0.17188 -1.5,0.17188 -1.07812,0 -1.6875,-0.34375 -0.59375,-0.34375 -0.84375,-0.89063 -0.23437,-0.5625 -0.23437,-2.35937 v -6.76563 h -1.46875 v -1.54687 h 1.46875 v -2.90625 l 1.98437,-1.20313 v 4.10938 h 2 v 1.54687 h -2 v 6.875 q 0,0.84375 0.0937,1.09375 0.10938,0.25 0.34375,0.39063 0.25,0.14062 0.6875,0.14062 0.32813,0 0.875,-0.0781 z m 1.95087,-12.14063 v -2.29687 h 2 v 2.29687 z m 0,13.92188 v -11.75 h 2 v 11.75 z m 4.28351,-5.875 q 0,-3.26563 1.8125,-4.82813 1.51562,-1.3125 3.70312,-1.3125 2.42188,0 3.95313,1.59375 1.54687,1.57813 1.54687,4.375 0,2.28125 -0.6875,3.57813 -0.67187,1.29687 -1.98437,2.01562 -1.29688,0.71875 -2.82813,0.71875 -2.46875,0 -4,-1.57812 -1.51562,-1.57813 -1.51562,-4.5625 z m 2.04687,0 q 0,2.25 0.98438,3.375 0.98437,1.125 2.48437,1.125 1.48438,0 2.46875,-1.125 0.98438,-1.125 0.98438,-3.4375 0,-2.1875 -1,-3.29688 -0.98438,-1.125 -2.45313,-1.125 -1.5,0 -2.48437,1.125 -0.98438,1.10938 -0.98438,3.35938 z m 11.30347,5.875 v -11.75 h 1.78125 v 1.67187 q 1.29688,-1.9375 3.75,-1.9375 1.0625,0 1.95313,0.39063 0.89062,0.375 1.32812,1 0.4375,0.60937 0.625,1.46875 0.10938,0.54687 0.10938,1.9375 v 7.21875 h -2 v -7.14063 q 0,-1.21875 -0.23438,-1.8125 -0.23437,-0.60937 -0.82812,-0.96875 -0.57813,-0.35937 -1.375,-0.35937 -1.28125,0 -2.20313,0.8125 -0.92187,0.79687 -0.92187,3.04687 v 6.42188 z m 18.86371,0 v -11.75 h 1.79687 v 1.78125 q 0.6875,-1.25 1.26563,-1.64063 0.57812,-0.40625 1.28125,-0.40625 1,0 2.04687,0.64063 l -0.6875,1.84375 q -0.73437,-0.42188 -1.46875,-0.42188 -0.64062,0 -1.17187,0.39063 -0.51563,0.39062 -0.73438,1.09375 -0.32812,1.0625 -0.32812,2.3125 v 6.15625 z m 15.60718,-3.78125 2.0625,0.25 q -0.48438,1.8125 -1.8125,2.8125 -1.3125,0.98437 -3.35938,0.98437 -2.57812,0 -4.09375,-1.57812 -1.5,-1.59375 -1.5,-4.46875 0,-2.95313 1.53125,-4.59375 1.53125,-1.64063 3.95313,-1.64063 2.35937,0 3.84375,1.60938 1.5,1.59375 1.5,4.51562 0,0.17188 0,0.53125 h -8.76563 q 0.10938,1.9375 1.09375,2.96875 0.98438,1.01563 2.45313,1.01563 1.09375,0 1.85937,-0.5625 0.78125,-0.57813 1.23438,-1.84375 z m -6.53125,-3.21875 h 6.5625 q -0.14063,-1.48438 -0.75,-2.21875 -0.95313,-1.15625 -2.46875,-1.15625 -1.375,0 -2.3125,0.92187 -0.9375,0.90625 -1.03125,2.45313 z m 18.58465,11.5 v -5.75 q -0.46875,0.65625 -1.3125,1.09375 -0.82812,0.42187 -1.76562,0.42187 -2.09369,0 -3.60932,-1.67187 -1.5,-1.67188 -1.5,-4.57813 0,-1.76562 0.60938,-3.17187 0.625,-1.40625 1.78125,-2.125 1.17181,-0.73438 2.56244,-0.73438 2.1875,0 3.4375,1.84375 v -1.57812 h 1.78125 v 16.25 z m -6.14056,-10.40625 q 0,2.26562 0.95312,3.40625 0.95307,1.125 2.28119,1.125 1.26563,0 2.1875,-1.07813 0.92188,-1.07812 0.92188,-3.28125 0,-2.34375 -0.96875,-3.51562 -0.96875,-1.1875 -2.28125,-1.1875 -1.29688,0 -2.20307,1.10937 -0.89062,1.09375 -0.89062,3.42188 z m 18.94403,5.90625 v -1.71875 q -1.35938,1.98437 -3.71875,1.98437 -1.04688,0 -1.95313,-0.39062 -0.89062,-0.40625 -1.32812,-1 -0.4375,-0.60938 -0.60938,-1.48438 -0.125,-0.59375 -0.125,-1.85937 v -7.28125 h 1.98438 v 6.51562 q 0,1.5625 0.125,2.10938 0.1875,0.78125 0.79687,1.23437 0.60938,0.4375 1.5,0.4375 0.90625,0 1.6875,-0.45312 0.78125,-0.46875 1.10938,-1.25 0.32812,-0.79688 0.32812,-2.29688 v -6.29687 h 1.98438 v 11.75 z m 4.91284,-13.92188 v -2.29687 h 2 v 2.29687 z m 0,13.92188 v -11.75 h 2 v 11.75 z m 5.00232,0 v -11.75 h 1.79688 v 1.78125 q 0.6875,-1.25 1.26562,-1.64063 0.57813,-0.40625 1.28125,-0.40625 1,0 2.04688,0.64063 l -0.6875,1.84375 q -0.73438,-0.42188 -1.46875,-0.42188 -0.64063,0 -1.17188,0.39063 -0.51562,0.39062 -0.73437,1.09375 -0.32813,1.0625 -0.32813,2.3125 v 6.15625 z m 15.60718,-3.78125 2.0625,0.25 q -0.48438,1.8125 -1.8125,2.8125 -1.3125,0.98437 -3.35938,0.98437 -2.57812,0 -4.09375,-1.57812 -1.5,-1.59375 -1.5,-4.46875 0,-2.95313 1.53125,-4.59375 1.53125,-1.64063 3.95313,-1.64063 2.35937,0 3.84375,1.60938 1.5,1.59375 1.5,4.51562 0,0.17188 0,0.53125 h -8.76563 q 0.10938,1.9375 1.09375,2.96875 0.98438,1.01563 2.45313,1.01563 1.09375,0 1.85937,-0.5625 0.78125,-0.57813 1.23438,-1.84375 z m -6.53125,-3.21875 h 6.5625 q -0.14063,-1.48438 -0.75,-2.21875 -0.95313,-1.15625 -2.46875,-1.15625 -1.375,0 -2.3125,0.92187 -0.9375,0.90625 -1.03125,2.45313 z m 11.10034,7 v -11.75 h 1.78125 v 1.65625 q 0.54688,-0.875 1.46875,-1.39063 0.92188,-0.53125 2.09375,-0.53125 1.29688,0 2.125,0.54688 0.84375,0.53125 1.1875,1.51562 1.39063,-2.0625 3.625,-2.0625 1.75,0 2.6875,0.96875 0.9375,0.96875 0.9375,2.98438 v 8.0625 h -1.96875 v -7.40625 q 0,-1.1875 -0.20312,-1.70313 -0.1875,-0.53125 -0.70313,-0.84375 -0.5,-0.32812 -1.1875,-0.32812 -1.23437,0 -2.0625,0.82812 -0.8125,0.8125 -0.8125,2.625 v 6.82813 h -2 v -7.64063 q 0,-1.3125 -0.48437,-1.96875 -0.48438,-0.67187 -1.59375,-0.67187 -0.84375,0 -1.5625,0.4375 -0.70313,0.4375 -1.03125,1.29687 -0.3125,0.84375 -0.3125,2.45313 v 6.09375 z m 26.90405,-3.78125 2.0625,0.25 q -0.48437,1.8125 -1.8125,2.8125 -1.3125,0.98437 -3.35937,0.98437 -2.57813,0 -4.09375,-1.57812 -1.5,-1.59375 -1.5,-4.46875 0,-2.95313 1.53125,-4.59375 1.53125,-1.64063 3.95312,-1.64063 2.35938,0 3.84375,1.60938 1.5,1.59375 1.5,4.51562 0,0.17188 0,0.53125 h -8.76562 q 0.10937,1.9375 1.09375,2.96875 0.98437,1.01563 2.45312,1.01563 1.09375,0 1.85938,-0.5625 0.78125,-0.57813 1.23437,-1.84375 z m -6.53125,-3.21875 h 6.5625 q -0.14062,-1.48438 -0.75,-2.21875 -0.95312,-1.15625 -2.46875,-1.15625 -1.375,0 -2.3125,0.92187 -0.9375,0.90625 -1.03125,2.45313 z m 11.10035,7 v -11.75 h 1.78125 v 1.67187 q 1.29687,-1.9375 3.75,-1.9375 1.0625,0 1.95312,0.39063 0.89063,0.375 1.32813,1 0.4375,0.60937 0.625,1.46875 0.10937,0.54687 0.10937,1.9375 v 7.21875 h -2 v -7.14063 q 0,-1.21875 -0.23437,-1.8125 -0.23438,-0.60937 -0.82813,-0.96875 -0.57812,-0.35937 -1.375,-0.35937 -1.28125,0 -2.20312,0.8125 -0.92188,0.79687 -0.92188,3.04687 v 6.42188 z m 16.94409,-1.78125 0.28125,1.76562 q -0.84375,0.17188 -1.5,0.17188 -1.07813,0 -1.6875,-0.34375 -0.59375,-0.34375 -0.84375,-0.89063 -0.23438,-0.5625 -0.23438,-2.35937 v -6.76563 h -1.46875 v -1.54687 h 1.46875 v -2.90625 l 1.98438,-1.20313 v 4.10938 h 2 v 1.54687 h -2 v 6.875 q 0,0.84375 0.0937,1.09375 0.10937,0.25 0.34375,0.39063 0.25,0.14062 0.6875,0.14062 0.32812,0 0.875,-0.0781 z m 1.15393,-1.71875 1.96875,-0.3125 q 0.15625,1.17187 0.90625,1.8125 0.76562,0.625 2.125,0.625 1.375,0 2.03125,-0.54688 0.67187,-0.5625 0.67187,-1.3125 0,-0.6875 -0.57812,-1.0625 -0.42188,-0.26562 -2.04688,-0.6875 -2.1875,-0.54687 -3.03125,-0.95312 -0.84375,-0.40625 -1.28125,-1.10938 -0.4375,-0.71875 -0.4375,-1.57812 0,-0.79688 0.35938,-1.45313 0.35937,-0.67187 0.98437,-1.125 0.45313,-0.32812 1.25,-0.5625 0.8125,-0.25 1.73438,-0.25 1.375,0 2.42187,0.40625 1.04688,0.39063 1.54688,1.07813 0.5,0.67187 0.6875,1.8125 l -1.95313,0.26562 q -0.125,-0.90625 -0.76562,-1.40625 -0.64063,-0.51562 -1.79688,-0.51562 -1.375,0 -1.96875,0.45312 -0.57812,0.45313 -0.57812,1.0625 0,0.39063 0.25,0.6875 0.23437,0.32813 0.75,0.53125 0.3125,0.125 1.76562,0.51563 2.10938,0.5625 2.9375,0.92187 0.84375,0.35938 1.3125,1.04688 0.48438,0.6875 0.48438,1.70312 0,1 -0.57813,1.875 -0.57812,0.875 -1.67187,1.35938 -1.09375,0.48437 -2.48438,0.48437 -2.29687,0 -3.5,-0.95312 -1.1875,-0.95313 -1.51562,-2.8125 z"
     fill-rule="nonzero"
     id="path43"
     style="fill:#170000;fill-opacity:1" />
  <path
     fill="#1700b3"
     fill-opacity="0.3333"
     d="m 106.6766,191.47223 h 141.85826 v 79.40158 H 106.6766 Z"
     fill-rule="evenodd"
     id="path45"
     style="fill:#00dac6;fill-opacity:1" />
  <path
     stroke="#ffffff"
     stroke-width="1"
     stroke-linejoin="round"
     stroke-linecap="butt"
     d="m 106.6766,191.47223 h 141.85826 v 79.40158 H 106.6766 Z"
     fill-rule="evenodd"
     id="path47" />
  <path
     fill="#1700b3"
     d="m 136.57921,239.43302 v -16.21875 h 11.71875 v 1.92187 h -9.57813 v 4.95313 h 8.96875 v 1.90625 h -8.96875 v 5.53125 h 9.95313 v 1.90625 z m 19.15842,-1.78125 0.28125,1.76562 q -0.84375,0.17188 -1.5,0.17188 -1.07813,0 -1.6875,-0.34375 -0.59375,-0.34375 -0.84375,-0.89063 -0.23438,-0.5625 -0.23438,-2.35937 v -6.76563 h -1.46875 v -1.54687 h 1.46875 v -2.90625 l 1.98438,-1.20313 v 4.10938 h 2 v 1.54687 h -2 v 6.875 q 0,0.84375 0.0937,1.09375 0.10937,0.25 0.34375,0.39063 0.25,0.14062 0.6875,0.14062 0.32812,0 0.875,-0.0781 z m 1.95088,1.78125 v -16.21875 h 1.98437 v 5.8125 q 1.39063,-1.60938 3.51563,-1.60938 1.3125,0 2.26562,0.51563 0.96875,0.51562 1.375,1.42187 0.42188,0.90625 0.42188,2.64063 v 7.4375 h -1.98438 v -7.4375 q 0,-1.5 -0.65625,-2.17188 -0.64062,-0.6875 -1.82812,-0.6875 -0.89063,0 -1.67188,0.46875 -0.76562,0.45313 -1.10937,1.23438 -0.32813,0.78125 -0.32813,2.17187 v 6.42188 z m 20.63158,-3.78125 2.0625,0.25 q -0.48438,1.8125 -1.8125,2.8125 -1.3125,0.98437 -3.35938,0.98437 -2.57812,0 -4.09375,-1.57812 -1.5,-1.59375 -1.5,-4.46875 0,-2.95313 1.53125,-4.59375 1.53125,-1.64063 3.95313,-1.64063 2.35937,0 3.84375,1.60938 1.5,1.59375 1.5,4.51562 0,0.17188 0,0.53125 h -8.76563 q 0.10938,1.9375 1.09375,2.96875 0.98438,1.01563 2.45313,1.01563 1.09375,0 1.85937,-0.5625 0.78125,-0.57813 1.23438,-1.84375 z m -6.53125,-3.21875 h 6.5625 q -0.14063,-1.48438 -0.75,-2.21875 -0.95313,-1.15625 -2.46875,-1.15625 -1.375,0 -2.3125,0.92187 -0.9375,0.90625 -1.03125,2.45313 z m 11.06907,7 v -11.75 h 1.79688 v 1.78125 q 0.6875,-1.25 1.26562,-1.64063 0.57813,-0.40625 1.28125,-0.40625 1,0 2.04688,0.64063 l -0.6875,1.84375 q -0.73438,-0.42188 -1.46875,-0.42188 -0.64063,0 -1.17188,0.39063 -0.51562,0.39062 -0.73437,1.09375 -0.32813,1.0625 -0.32813,2.3125 v 6.15625 z m 7.57596,0 v -11.75 h 1.78125 v 1.67187 q 1.29688,-1.9375 3.75,-1.9375 1.0625,0 1.95313,0.39063 0.89062,0.375 1.32812,1 0.4375,0.60937 0.625,1.46875 0.10938,0.54687 0.10938,1.9375 v 7.21875 h -2 v -7.14063 q 0,-1.21875 -0.23438,-1.8125 -0.23437,-0.60937 -0.82812,-0.96875 -0.57813,-0.35937 -1.375,-0.35937 -1.28125,0 -2.20313,0.8125 -0.92187,0.79687 -0.92187,3.04687 v 6.42188 z m 20.63158,-3.78125 2.0625,0.25 q -0.48438,1.8125 -1.8125,2.8125 -1.3125,0.98437 -3.35938,0.98437 -2.57812,0 -4.09375,-1.57812 -1.5,-1.59375 -1.5,-4.46875 0,-2.95313 1.53125,-4.59375 1.53125,-1.64063 3.95313,-1.64063 2.35937,0 3.84375,1.60938 1.5,1.59375 1.5,4.51562 0,0.17188 0,0.53125 h -8.76563 q 0.10938,1.9375 1.09375,2.96875 0.98438,1.01563 2.45313,1.01563 1.09375,0 1.85937,-0.5625 0.78125,-0.57813 1.23438,-1.84375 z m -6.53125,-3.21875 h 6.5625 q -0.14063,-1.48438 -0.75,-2.21875 -0.95313,-1.15625 -2.46875,-1.15625 -1.375,0 -2.3125,0.92187 -0.9375,0.90625 -1.03125,2.45313 z m 15.44408,5.21875 0.28125,1.76562 q -0.84375,0.17188 -1.5,0.17188 -1.07813,0 -1.6875,-0.34375 -0.59375,-0.34375 -0.84375,-0.89063 -0.23438,-0.5625 -0.23438,-2.35937 v -6.76563 h -1.46875 v -1.54687 h 1.46875 v -2.90625 l 1.98438,-1.20313 v 4.10938 h 2 v 1.54687 h -2 v 6.875 q 0,0.84375 0.0937,1.09375 0.10937,0.25 0.34375,0.39063 0.25,0.14062 0.6875,0.14062 0.32812,0 0.875,-0.0781 z"
     fill-rule="nonzero"
     id="path49"
     style="fill:#170000;fill-opacity:1" />
  <path
     fill="#1700b3"
     fill-opacity="0.3333"
     d="M 257.98385,191.47223 H 399.8421 v 79.40158 H 257.98385 Z"
     fill-rule="evenodd"
     id="path51"
     style="fill:#00dac6;fill-opacity:1" />
  <path
     stroke="#ffffff"
     stroke-width="1"
     stroke-linejoin="round"
     stroke-linecap="butt"
     d="M 257.98385,191.47223 H 399.8421 v 79.40158 H 257.98385 Z"
     fill-rule="evenodd"
     id="path53" />
  <path
     fill="#1700b3"
     d="m 318.30805,233.74552 2.15625,0.54687 q -0.67188,2.64063 -2.4375,4.03125 -1.75,1.39063 -4.28125,1.39063 -2.625,0 -4.26563,-1.0625 -1.64062,-1.07813 -2.5,-3.09375 -0.85937,-2.03125 -0.85937,-4.35938 0,-2.53125 0.96875,-4.40625 0.96875,-1.89062 2.75,-2.875 1.79687,-0.98437 3.9375,-0.98437 2.4375,0 4.09375,1.25 1.65625,1.23437 2.3125,3.48437 l -2.10938,0.5 q -0.5625,-1.78125 -1.64062,-2.57812 -1.07813,-0.8125 -2.70313,-0.8125 -1.85937,0 -3.125,0.90625 -1.25,0.89062 -1.76562,2.40625 -0.5,1.5 -0.5,3.10937 0,2.0625 0.59375,3.60938 0.60937,1.53125 1.875,2.29687 1.28125,0.76563 2.76562,0.76563 1.79688,0 3.04688,-1.03125 1.25,-1.04688 1.6875,-3.09375 z m 3.01788,5.6875 6.21875,-16.21875 h 2.3125 l 6.64063,16.21875 h -2.4375 l -1.89063,-4.90625 h -6.78125 l -1.78125,4.90625 z m 4.67188,-6.65625 h 5.5 l -1.6875,-4.5 q -0.78125,-2.04688 -1.15625,-3.35938 -0.3125,1.5625 -0.875,3.09375 z m 12.18967,6.65625 v -16.21875 h 2.20312 l 8.53125,12.73437 v -12.73437 h 2.04688 v 16.21875 h -2.20313 l -8.51562,-12.75 v 12.75 z"
     fill-rule="nonzero"
     id="path55"
     style="fill:#170000;fill-opacity:1" />
  <path
     fill="#1700b3"
     fill-opacity="0.3333"
     d="m 409.29103,191.47223 h 141.85828 v 79.40158 H 409.29103 Z"
     fill-rule="evenodd"
     id="path57"
     style="fill:#00dac6;fill-opacity:1" />
  <path
     stroke="#ffffff"
     stroke-width="1"
     stroke-linejoin="round"
     stroke-linecap="butt"
     d="m 409.29103,191.47223 h 141.85828 v 79.40158 H 409.29103 Z"
     fill-rule="evenodd"
     id="path59" />
  <path
     fill="#1700b3"
     d="m 441.37195,239.43302 -4.29687,-16.21875 h 2.20312 l 2.45313,10.625 q 0.40625,1.67187 0.6875,3.32812 0.625,-2.60937 0.73437,-3 l 3.09375,-10.95312 h 2.57813 l 2.32812,8.20312 q 0.875,3.0625 1.26563,5.75 0.3125,-1.54687 0.79687,-3.53125 l 2.54688,-10.42187 h 2.15625 l -4.4375,16.21875 h -2.07813 l -3.40625,-12.35938 q -0.4375,-1.54687 -0.51562,-1.90625 -0.25,1.125 -0.48438,1.90625 l -3.4375,12.35938 z m 18.30594,-13.92188 v -2.29687 h 2 v 2.29687 z m 0,13.92188 v -11.75 h 2 v 11.75 z m 5.00223,0 v -11.75 h 1.79687 v 1.78125 q 0.6875,-1.25 1.26563,-1.64063 0.57812,-0.40625 1.28125,-0.40625 1,0 2.04687,0.64063 l -0.6875,1.84375 q -0.73437,-0.42188 -1.46875,-0.42188 -0.64062,0 -1.17187,0.39063 -0.51563,0.39062 -0.73438,1.09375 -0.32812,1.0625 -0.32812,2.3125 v 6.15625 z m 15.60721,-3.78125 2.0625,0.25 q -0.48438,1.8125 -1.8125,2.8125 -1.3125,0.98437 -3.35938,0.98437 -2.57812,0 -4.09375,-1.57812 -1.5,-1.59375 -1.5,-4.46875 0,-2.95313 1.53125,-4.59375 1.53125,-1.64063 3.95313,-1.64063 2.35937,0 3.84375,1.60938 1.5,1.59375 1.5,4.51562 0,0.17188 0,0.53125 h -8.76563 q 0.10938,1.9375 1.09375,2.96875 0.98438,1.01563 2.45313,1.01563 1.09375,0 1.85937,-0.5625 0.78125,-0.57813 1.23438,-1.84375 z m -6.53125,-3.21875 h 6.5625 q -0.14063,-1.48438 -0.75,-2.21875 -0.95313,-1.15625 -2.46875,-1.15625 -1.375,0 -2.3125,0.92187 -0.9375,0.90625 -1.03125,2.45313 z m 11.05346,7 v -16.21875 h 1.98435 v 16.21875 z m 13.11161,-3.78125 2.0625,0.25 q -0.48438,1.8125 -1.8125,2.8125 -1.3125,0.98437 -3.35938,0.98437 -2.57812,0 -4.09375,-1.57812 -1.5,-1.59375 -1.5,-4.46875 0,-2.95313 1.53125,-4.59375 1.53125,-1.64063 3.95313,-1.64063 2.35937,0 3.84375,1.60938 1.5,1.59375 1.5,4.51562 0,0.17188 0,0.53125 h -8.76563 q 0.10938,1.9375 1.09375,2.96875 0.98438,1.01563 2.45313,1.01563 1.09375,0 1.85937,-0.5625 0.78125,-0.57813 1.23438,-1.84375 z m -6.53125,-3.21875 h 6.5625 q -0.14063,-1.48438 -0.75,-2.21875 -0.95313,-1.15625 -2.46875,-1.15625 -1.375,0 -2.3125,0.92187 -0.9375,0.90625 -1.03125,2.45313 z m 10.30346,3.5 1.96875,-0.3125 q 0.15625,1.17187 0.90625,1.8125 0.76563,0.625 2.125,0.625 1.375,0 2.03125,-0.54688 0.67188,-0.5625 0.67188,-1.3125 0,-0.6875 -0.57813,-1.0625 -0.42187,-0.26562 -2.04687,-0.6875 -2.1875,-0.54687 -3.03125,-0.95312 -0.84375,-0.40625 -1.28125,-1.10938 -0.4375,-0.71875 -0.4375,-1.57812 0,-0.79688 0.35937,-1.45313 0.35938,-0.67187 0.98438,-1.125 0.45312,-0.32812 1.25,-0.5625 0.8125,-0.25 1.73437,-0.25 1.375,0 2.42188,0.40625 1.04687,0.39063 1.54687,1.07813 0.5,0.67187 0.6875,1.8125 l -1.95312,0.26562 q -0.125,-0.90625 -0.76563,-1.40625 -0.64062,-0.51562 -1.79687,-0.51562 -1.375,0 -1.96875,0.45312 -0.57813,0.45313 -0.57813,1.0625 0,0.39063 0.25,0.6875 0.23438,0.32813 0.75,0.53125 0.3125,0.125 1.76563,0.51563 2.10937,0.5625 2.9375,0.92187 0.84375,0.35938 1.3125,1.04688 0.48437,0.6875 0.48437,1.70312 0,1 -0.57812,1.875 -0.57813,0.875 -1.67188,1.35938 -1.09375,0.48437 -2.48437,0.48437 -2.29688,0 -3.5,-0.95312 -1.1875,-0.95313 -1.51563,-2.8125 z m 11.32813,0 1.96875,-0.3125 q 0.15625,1.17187 0.90625,1.8125 0.76562,0.625 2.125,0.625 1.375,0 2.03125,-0.54688 0.67187,-0.5625 0.67187,-1.3125 0,-0.6875 -0.57812,-1.0625 -0.42188,-0.26562 -2.04688,-0.6875 -2.1875,-0.54687 -3.03125,-0.95312 -0.84375,-0.40625 -1.28125,-1.10938 -0.4375,-0.71875 -0.4375,-1.57812 0,-0.79688 0.35938,-1.45313 0.35937,-0.67187 0.98437,-1.125 0.45313,-0.32812 1.25,-0.5625 0.8125,-0.25 1.73438,-0.25 1.375,0 2.42187,0.40625 1.04688,0.39063 1.54688,1.07813 0.5,0.67187 0.6875,1.8125 l -1.95313,0.26562 q -0.125,-0.90625 -0.76562,-1.40625 -0.64063,-0.51562 -1.79688,-0.51562 -1.375,0 -1.96875,0.45312 -0.57812,0.45313 -0.57812,1.0625 0,0.39063 0.25,0.6875 0.23437,0.32813 0.75,0.53125 0.3125,0.125 1.76562,0.51563 2.10938,0.5625 2.9375,0.92187 0.84375,0.35938 1.3125,1.04688 0.48438,0.6875 0.48438,1.70312 0,1 -0.57813,1.875 -0.57812,0.875 -1.67187,1.35938 -1.09375,0.48437 -2.48438,0.48437 -2.29687,0 -3.5,-0.95312 -1.1875,-0.95313 -1.51562,-2.8125 z"
     fill-rule="nonzero"
     id="path61"
     style="fill:#170000;fill-opacity:1" />
  <path
     fill="#1700b3"
     fill-opacity="0.3333"
     d="M 560.59828,191.47223 H 702.4565 v 79.40158 H 560.59828 Z"
     fill-rule="evenodd"
     id="path63"
     style="fill:#00dac6;fill-opacity:1" />
  <path
     stroke="#ffffff"
     stroke-width="1"
     stroke-linejoin="round"
     stroke-linecap="butt"
     d="M 560.59828,191.47223 H 702.4565 v 79.40158 H 560.59828 Z"
     fill-rule="evenodd"
     id="path65" />
  <path
     fill="#1700b3"
     d="m 603.58105,234.2299 2.03125,-0.1875 q 0.14062,1.21875 0.65625,2 0.53125,0.78125 1.64062,1.26563 1.10938,0.48437 2.48438,0.48437 1.23437,0 2.17187,-0.35937 0.9375,-0.375 1.39063,-1.01563 0.46875,-0.64062 0.46875,-1.39062 0,-0.76563 -0.45313,-1.32813 -0.4375,-0.57812 -1.45312,-0.95312 -0.65625,-0.26563 -2.89063,-0.79688 -2.23437,-0.53125 -3.125,-1.01562 -1.15625,-0.60938 -1.73437,-1.5 -0.5625,-0.90625 -0.5625,-2.03125 0,-1.21875 0.6875,-2.28125 0.70312,-1.07813 2.03125,-1.625 1.34375,-0.5625 2.98437,-0.5625 1.8125,0 3.1875,0.59375 1.375,0.57812 2.10938,1.70312 0.75,1.125 0.79687,2.54688 l -2.04687,0.15625 q -0.17188,-1.53125 -1.14063,-2.3125 -0.95312,-0.79688 -2.8125,-0.79688 -1.95312,0 -2.84375,0.71875 -0.89062,0.71875 -0.89062,1.71875 0,0.875 0.64062,1.4375 0.60938,0.5625 3.21875,1.15625 2.625,0.59375 3.59375,1.03125 1.42188,0.65625 2.09375,1.65625 0.67188,1 0.67188,2.3125 0,1.29688 -0.73438,2.4375 -0.73437,1.14063 -2.125,1.78125 -1.39062,0.64063 -3.125,0.64063 -2.20312,0 -3.70312,-0.64063 -1.48438,-0.64062 -2.32813,-1.92187 -0.84375,-1.29688 -0.89062,-2.92188 z m 23.6272,1.42188 2.0625,0.25 q -0.48438,1.8125 -1.8125,2.8125 -1.3125,0.98437 -3.35944,0.98437 -2.57812,0 -4.09375,-1.57812 -1.5,-1.59375 -1.5,-4.46875 0,-2.95313 1.53125,-4.59375 1.53125,-1.64063 3.95313,-1.64063 2.35943,0 3.84381,1.60938 1.5,1.59375 1.5,4.51562 0,0.17188 0,0.53125 h -8.76569 q 0.10938,1.9375 1.09375,2.96875 0.98438,1.01563 2.45313,1.01563 1.09381,0 1.85943,-0.5625 0.78125,-0.57813 1.23438,-1.84375 z m -6.53131,-3.21875 h 6.56256 q -0.14063,-1.48438 -0.75,-2.21875 -0.95313,-1.15625 -2.46881,-1.15625 -1.375,0 -2.3125,0.92187 -0.9375,0.90625 -1.03125,2.45313 z m 11.06909,7 v -11.75 h 1.79687 v 1.78125 q 0.6875,-1.25 1.26563,-1.64063 0.57812,-0.40625 1.28125,-0.40625 1,0 2.04687,0.64063 l -0.6875,1.84375 q -0.73437,-0.42188 -1.46875,-0.42188 -0.64062,0 -1.17187,0.39063 -0.51563,0.39062 -0.73438,1.09375 -0.32812,1.0625 -0.32812,2.3125 v 6.15625 z m 7.57599,-13.92188 v -2.29687 h 2 v 2.29687 z m 0,13.92188 v -11.75 h 2 v 11.75 z m 12.68975,-1.45313 q -1.10937,0.9375 -2.14062,1.32813 -1.01563,0.39062 -2.1875,0.39062 -1.9375,0 -2.98438,-0.9375 -1.03125,-0.95312 -1.03125,-2.42187 0,-0.85938 0.39063,-1.57813 0.40625,-0.71875 1.03125,-1.14062 0.64062,-0.4375 1.4375,-0.65625 0.59375,-0.15625 1.76562,-0.29688 2.42188,-0.29687 3.5625,-0.6875 0,-0.40625 0,-0.51562 0,-1.21875 -0.5625,-1.71875 -0.76562,-0.67188 -2.26562,-0.67188 -1.40625,0 -2.07813,0.5 -0.67187,0.48438 -0.98437,1.73438 l -1.95313,-0.26563 q 0.26563,-1.25 0.875,-2.01562 0.60938,-0.78125 1.75,-1.1875 1.15625,-0.42188 2.67188,-0.42188 1.51562,0 2.45312,0.35938 0.9375,0.34375 1.375,0.89062 0.45313,0.53125 0.625,1.34375 0.0937,0.51563 0.0937,1.84375 v 2.65625 q 0,2.78125 0.125,3.51563 0.14063,0.73437 0.51563,1.40625 h -2.07813 q -0.3125,-0.625 -0.40625,-1.45313 z m -0.15625,-4.4375 q -1.09375,0.4375 -3.26562,0.75 -1.21875,0.17188 -1.73438,0.39063 -0.5,0.21875 -0.78125,0.65625 -0.28125,0.42187 -0.28125,0.9375 0,0.79687 0.60938,1.32812 0.60937,0.53125 1.76562,0.53125 1.14063,0 2.03125,-0.5 0.90625,-0.5 1.32813,-1.375 0.32812,-0.67187 0.32812,-2 z m 5.05341,5.89063 v -16.21875 h 1.98438 v 16.21875 z"
     fill-rule="nonzero"
     id="path67"
     style="fill:#170000;fill-opacity:1" />
  <path
     fill="#1700b3"
     fill-opacity="0.3333"
     d="m 711.90545,191.47223 h 141.85828 v 79.40158 H 711.90545 Z"
     fill-rule="evenodd"
     id="path69"
     style="fill:#00dac6;fill-opacity:1" />
  <path
     stroke="#ffffff"
     stroke-width="1"
     stroke-linejoin="round"
     stroke-linecap="butt"
     d="m 711.90545,191.47223 h 141.85828 v 79.40158 H 711.90545 Z"
     fill-rule="evenodd"
     id="path71" />
  <path
     fill="#1700b3"
     d="m 774.14711,239.43302 v -2.26563 h 2.26563 v 2.26563 z m 7.5625,0 v -2.26563 h 2.26563 v 2.26563 z m 7.54688,0 v -2.26563 h 2.26562 v 2.26563 z"
     fill-rule="nonzero"
     id="path73"
     style="fill:#170000;fill-opacity:1" />
  <path
     fill="#1700b3"
     d="M 19.28125,221.78525 19.140625,220.129 q 1,-0.125 1.640625,-0.54688 0.640625,-0.4375 1.046875,-1.34375 0.390625,-0.92187 0.390625,-2.0625 0,-1 -0.296875,-1.78125 -0.296875,-0.78125 -0.8125,-1.15625 -0.53125,-0.375 -1.15625,-0.375 -0.625,0 -1.09375,0.375 -0.46875,0.35938 -0.796875,1.1875 -0.203125,0.54688 -0.640625,2.39063 -0.453125,1.82812 -0.84375,2.5625 -0.5,0.96875 -1.234375,1.4375 -0.75,0.46875 -1.671875,0.46875 -1,0 -1.875,-0.57813 Q 10.90625,220.129 10.453125,219.03525 10,217.92587 10,216.58212 q 0,-1.48437 0.484375,-2.60937 0.46875,-1.14063 1.40625,-1.75 0.921875,-0.60938 2.09375,-0.65625 l 0.125,1.6875 q -1.265625,0.14062 -1.90625,0.9375 -0.65625,0.78125 -0.65625,2.3125 0,1.60937 0.59375,2.34375 0.59375,0.73437 1.421875,0.73437 0.71875,0 1.171875,-0.53125 0.46875,-0.5 0.96875,-2.65625 0.484375,-2.15625 0.84375,-2.95312 0.53125,-1.17188 1.359375,-1.71875 0.828125,-0.5625 1.90625,-0.5625 1.0625,0 2.015625,0.60937 0.9375,0.60938 1.46875,1.75 0.515625,1.14063 0.515625,2.57813 0,1.8125 -0.53125,3.04687 -0.53125,1.21875 -1.59375,1.92188 -1.0625,0.6875 -2.40625,0.71875 z m 0.75,-19.1467 0.21875,-1.60937 q 1.65625,0.26562 2.609375,1.35937 0.9375,1.07813 0.9375,2.67188 0,1.98437 -1.296875,3.1875 -1.296875,1.20312 -3.71875,1.20312 -1.578125,0 -2.75,-0.51562 -1.171875,-0.51563 -1.75,-1.57813 -0.59375,-1.0625 -0.59375,-2.3125 0,-1.57812 0.796875,-2.57812 0.796875,-1 2.265625,-1.28125 l 0.234375,1.59375 q -0.96875,0.23437 -1.453125,0.8125 -0.5,0.57812 -0.5,1.39062 0,1.23438 0.890625,2.01563 0.890625,0.78125 2.8125,0.78125 1.953125,0 2.84375,-0.75 0.875,-0.75 0.875,-1.95313 0,-0.96875 -0.59375,-1.60937 -0.59375,-0.65625 -1.828125,-0.82813 z m -1.296875,-2.40625 q -2.6875,0 -3.96875,-1.48437 -1.078125,-1.25 -1.078125,-3.04688 0,-2 1.3125,-3.26562 1.296875,-1.26563 3.609375,-1.26563 1.859375,0 2.9375,0.5625 1.0625,0.5625 1.65625,1.64063 0.59375,1.0625 0.59375,2.32812 0,2.03125 -1.296875,3.28125 -1.3125,1.25 -3.765625,1.25 z m 0,-1.6875 q 1.859375,0 2.796875,-0.79687 0.921875,-0.8125 0.921875,-2.04688 0,-1.21875 -0.921875,-2.03125 -0.9375,-0.8125 -2.84375,-0.8125 -1.796875,0 -2.71875,0.8125 -0.921875,0.8125 -0.921875,2.03125 0,1.23438 0.921875,2.04688 0.90625,0.79687 2.765625,0.79687 z m 8.546875,-9.29761 h -13.375 v -1.48437 h 1.25 q -0.734375,-0.53125 -1.09375,-1.1875 -0.375,-0.67188 -0.375,-1.625 0,-1.23438 0.640625,-2.17188 0.625,-0.95312 1.796875,-1.4375 1.15625,-0.48437 2.546875,-0.48437 1.484375,0 2.671875,0.53125 1.1875,0.53125 1.828125,1.54687 0.625,1.01563 0.625,2.14063 0,0.8125 -0.34375,1.46875 -0.34375,0.65625 -0.875,1.0625 h 4.703125 z m -8.484375,-1.48437 q 1.859375,0 2.765625,-0.75 0.890625,-0.76563 0.890625,-1.82813 0,-1.09375 -0.921875,-1.875 -0.9375,-0.78125 -2.875,-0.78125 -1.84375,0 -2.765625,0.76563 -0.921875,0.75 -0.921875,1.8125 0,1.04687 0.984375,1.85937 0.96875,0.79688 2.84375,0.79688 z m 1.671875,-15.51633 0.203125,-1.6875 q 1.484375,0.40625 2.3125,1.48438 0.8125,1.07812 0.8125,2.76562 0,2.125 -1.296875,3.375 -1.3125,1.23438 -3.671875,1.23438 -2.453125,0 -3.796875,-1.25 -1.34375,-1.26563 -1.34375,-3.26563 0,-1.9375 1.328125,-3.15625 1.3125,-1.23437 3.703125,-1.23437 0.15625,0 0.4375,0 v 7.21875 q 1.59375,-0.0937 2.453125,-0.90625 0.84375,-0.8125 0.84375,-2.01563 0,-0.90625 -0.46875,-1.54687 Q 21.5,172.62149 20.46875,172.24649 Z m -2.65625,5.39063 v -5.40625 q -1.21875,0.10937 -1.828125,0.625 -0.953125,0.78125 -0.953125,2.03125 0,1.125 0.765625,1.90625 0.75,0.76562 2.015625,0.84375 z m 0.921875,-13.71527 q -2.6875,0 -3.96875,-1.48438 -1.078125,-1.25 -1.078125,-3.04687 0,-2 1.3125,-3.26563 1.296875,-1.26562 3.609375,-1.26562 1.859375,0 2.9375,0.5625 1.0625,0.5625 1.65625,1.64062 0.59375,1.0625 0.59375,2.32813 0,2.03125 -1.296875,3.28125 -1.3125,1.25 -3.765625,1.25 z m 0,-1.6875 q 1.859375,0 2.796875,-0.79688 0.921875,-0.8125 0.921875,-2.04687 0,-1.21875 -0.921875,-2.03125 -0.9375,-0.8125 -2.84375,-0.8125 -1.796875,0 -2.71875,0.8125 -0.921875,0.8125 -0.921875,2.03125 0,1.23437 0.921875,2.04687 0.90625,0.79688 2.765625,0.79688 z m 4.84375,-9.68823 h -8.40625 v 1.45312 H 13.90625 v -1.45312 H 12.875 q -0.96875,0 -1.453125,-0.17188 -0.640625,-0.23437 -1.03125,-0.82812 Q 10,150.95237 10,149.87424 q 0,-0.6875 0.15625,-1.53125 l 1.4375,0.25 q -0.09375,0.5 -0.09375,0.95313 0,0.75 0.328125,1.0625 0.3125,0.3125 1.1875,0.3125 h 0.890625 v -1.89063 h 1.265625 v 1.89063 h 8.40625 z"
     fill-rule="nonzero"
     id="path77"
     style="fill:#170000;fill-opacity:1" />
  <path
     fill="#1700b3"
     d="m 36.06,225.7854 v -2.53125 h 11.015629 q 2.875,0 4.578125,0.65625 1.6875,0.65625 2.75,2.35938 1.0625,1.6875 1.0625,4.45312 0,2.67188 -0.921875,4.39063 -0.921875,1.70312 -2.671875,2.4375 -1.765625,0.71875 -4.796875,0.71875 H 36.06 v -2.53125 h 11.015629 q 2.484375,0 3.65625,-0.45313 1.171875,-0.46875 1.8125,-1.59375 0.640625,-1.125 0.640625,-2.75 0,-2.78125 -1.265625,-3.96875 -1.265625,-1.1875 -4.84375,-1.1875 z M 55.138129,221.14447 36.06,213.83197 v -2.73438 l 19.078129,-7.79687 v 2.875 l -5.78125,2.21875 v 7.98437 l 5.78125,2.09375 z m -7.828125,-5.5 v -6.46875 l -5.296875,2 q -2.40625,0.90625 -3.953129,1.34375 1.843754,0.375 3.640629,1.03125 z M 55.138129,197.79727 36.06,205.20352 v -2.73437 l 13.859379,-4.96875 q 1.671875,-0.59375 3.125,-1 -1.5625,-0.4375 -3.125,-1.03125 L 36.06,190.3129 v -2.57813 l 19.078129,7.48438 z m -6.6875,-25.93576 0.640625,-2.53125 q 3.109375,0.79688 4.75,2.85938 1.625,2.0625 1.625,5.04687 0,3.09375 -1.25,5.03125 -1.265625,1.92188 -3.640625,2.9375 -2.390625,1 -5.125,1 -2.984375,0 -5.203125,-1.14062 -2.218754,-1.14063 -3.359379,-3.23438 -1.15625,-2.10937 -1.15625,-4.625 0,-2.875 1.46875,-4.82812 1.453129,-1.95313 4.093754,-2.71875 l 0.578125,2.48437 q -2.078125,0.67188 -3.03125,1.9375 -0.953129,1.25 -0.953129,3.17188 0,2.20312 1.062504,3.6875 1.046875,1.46875 2.828125,2.0625 1.78125,0.59375 3.65625,0.59375 2.4375,0 4.265625,-0.70313 1.8125,-0.70312 2.71875,-2.20312 0.890625,-1.5 0.890625,-3.25 0,-2.10938 -1.21875,-3.57813 -1.234375,-1.48437 -3.640625,-2 z m 6.6875,-3.54718 L 36.06,161.00183 v -2.73437 l 19.078129,-7.79688 v 2.875 l -5.78125,2.21875 v 7.98438 l 5.78125,2.09375 z m -7.828125,-5.5 v -6.46875 l -5.296875,2 q -2.40625,0.90625 -3.953129,1.34375 1.843754,0.375 3.640629,1.03125 z m 7.828125,-14.34201 H 36.06 v -2.59375 L 51.044379,135.86295 H 36.06 v -2.42188 h 19.078129 v 2.59375 l -15,10.01563 h 15 z"
     fill-rule="nonzero"
     id="path79"
     style="fill:#170000;fill-opacity:1" />
  <path
     fill="#efefef"
     d="M 609.9687,10 H 727.95295 V 89.40158 H 609.9687 Z"
     fill-rule="evenodd"
     id="path81" />
  <path
     fill="#999999"
     d="M 655.64615,57.96079 V 41.74204 h 11.71875 v 1.92187 h -9.57813 v 4.95313 h 8.96875 v 1.90625 h -8.96875 v 5.53125 h 9.95313 v 1.90625 z m 19.70532,0 -6.29687,-16.21875 h 2.32812 l 4.21875,11.78125 q 0.5,1.42187 0.84375,2.65625 0.375,-1.32813 0.875,-2.65625 l 4.39063,-11.78125 h 2.1875 l -6.35938,16.21875 z"
     fill-rule="nonzero"
     id="path83" />
</svg>
