<?xml version="1.0" encoding="UTF-8" standalone="no"?>
<svg
   xmlns:dc="http://purl.org/dc/elements/1.1/"
   xmlns:cc="http://creativecommons.org/ns#"
   xmlns:rdf="http://www.w3.org/1999/02/22-rdf-syntax-ns#"
   xmlns:svg="http://www.w3.org/2000/svg"
   xmlns="http://www.w3.org/2000/svg"
   xmlns:sodipodi="http://sodipodi.sourceforge.net/DTD/sodipodi-0.dtd"
   xmlns:inkscape="http://www.inkscape.org/namespaces/inkscape"
   version="1.1"
   viewBox="0 0 906.28796 281.87936"
   fill="none"
   stroke="none"
   stroke-linecap="square"
   stroke-miterlimit="10"
   id="svg87"
   sodipodi:docname="Architecture.svg"
   width="906.28796"
   height="281.87936"
   inkscape:version="1.0.1 (3bc2e813f5, 2020-09-07)"
   inkscape:export-filename="/home/pavel/Downloads/Architecture.png"
   inkscape:export-xdpi="150"
   inkscape:export-ydpi="150">
  <metadata
     id="metadata93">
    <rdf:RDF>
      <cc:Work
         rdf:about="">
        <dc:format>image/svg+xml</dc:format>
        <dc:type
           rdf:resource="http://purl.org/dc/dcmitype/StillImage" />
        <dc:title />
      </cc:Work>
    </rdf:RDF>
  </metadata>
  <defs
     id="defs91" />
  <sodipodi:namedview
     pagecolor="#ffffff"
     bordercolor="#666666"
     borderopacity="1"
     objecttolerance="10"
     gridtolerance="10"
     guidetolerance="10"
     inkscape:pageopacity="0"
     inkscape:pageshadow="2"
     inkscape:window-width="3840"
     inkscape:window-height="2102"
     id="namedview89"
     showgrid="false"
     fit-margin-top="10"
     fit-margin-bottom="10"
     fit-margin-left="10"
     fit-margin-right="10"
     inkscape:zoom="2.1885417"
     inkscape:cx="455.24592"
     inkscape:cy="121.021"
     inkscape:window-x="3840"
     inkscape:window-y="0"
     inkscape:window-maximized="1"
     inkscape:current-layer="svg87"
     inkscape:document-rotation="0" />
  <clipPath
     id="g8b0be7b881_0_81.0">
    <path
       d="M 0,0 H 960 V 540 H 0 Z"
       clip-rule="nonzero"
       id="path2" />
  </clipPath>
  <path
     fill="#000000"
     fill-opacity="0"
     d="m 94.712878,270.87937 c -7.830253,0 -14.177923,-6.34766 -14.177923,-14.17792 v -56.71502 c 0,-7.83027 -6.347662,-14.17792 -14.177908,-14.17792 7.830246,0 14.177908,-6.34766 14.177908,-14.17792 v -56.71503 0 c 0,-7.83026 6.34767,-14.17791 14.177923,-14.17791 H 866.94618 c 3.76019,0 7.36639,1.49374 10.02527,4.15261 2.65887,2.65888 4.15265,6.26508 4.15265,10.0253 v 56.71503 c 0,7.83026 6.34765,14.17792 14.17792,14.17792 -7.83027,0 -14.17792,6.34765 -14.17792,14.17792 v 56.71502 c 0,7.83026 -6.34766,14.17792 -14.17792,14.17792 z"
     fill-rule="evenodd"
     id="path7"
     style="stroke:none" />
  <path
     fill="#000000"
     fill-opacity="0"
     d="m 94.712878,270.87937 c -7.830253,0 -14.177923,-6.34766 -14.177923,-14.17792 v -56.71502 c 0,-7.83027 -6.347662,-14.17792 -14.177908,-14.17792 7.830246,0 14.177908,-6.34766 14.177908,-14.17792 v -56.71503 0 c 0,-7.83026 6.34767,-14.17791 14.177923,-14.17791 m 772.233302,0 c 3.76019,0 7.36639,1.49374 10.02527,4.15261 2.65887,2.65888 4.15265,6.26508 4.15265,10.0253 v 56.71503 c 0,7.83026 6.34765,14.17792 14.17792,14.17792 -7.83027,0 -14.17792,6.34765 -14.17792,14.17792 v 56.71502 c 0,7.83026 -6.34766,14.17792 -14.17792,14.17792"
     fill-rule="evenodd"
     id="path9"
     style="stroke:none" />
  <path
     stroke="#1700b3"
     stroke-width="2"
     stroke-linejoin="round"
     stroke-linecap="butt"
     d="m 94.712878,270.87937 c -7.830253,0 -14.177923,-6.34766 -14.177923,-14.17792 v -56.71502 c 0,-7.83027 -6.347662,-14.17792 -14.177908,-14.17792 7.830246,0 14.177908,-6.34766 14.177908,-14.17792 v -56.71503 0 c 0,-7.83026 6.34767,-14.17791 14.177923,-14.17791 m 772.233302,0 c 3.76019,0 7.36639,1.49374 10.02527,4.15261 2.65887,2.65888 4.15265,6.26508 4.15265,10.0253 v 56.71503 c 0,7.83026 6.34765,14.17792 14.17792,14.17792 -7.83027,0 -14.17792,6.34765 -14.17792,14.17792 v 56.71502 c 0,7.83026 -6.34766,14.17792 -14.17792,14.17792"
     fill-rule="evenodd"
     id="path11" />
  <path
     fill="#efefef"
     d="M 233.10851,10 H 351.09276 V 89.40158 H 233.10851 Z"
     fill-rule="evenodd"
     id="path13"
     style="stroke:none" />
  <path
     fill="#999999"
     d="m 266.06017,40.24204 q 0,-0.95313 -0.67188,-1.45313 -0.65625,-0.5 -2.39062,-1.0625 -1.71875,-0.5625 -2.73438,-1.09375 -2.73437,-1.48437 -2.73437,-4 0,-1.29687 0.73437,-2.3125 0.73438,-1.03125 2.10938,-1.60937 1.375,-0.57813 3.09375,-0.57813 1.71875,0 3.0625,0.625 1.35937,0.625 2.10937,1.76563 0.75,1.14062 0.75,2.59375 h -3.32812 q 0,-1.10938 -0.70313,-1.71875 -0.6875,-0.625 -1.95312,-0.625 -1.21875,0 -1.89063,0.51562 -0.67187,0.51563 -0.67187,1.35938 0,0.78125 0.78125,1.3125 0.79687,0.53125 2.34375,1 2.82812,0.84375 4.125,2.10937 1.29687,1.26563 1.29687,3.14063 0,2.09375 -1.59375,3.28125 -1.57812,1.1875 -4.25,1.1875 -1.85937,0 -3.39062,-0.67188 -1.51563,-0.6875 -2.32813,-1.85937 -0.79687,-1.1875 -0.79687,-2.75 h 3.32812 q 0,2.65625 3.1875,2.65625 1.1875,0 1.84375,-0.46875 0.67188,-0.48438 0.67188,-1.34375 z m 16.13095,-1.65625 q 0,2.76562 -1.26563,4.4375 -1.25,1.65625 -3.375,1.65625 -1.8125,0 -2.9375,-1.26563 v 5.65625 h -3.1875 V 32.49204 h 2.95313 l 0.10937,1.17187 q 1.17188,-1.39062 3.03125,-1.39062 2.21875,0 3.4375,1.64062 1.23438,1.625 1.23438,4.5 z m -3.1875,-0.23438 q 0,-1.67187 -0.59375,-2.57812 -0.59375,-0.90625 -1.71875,-0.90625 -1.51563,0 -2.07813,1.15625 v 4.89062 q 0.59375,1.1875 2.09375,1.1875 2.29688,0 2.29688,-3.75 z m 12.11459,6.10938 q -0.23437,-0.4375 -0.32812,-1.07813 -1.15625,1.29688 -3.01563,1.29688 -1.76562,0 -2.92187,-1.01563 -1.15625,-1.01562 -1.15625,-2.5625 0,-1.90625 1.40625,-2.92187 1.42187,-1.01563 4.07812,-1.03125 h 1.46875 v -0.6875 q 0,-0.82813 -0.42187,-1.32813 -0.42188,-0.5 -1.34375,-0.5 -0.79688,0 -1.26563,0.39063 -0.45312,0.39062 -0.45312,1.0625 h -3.20313 q 0,-1.04688 0.64063,-1.92188 0.64062,-0.89062 1.8125,-1.39062 1.17187,-0.5 2.64062,-0.5 2.20313,0 3.5,1.10937 1.3125,1.10938 1.3125,3.125 v 5.1875 q 0.0156,1.70313 0.46875,2.57813 v 0.1875 z m -2.65625,-2.21875 q 0.71875,0 1.3125,-0.3125 0.59375,-0.32813 0.875,-0.85938 v -2.04687 h -1.1875 q -2.40625,0 -2.5625,1.65625 v 0.1875 q 0,0.59375 0.42188,0.98437 0.42187,0.39063 1.14062,0.39063 z m 12.83426,-0.14063 q 0.89063,0 1.4375,-0.48437 0.5625,-0.48438 0.57813,-1.29688 h 3 q -0.0156,1.21875 -0.67188,2.23438 -0.64062,1.01562 -1.78125,1.57812 -1.125,0.54688 -2.5,0.54688 -2.57812,0 -4.0625,-1.625 -1.46875,-1.64063 -1.46875,-4.51563 v -0.20312 q 0,-2.76563 1.46875,-4.40625 1.46875,-1.65625 4.03125,-1.65625 2.25,0 3.60938,1.28125 1.35937,1.26562 1.375,3.39062 h -3 q -0.0156,-0.92187 -0.57813,-1.5 -0.54687,-0.59375 -1.45312,-0.59375 -1.125,0 -1.70313,0.82813 -0.5625,0.8125 -0.5625,2.625 v 0.34375 q 0,1.84375 0.5625,2.65625 0.57813,0.79687 1.71875,0.79687 z m 12.34613,2.57813 q -2.625,0 -4.28125,-1.60938 -1.65625,-1.625 -1.65625,-4.3125 v -0.29687 q 0,-1.8125 0.6875,-3.23438 0.70313,-1.42187 1.98438,-2.1875 1.28125,-0.76562 2.92187,-0.76562 2.45313,0 3.85938,1.54687 1.40625,1.54688 1.40625,4.39063 v 1.3125 h -7.625 q 0.15625,1.17187 0.9375,1.875 0.78125,0.70312 1.98437,0.70312 1.84375,0 2.875,-1.32812 l 1.57813,1.75 q -0.71875,1.01562 -1.95313,1.59375 -1.21875,0.5625 -2.71875,0.5625 z m -0.35937,-9.82813 q -0.95313,0 -1.54688,0.65625 -0.59375,0.64063 -0.75,1.82813 h 4.4375 v -0.25 q -0.0156,-1.0625 -0.57812,-1.64063 -0.54688,-0.59375 -1.5625,-0.59375 z m 13.3088,4 h -6.21875 v -2.57812 h 6.21875 z"
     fill-rule="nonzero"
     id="path15"
     style="stroke:none" />
  <path
     fill="#999999"
     d="m 274.46943,69.10141 q 0.89062,0 1.4375,-0.48438 0.5625,-0.48437 0.57812,-1.29687 h 3 q -0.0156,1.21875 -0.67187,2.23437 -0.64063,1.01563 -1.78125,1.57813 -1.125,0.54687 -2.5,0.54687 -2.57813,0 -4.0625,-1.625 -1.46875,-1.64062 -1.46875,-4.51562 v -0.20313 q 0,-2.76562 1.46875,-4.40625 1.46875,-1.65625 4.03125,-1.65625 2.25,0 3.60937,1.28125 1.35938,1.26563 1.375,3.39063 h -3 q -0.0156,-0.92188 -0.57812,-1.5 -0.54688,-0.59375 -1.45313,-0.59375 -1.125,0 -1.70312,0.82812 -0.5625,0.8125 -0.5625,2.625 v 0.34375 q 0,1.84375 0.5625,2.65625 0.57812,0.79688 1.71875,0.79688 z m 13.56488,-6.60938 q -0.65625,-0.0937 -1.15625,-0.0937 -1.8125,0 -2.375,1.23438 v 7.82812 h -3.1875 V 59.49208 h 3.01563 l 0.0937,1.42188 q 0.95312,-1.64063 2.65625,-1.64063 0.53125,0 1,0.14063 z m 8.15048,8.96875 q -0.23437,-0.4375 -0.32812,-1.07812 -1.15625,1.29687 -3.01563,1.29687 -1.76562,0 -2.92187,-1.01562 -1.15625,-1.01563 -1.15625,-2.5625 0,-1.90625 1.40625,-2.92188 1.42187,-1.01562 4.07812,-1.03125 h 1.46875 v -0.6875 q 0,-0.82812 -0.42187,-1.32812 -0.42188,-0.5 -1.34375,-0.5 -0.79688,0 -1.26563,0.39062 -0.45312,0.39063 -0.45312,1.0625 h -3.20313 q 0,-1.04687 0.64063,-1.92187 0.64062,-0.89063 1.8125,-1.39063 1.17187,-0.5 2.64062,-0.5 2.20313,0 3.5,1.10938 1.3125,1.10937 1.3125,3.125 v 5.1875 q 0.0156,1.70312 0.46875,2.57812 v 0.1875 z m -2.65625,-2.21875 q 0.71875,0 1.3125,-0.3125 0.59375,-0.32812 0.875,-0.85937 v -2.04688 h -1.1875 q -2.40625,0 -2.5625,1.65625 v 0.1875 q 0,0.59375 0.42188,0.98438 0.42187,0.39062 1.14062,0.39062 z m 8.74051,2.21875 v -9.625 h -1.78125 v -2.34375 h 1.78125 v -1.01562 q 0,-2.01563 1.14063,-3.125 1.15625,-1.10938 3.25,-1.10938 0.65625,0 1.625,0.21875 l -0.0312,2.46875 q -0.40625,-0.0937 -0.98438,-0.0937 -1.79687,0 -1.79687,1.6875 v 0.96875 h 2.375 v 2.34375 h -2.375 v 9.625 z m 11.07309,-14.90625 v 2.9375 h 2.04688 v 2.34375 h -2.04688 v 5.96875 q 0,0.67188 0.25,0.96875 0.25,0.28125 0.96875,0.28125 0.53125,0 0.9375,-0.0781 v 2.42187 q -0.9375,0.28125 -1.9375,0.28125 -3.35937,0 -3.42187,-3.39062 V 61.8358 h -1.75 v -2.34375 h 1.75 v -2.9375 z"
     fill-rule="nonzero"
     id="path17"
     style="stroke:none" />
  <path
     fill="#efefef"
     d="M 107.2853,10 H 225.26955 V 89.40158 H 107.2853 Z"
     fill-rule="evenodd"
     id="path19"
     style="stroke:none" />
  <path
     fill="#999999"
     d="m 157.9655,41.85141 v 10.60937 q 0,2.64063 -1.65625,4.1875 -1.64063,1.53125 -4.51563,1.53125 -2.8125,0 -4.48437,-1.48437 -1.65625,-1.5 -1.6875,-4.10938 V 41.85141 h 3.32812 v 10.64062 q 0,1.57813 0.75,2.3125 0.76563,0.71875 2.09375,0.71875 2.79688,0 2.84375,-2.95312 V 41.85141 Z m 11.57518,12.79687 h -5.8125 l -1.10938,3.3125 h -3.53125 l 6,-16.10937 h 3.07813 l 6.01562,16.10937 h -3.51562 z m -4.92188,-2.6875 h 4.03125 l -2.03125,-6.03125 z m 16.17333,2 3.65625,-12.10937 h 3.6875 l -5.60938,16.10937 h -3.45312 l -5.59375,-16.10937 h 3.6875 z"
     fill-rule="nonzero"
     id="path21"
     style="stroke:none" />
  <path
     fill="#efefef"
     d="M 358.93175,10 H 476.916 V 89.40158 H 358.93175 Z"
     fill-rule="evenodd"
     id="path23"
     style="stroke:none" />
  <path
     fill="#999999"
     d="m 382.51345,28.35141 4.125,11.6875 4.125,-11.6875 h 4.35937 v 16.10937 h -3.32812 v -4.40625 l 0.32812,-7.59375 -4.34375,12 h -2.28125 l -4.34375,-11.98437 0.32813,7.57812 v 4.40625 h -3.3125 V 28.35141 Z m 22.23697,16.10937 q -0.23438,-0.4375 -0.32813,-1.07812 -1.15625,1.29687 -3.01562,1.29687 -1.76563,0 -2.92188,-1.01562 -1.15625,-1.01563 -1.15625,-2.5625 0,-1.90625 1.40625,-2.92188 1.42188,-1.01562 4.07813,-1.03125 h 1.46875 v -0.6875 q 0,-0.82812 -0.42188,-1.32812 -0.42187,-0.5 -1.34375,-0.5 -0.79687,0 -1.26562,0.39062 -0.45313,0.39063 -0.45313,1.0625 h -3.20312 q 0,-1.04687 0.64062,-1.92187 0.64063,-0.89063 1.8125,-1.39063 1.17188,-0.5 2.64063,-0.5 2.20312,0 3.5,1.10938 1.3125,1.10937 1.3125,3.125 v 5.1875 q 0.0156,1.70312 0.46875,2.57812 v 0.1875 z m -2.65625,-2.21875 q 0.71875,0 1.3125,-0.3125 0.59375,-0.32812 0.875,-0.85937 v -2.04688 h -1.1875 q -2.40625,0 -2.5625,1.65625 v 0.1875 q 0,0.59375 0.42187,0.98438 0.42188,0.39062 1.14063,0.39062 z m 10.80301,-9.75 0.0937,1.375 q 1.28125,-1.59375 3.4375,-1.59375 1.90625,0 2.82812,1.125 0.9375,1.10938 0.96875,3.32813 v 7.73437 h -3.20312 v -7.65625 q 0,-1.01562 -0.45313,-1.46875 -0.4375,-0.46875 -1.45312,-0.46875 -1.35938,0 -2.03125,1.15625 v 8.4375 H 409.8815 V 32.49203 Z m 12.68881,0 0.0937,1.375 q 1.28125,-1.59375 3.4375,-1.59375 1.90625,0 2.82812,1.125 0.9375,1.10938 0.96875,3.32813 v 7.73437 h -3.20312 v -7.65625 q 0,-1.01562 -0.45313,-1.46875 -0.4375,-0.46875 -1.45312,-0.46875 -1.35938,0 -2.03125,1.15625 v 8.4375 h -3.20313 V 32.49203 Z m 15.25134,12.1875 q -2.625,0 -4.28125,-1.60937 -1.65625,-1.625 -1.65625,-4.3125 v -0.29688 q 0,-1.8125 0.6875,-3.23437 0.70313,-1.42188 1.98438,-2.1875 1.28125,-0.76563 2.92187,-0.76563 2.45313,0 3.85938,1.54688 1.40625,1.54687 1.40625,4.39062 v 1.3125 h -7.625 q 0.15625,1.17188 0.9375,1.875 0.78125,0.70313 1.98437,0.70313 1.84375,0 2.875,-1.32813 l 1.57813,1.75 q -0.71875,1.01563 -1.95313,1.59375 -1.21875,0.5625 -2.71875,0.5625 z m -0.35937,-9.82812 q -0.95313,0 -1.54688,0.65625 -0.59375,0.64062 -0.75,1.82812 h 4.4375 v -0.25 q -0.0156,-1.0625 -0.57812,-1.64062 -0.54688,-0.59375 -1.5625,-0.59375 z m 6.60568,3.53125 q 0,-2.79688 1.25,-4.45313 1.25,-1.65625 3.4375,-1.65625 1.75,0 2.89063,1.29688 v -6.10938 h 3.20312 v 17 h -2.89062 l -0.15625,-1.26562 q -1.1875,1.48437 -3.0625,1.48437 -2.125,0 -3.40625,-1.65625 -1.26563,-1.67187 -1.26563,-4.64062 z m 3.1875,0.23437 q 0,1.6875 0.57813,2.57813 0.59375,0.89062 1.71875,0.89062 1.48437,0 2.09375,-1.25 v -4.71875 q -0.60938,-1.25 -2.07813,-1.25 -2.3125,0 -2.3125,3.75 z"
     fill-rule="nonzero"
     id="path25"
     style="stroke:none" />
  <path
     fill="#999999"
     d="m 389.15776,71.46079 q -0.23438,-0.4375 -0.32813,-1.07813 -1.15625,1.29688 -3.01562,1.29688 -1.76563,0 -2.92188,-1.01563 -1.15625,-1.01562 -1.15625,-2.5625 0,-1.90625 1.40625,-2.92187 1.42188,-1.01563 4.07813,-1.03125 h 1.46875 v -0.6875 q 0,-0.82813 -0.42188,-1.32813 -0.42187,-0.5 -1.34375,-0.5 -0.79687,0 -1.26562,0.39063 -0.45313,0.39062 -0.45313,1.0625 h -3.20312 q 0,-1.04688 0.64062,-1.92188 0.64063,-0.89062 1.8125,-1.39062 1.17188,-0.5 2.64063,-0.5 2.20312,0 3.5,1.10937 1.3125,1.10938 1.3125,3.125 v 5.1875 q 0.0156,1.70313 0.46875,2.57813 v 0.1875 z m -2.65625,-2.21875 q 0.71875,0 1.3125,-0.3125 0.59375,-0.32813 0.875,-0.85938 v -2.04687 h -1.1875 q -2.40625,0 -2.5625,1.65625 v 0.1875 q 0,0.59375 0.42187,0.98437 0.42188,0.39063 1.14063,0.39063 z m 11.24051,2.21875 h -3.21875 V 59.49204 h 3.21875 z m -3.40625,-15.0625 q 0,-0.71875 0.48437,-1.1875 0.48438,-0.46875 1.3125,-0.46875 0.8125,0 1.29688,0.46875 0.5,0.46875 0.5,1.1875 0,0.71875 -0.5,1.1875 -0.48438,0.46875 -1.29688,0.46875 -0.8125,0 -1.3125,-0.46875 -0.48437,-0.46875 -0.48437,-1.1875 z m 12.75702,6.09375 q -0.65625,-0.0937 -1.15625,-0.0937 -1.8125,0 -2.375,1.23437 v 7.82813 h -3.1875 V 59.49209 h 3.01562 l 0.0937,1.42187 q 0.95313,-1.64062 2.65625,-1.64062 0.53125,0 1,0.14062 z m 6.3035,6.60937 q 0.89062,0 1.4375,-0.48437 0.5625,-0.48438 0.57812,-1.29688 h 3 q -0.0156,1.21875 -0.67187,2.23438 -0.64063,1.01562 -1.78125,1.57812 -1.125,0.54688 -2.5,0.54688 -2.57813,0 -4.0625,-1.625 -1.46875,-1.64063 -1.46875,-4.51563 v -0.20312 q 0,-2.76563 1.46875,-4.40625 1.46875,-1.65625 4.03125,-1.65625 2.25,0 3.60937,1.28125 1.35938,1.26562 1.375,3.39062 h -3 q -0.0156,-0.92187 -0.57812,-1.5 -0.54688,-0.59375 -1.45313,-0.59375 -1.125,0 -1.70312,0.82813 -0.5625,0.8125 -0.5625,2.625 v 0.34375 q 0,1.84375 0.5625,2.65625 0.57812,0.79687 1.71875,0.79687 z m 13.56488,-6.60937 q -0.65625,-0.0937 -1.15625,-0.0937 -1.8125,0 -2.375,1.23437 v 7.82813 h -3.1875 V 59.49209 h 3.01562 l 0.0937,1.42187 q 0.95313,-1.64062 2.65625,-1.64062 0.53125,0 1,0.14062 z m 8.15048,8.96875 q -0.23438,-0.4375 -0.32813,-1.07813 -1.15625,1.29688 -3.01562,1.29688 -1.76563,0 -2.92188,-1.01563 -1.15625,-1.01562 -1.15625,-2.5625 0,-1.90625 1.40625,-2.92187 1.42188,-1.01563 4.07813,-1.03125 h 1.46875 v -0.6875 q 0,-0.82813 -0.42188,-1.32813 -0.42187,-0.5 -1.34375,-0.5 -0.79687,0 -1.26562,0.39063 -0.45313,0.39062 -0.45313,1.0625 h -3.20312 q 0,-1.04688 0.64062,-1.92188 0.64063,-0.89062 1.8125,-1.39062 1.17188,-0.5 2.64063,-0.5 2.20312,0 3.5,1.10937 1.3125,1.10938 1.3125,3.125 v 5.1875 q 0.0156,1.70313 0.46875,2.57813 v 0.1875 z m -2.65625,-2.21875 q 0.71875,0 1.3125,-0.3125 0.59375,-0.32813 0.875,-0.85938 v -2.04687 h -1.1875 q -2.40625,0 -2.5625,1.65625 v 0.1875 q 0,0.59375 0.42187,0.98437 0.42188,0.39063 1.14063,0.39063 z m 8.74051,2.21875 v -9.625 h -1.78125 v -2.34375 h 1.78125 v -1.01563 q 0,-2.01562 1.14062,-3.125 1.15625,-1.10937 3.25,-1.10937 0.65625,0 1.625,0.21875 l -0.0312,2.46875 q -0.40625,-0.0937 -0.98437,-0.0937 -1.79688,0 -1.79688,1.6875 v 0.96875 h 2.375 v 2.34375 h -2.375 v 9.625 z M 452.269,56.55454 v 2.9375 h 2.04687 v 2.34375 H 452.269 v 5.96875 q 0,0.67187 0.25,0.96875 0.25,0.28125 0.96875,0.28125 0.53125,0 0.9375,-0.0781 v 2.42188 q -0.9375,0.28125 -1.9375,0.28125 -3.35938,0 -3.42188,-3.39063 v -6.45312 h -1.75 v -2.34375 h 1.75 v -2.9375 z"
     fill-rule="nonzero"
     id="path27"
     style="stroke:none" />
  <path
     fill="#efefef"
     d="M 484.75496,10 H 602.73921 V 89.40158 H 484.75496 Z"
     fill-rule="evenodd"
     id="path29"
     style="stroke:none" />
  <path
     fill="#999999"
     d="m 511.99723,38.57016 h -2.65625 v 5.89062 h -3.3125 V 28.35141 h 5.98438 q 2.85937,0 4.40625,1.28125 1.54687,1.26562 1.54687,3.59375 0,1.64062 -0.71875,2.75 -0.70312,1.09375 -2.15625,1.75 l 3.48438,6.57812 v 0.15625 h -3.5625 z m -2.65625,-2.6875 h 2.6875 q 1.25,0 1.9375,-0.64063 0.6875,-0.64062 0.6875,-1.75 0,-1.14062 -0.65625,-1.79687 -0.64062,-0.65625 -1.98437,-0.65625 h -2.67188 z m 10.44318,2.48437 q 0,-1.78125 0.6875,-3.17187 0.6875,-1.40625 1.96875,-2.15625 1.28125,-0.76563 3,-0.76563 2.42187,0 3.95312,1.48438 1.53125,1.48437 1.70313,4.01562 l 0.0156,0.82813 q 0,2.75 -1.53125,4.42187 -1.53125,1.65625 -4.125,1.65625 -2.59375,0 -4.14062,-1.65625 -1.53125,-1.65625 -1.53125,-4.51562 z m 3.1875,0.23438 q 0,1.70312 0.64062,2.60937 0.64063,0.89063 1.84375,0.89063 1.15625,0 1.8125,-0.89063 0.65625,-0.89062 0.65625,-2.84375 0,-1.67187 -0.65625,-2.59375 -0.65625,-0.92187 -1.82812,-0.92187 -1.1875,0 -1.82813,0.92187 -0.64062,0.90625 -0.64062,2.82813 z m 20.90429,-0.0156 q 0,2.875 -1.23437,4.48438 -1.21875,1.60937 -3.42188,1.60937 -1.95312,0 -3.10937,-1.48437 l -0.14063,1.26562 h -2.875 v -17 h 3.1875 v 6.10938 q 1.10938,-1.29688 2.90625,-1.29688 2.20313,0 3.4375,1.60938 1.25,1.60937 1.25,4.53125 z m -3.20312,-0.23437 q 0,-1.8125 -0.57813,-2.64063 -0.5625,-0.84375 -1.70312,-0.84375 -1.53125,0 -2.10938,1.25 v 4.71875 q 0.59375,1.26563 2.125,1.26563 1.54688,0 2.03125,-1.53125 0.23438,-0.71875 0.23438,-2.21875 z m 4.67706,0.0156 q 0,-1.78125 0.6875,-3.17187 0.6875,-1.40625 1.96875,-2.15625 1.28125,-0.76563 3,-0.76563 2.42188,0 3.95313,1.48438 1.53125,1.48437 1.70312,4.01562 l 0.0156,0.82813 q 0,2.75 -1.53125,4.42187 -1.53125,1.65625 -4.125,1.65625 -2.59375,0 -4.14063,-1.65625 -1.53125,-1.65625 -1.53125,-4.51562 z m 3.1875,0.23438 q 0,1.70312 0.64063,2.60937 0.64062,0.89063 1.84375,0.89063 1.15625,0 1.8125,-0.89063 0.65625,-0.89062 0.65625,-2.84375 0,-1.67187 -0.65625,-2.59375 -0.65625,-0.92187 -1.82813,-0.92187 -1.1875,0 -1.82812,0.92187 -0.64063,0.90625 -0.64063,2.82813 z m 13.95117,-9.04688 v 2.9375 h 2.04688 v 2.34375 h -2.04688 v 5.96875 q 0,0.67188 0.25,0.96875 0.25,0.28125 0.96875,0.28125 0.53125,0 0.9375,-0.0781 v 2.42187 q -0.9375,0.28125 -1.9375,0.28125 -3.35937,0 -3.42187,-3.39062 v -6.45313 h -1.75 v -2.34375 h 1.75 v -2.9375 z m 7.20221,14.90625 h -3.21875 V 32.49204 h 3.21875 z m -3.40625,-15.0625 q 0,-0.71875 0.48438,-1.1875 0.48437,-0.46875 1.3125,-0.46875 0.8125,0 1.29687,0.46875 0.5,0.46875 0.5,1.1875 0,0.71875 -0.5,1.1875 -0.48437,0.46875 -1.29687,0.46875 -0.8125,0 -1.3125,-0.46875 -0.48438,-0.46875 -0.48438,-1.1875 z m 11.00696,12.70313 q 0.89063,0 1.4375,-0.48438 0.5625,-0.48437 0.57813,-1.29687 h 3 q -0.0156,1.21875 -0.67188,2.23437 -0.64062,1.01563 -1.78125,1.57813 -1.125,0.54687 -2.5,0.54687 -2.57812,0 -4.0625,-1.625 -1.46875,-1.64062 -1.46875,-4.51562 v -0.20313 q 0,-2.76562 1.46875,-4.40625 1.46875,-1.65625 4.03125,-1.65625 2.25,0 3.60938,1.28125 1.35937,1.26563 1.375,3.39063 h -3 q -0.0156,-0.92188 -0.57813,-1.5 -0.54687,-0.59375 -1.45312,-0.59375 -1.125,0 -1.70313,0.82812 -0.5625,0.8125 -0.5625,2.625 v 0.34375 q 0,1.84375 0.5625,2.65625 0.57813,0.79688 1.71875,0.79688 z"
     fill-rule="nonzero"
     id="path31"
     style="stroke:none" />
  <path
     fill="#999999"
     d="m 508.5328,68.14829 q 0,-0.57813 -0.57812,-0.90625 -0.57813,-0.34375 -1.85938,-0.60938 -4.26562,-0.90625 -4.26562,-3.64062 0,-1.59375 1.3125,-2.65625 1.32812,-1.0625 3.46875,-1.0625 2.26562,0 3.625,1.07812 1.375,1.0625 1.375,2.78125 h -3.1875 q 0,-0.6875 -0.45313,-1.125 -0.4375,-0.45312 -1.375,-0.45312 -0.8125,0 -1.25,0.35937 -0.4375,0.35938 -0.4375,0.92188 0,0.53125 0.5,0.85937 0.5,0.32813 1.6875,0.57813 1.20313,0.23437 2.01563,0.53125 2.53125,0.92187 2.53125,3.21875 0,1.64062 -1.40625,2.65625 -1.39063,1 -3.625,1 -1.5,0 -2.67188,-0.53125 -1.15625,-0.54688 -1.82812,-1.46875 -0.65625,-0.9375 -0.65625,-2.03125 h 3.03125 q 0.0312,0.85937 0.625,1.3125 0.59375,0.45312 1.57812,0.45312 0.90625,0 1.375,-0.34375 0.46875,-0.35937 0.46875,-0.92187 z m 9.64893,-1.21875 2.20312,-7.4375 h 3.4375 l -4.8125,13.82812 -0.26562,0.625 q -1.07813,2.34375 -3.54688,2.34375 -0.6875,0 -1.40625,-0.20312 v -2.42188 l 0.48438,0.0156 q 0.90625,0 1.34375,-0.28125 0.45312,-0.28125 0.70312,-0.92188 l 0.375,-0.98437 -4.1875,-12 h 3.4375 z m 13.37237,1.21875 q 0,-0.57813 -0.57812,-0.90625 -0.57813,-0.34375 -1.85938,-0.60938 -4.26562,-0.90625 -4.26562,-3.64062 0,-1.59375 1.3125,-2.65625 1.32812,-1.0625 3.46875,-1.0625 2.26562,0 3.625,1.07812 1.375,1.0625 1.375,2.78125 h -3.1875 q 0,-0.6875 -0.45313,-1.125 -0.4375,-0.45312 -1.375,-0.45312 -0.8125,0 -1.25,0.35937 -0.4375,0.35938 -0.4375,0.92188 0,0.53125 0.5,0.85937 0.5,0.32813 1.6875,0.57813 1.20313,0.23437 2.01563,0.53125 2.53125,0.92187 2.53125,3.21875 0,1.64062 -1.40625,2.65625 -1.39063,1 -3.625,1 -1.5,0 -2.67188,-0.53125 -1.15625,-0.54688 -1.82812,-1.46875 -0.65625,-0.9375 -0.65625,-2.03125 h 3.03125 q 0.0312,0.85937 0.625,1.3125 0.59375,0.45312 1.57812,0.45312 0.90625,0 1.375,-0.34375 0.46875,-0.35937 0.46875,-0.92187 z m 9.0083,-11.59375 v 2.9375 h 2.04688 v 2.34375 h -2.04688 v 5.96875 q 0,0.67187 0.25,0.96875 0.25,0.28125 0.96875,0.28125 0.53125,0 0.9375,-0.0781 v 2.42188 q -0.9375,0.28125 -1.9375,0.28125 -3.35937,0 -3.42187,-3.39063 v -6.45312 h -1.75 v -2.34375 h 1.75 v -2.9375 z m 9.32721,15.125 q -2.625,0 -4.28125,-1.60938 -1.65625,-1.625 -1.65625,-4.3125 v -0.29687 q 0,-1.8125 0.6875,-3.23438 0.70313,-1.42187 1.98438,-2.1875 1.28125,-0.76562 2.92187,-0.76562 2.45313,0 3.85938,1.54687 1.40625,1.54688 1.40625,4.39063 v 1.3125 h -7.625 q 0.15625,1.17187 0.9375,1.875 0.78125,0.70312 1.98437,0.70312 1.84375,0 2.875,-1.32812 l 1.57813,1.75 q -0.71875,1.01562 -1.95313,1.59375 -1.21875,0.5625 -2.71875,0.5625 z m -0.35937,-9.82813 q -0.95313,0 -1.54688,0.65625 -0.59375,0.64063 -0.75,1.82813 h 4.4375 v -0.25 q -0.0156,-1.0625 -0.57812,-1.64063 -0.54688,-0.59375 -1.5625,-0.59375 z m 10.09008,-2.35937 0.10938,1.34375 q 1.26562,-1.5625 3.4375,-1.5625 2.3125,0 3.17187,1.82812 1.26563,-1.82812 3.59375,-1.82812 1.95313,0 2.90625,1.14062 0.95313,1.125 0.95313,3.40625 v 7.64063 h -3.21875 v -7.64063 q 0,-1.01562 -0.40625,-1.48437 -0.39063,-0.46875 -1.39063,-0.46875 -1.4375,0 -1.98437,1.375 v 8.21875 h -3.1875 v -7.625 q 0,-1.03125 -0.42188,-1.5 -0.40625,-0.46875 -1.39062,-0.46875 -1.35938,0 -1.96875,1.125 v 8.46875 h -3.1875 V 59.49204 Z m 23.09839,8.65625 q 0,-0.57813 -0.57812,-0.90625 -0.57813,-0.34375 -1.85938,-0.60938 -4.26562,-0.90625 -4.26562,-3.64062 0,-1.59375 1.3125,-2.65625 1.32812,-1.0625 3.46875,-1.0625 2.26562,0 3.625,1.07812 1.375,1.0625 1.375,2.78125 h -3.1875 q 0,-0.6875 -0.45313,-1.125 -0.4375,-0.45312 -1.375,-0.45312 -0.8125,0 -1.25,0.35937 -0.4375,0.35938 -0.4375,0.92188 0,0.53125 0.5,0.85937 0.5,0.32813 1.6875,0.57813 1.20313,0.23437 2.01563,0.53125 2.53125,0.92187 2.53125,3.21875 0,1.64062 -1.40625,2.65625 -1.39063,1 -3.625,1 -1.5,0 -2.67188,-0.53125 -1.15625,-0.54688 -1.82812,-1.46875 -0.65625,-0.9375 -0.65625,-2.03125 h 3.03125 q 0.0312,0.85937 0.625,1.3125 0.59375,0.45312 1.57812,0.45312 0.90625,0 1.375,-0.34375 0.46875,-0.35937 0.46875,-0.92187 z"
     fill-rule="nonzero"
     id="path33"
     style="stroke:none" />
  <path
     fill="#efefef"
     d="M 736.40113,10 H 854.38538 V 89.40158 H 736.40113 Z"
     fill-rule="evenodd"
     id="path35"
     style="stroke:none" />
  <path
     fill="#999999"
     d="m 788.48213,56.38266 q 0,-0.75 0.51563,-1.21875 0.51562,-0.48438 1.29687,-0.48438 0.78125,0 1.29688,0.48438 0.51562,0.46875 0.51562,1.21875 0,0.76562 -0.51562,1.23437 -0.5,0.46875 -1.29688,0.46875 -0.79687,0 -1.3125,-0.46875 -0.5,-0.46875 -0.5,-1.23437 z m 5.23438,0 q 0,-0.75 0.51562,-1.21875 0.51563,-0.48438 1.29688,-0.48438 0.78125,0 1.29687,0.48438 0.51563,0.46875 0.51563,1.21875 0,0.76562 -0.51563,1.23437 -0.5,0.46875 -1.29687,0.46875 -0.79688,0 -1.3125,-0.46875 -0.5,-0.46875 -0.5,-1.23437 z m 5.125,0 q 0,-0.75 0.51562,-1.21875 0.51563,-0.48438 1.29688,-0.48438 0.78125,0 1.29687,0.48438 0.51563,0.46875 0.51563,1.21875 0,0.76562 -0.51563,1.23437 -0.5,0.46875 -1.29687,0.46875 -0.79688,0 -1.3125,-0.46875 -0.5,-0.46875 -0.5,-1.23437 z"
     fill-rule="nonzero"
     id="path37"
     style="stroke:none" />
  <path
     fill="#1700b3"
     fill-opacity="0.3333"
     d="m 107.28598,100.73674 h 747.0866 v 79.40157 h -747.0866 z"
     fill-rule="evenodd"
     id="path39"
     style="stroke:none" />
  <path
     stroke="#ffffff"
     stroke-width="1"
     stroke-linejoin="round"
     stroke-linecap="butt"
     d="m 107.28598,100.73674 h 747.0866 v 79.40157 h -747.0866 z"
     fill-rule="evenodd"
     id="path41"
     style="stroke:none" />
  <path
     fill="#1700b3"
     d="m 242.7462,143.33817 q -0.1875,2.59375 -1.92188,4.09375 -1.71875,1.48437 -4.5625,1.48437 -3.09375,0 -4.875,-2.07812 -1.76564,-2.09375 -1.76564,-5.73438 v -0.98437 q 0,-2.3125 0.8125,-4.07813 0.82814,-1.78125 2.34377,-2.71875 1.51562,-0.95312 3.53125,-0.95312 2.79687,0 4.5,1.5 1.70312,1.48437 1.96875,4.1875 h -3.32813 q -0.10937,-1.5625 -0.85937,-2.26563 -0.75,-0.70312 -2.28125,-0.70312 -1.65625,0 -2.48438,1.1875 -0.8125,1.1875 -0.84375,3.6875 v 1.21875 q 0,2.60937 0.78125,3.82812 0.79688,1.20313 2.5,1.20313 1.54688,0 2.29688,-0.70313 0.76562,-0.70312 0.875,-2.17187 z m 1.48016,-0.73438 q 0,-1.78125 0.6875,-3.17187 0.6875,-1.40625 1.96875,-2.15625 1.28125,-0.76563 3,-0.76563 2.42188,0 3.95313,1.48438 1.53125,1.48437 1.70312,4.01562 l 0.0156,0.82813 q 0,2.75 -1.53125,4.42187 -1.53125,1.65625 -4.125,1.65625 -2.59375,0 -4.14063,-1.65625 -1.53125,-1.65625 -1.53125,-4.51562 z m 3.1875,0.23438 q 0,1.70312 0.64063,2.60937 0.64062,0.89063 1.84375,0.89063 1.15625,0 1.8125,-0.89063 0.65625,-0.89062 0.65625,-2.84375 0,-1.67187 -0.65625,-2.59375 -0.65625,-0.92187 -1.82813,-0.92187 -1.1875,0 -1.82812,0.92187 -0.64063,0.90625 -0.64063,2.82813 z m 13.10739,-6.10938 0.10938,1.34375 q 1.26562,-1.5625 3.4375,-1.5625 2.3125,0 3.17187,1.82813 1.26563,-1.82813 3.59375,-1.82813 1.95313,0 2.90625,1.14063 0.95313,1.125 0.95313,3.40625 v 7.64062 h -3.21875 v -7.64062 q 0,-1.01563 -0.40625,-1.48438 -0.39063,-0.46875 -1.39063,-0.46875 -1.4375,0 -1.98437,1.375 v 8.21875 h -3.1875 v -7.625 q 0,-1.03125 -0.42188,-1.5 -0.40625,-0.46875 -1.39062,-0.46875 -1.35938,0 -1.96875,1.125 v 8.46875 h -3.1875 v -11.96875 z m 19.61402,0 0.10937,1.34375 q 1.26563,-1.5625 3.4375,-1.5625 2.3125,0 3.17188,1.82813 1.26562,-1.82813 3.59375,-1.82813 1.95312,0 2.90625,1.14063 0.95312,1.125 0.95312,3.40625 v 7.64062 h -3.21875 v -7.64062 q 0,-1.01563 -0.40625,-1.48438 -0.39062,-0.46875 -1.39062,-0.46875 -1.4375,0 -1.98438,1.375 v 8.21875 h -3.1875 v -7.625 q 0,-1.03125 -0.42187,-1.5 -0.40625,-0.46875 -1.39063,-0.46875 -1.35937,0 -1.96875,1.125 v 8.46875 h -3.1875 v -11.96875 z m 16.12967,5.875 q 0,-1.78125 0.6875,-3.17187 0.6875,-1.40625 1.96875,-2.15625 1.28125,-0.76563 3,-0.76563 2.42187,0 3.95312,1.48438 1.53125,1.48437 1.70313,4.01562 l 0.0156,0.82813 q 0,2.75 -1.53125,4.42187 -1.53125,1.65625 -4.125,1.65625 -2.59375,0 -4.14062,-1.65625 -1.53125,-1.65625 -1.53125,-4.51562 z m 3.1875,0.23438 q 0,1.70312 0.64062,2.60937 0.64063,0.89063 1.84375,0.89063 1.15625,0 1.8125,-0.89063 0.65625,-0.89062 0.65625,-2.84375 0,-1.67187 -0.65625,-2.59375 -0.65625,-0.92187 -1.82812,-0.92187 -1.1875,0 -1.82813,0.92187 -0.64062,0.90625 -0.64062,2.82813 z m 13.06051,-6.10938 0.0937,1.375 q 1.28125,-1.59375 3.4375,-1.59375 1.90625,0 2.82813,1.125 0.9375,1.10938 0.96875,3.32813 v 7.73437 h -3.20313 v -7.65625 q 0,-1.01562 -0.45312,-1.46875 -0.4375,-0.46875 -1.45313,-0.46875 -1.35937,0 -2.03125,1.15625 v 8.4375 h -3.20312 v -11.96875 z m 18.50263,1.29688 q 1.28125,-1.51563 3.20312,-1.51563 3.89063,0 3.95313,4.51563 v 7.67187 h -3.20313 v -7.57812 q 0,-1.03125 -0.45312,-1.51563 -0.4375,-0.5 -1.45313,-0.5 -1.40625,0 -2.04687,1.09375 v 8.5 h -3.1875 v -17 h 3.1875 z m 12.94339,10.67187 h -3.21875 v -11.96875 h 3.21875 z m -3.40625,-15.0625 q 0,-0.71875 0.48437,-1.1875 0.48438,-0.46875 1.3125,-0.46875 0.8125,0 1.29688,0.46875 0.5,0.46875 0.5,1.1875 0,0.71875 -0.5,1.1875 -0.48438,0.46875 -1.29688,0.46875 -0.8125,0 -1.3125,-0.46875 -0.48437,-0.46875 -0.48437,-1.1875 z m 5.56952,8.98438 q 0,-2.75 1.3125,-4.42188 1.3125,-1.6875 3.53125,-1.6875 1.96875,0 3.0625,1.34375 l 0.14062,-1.125 h 2.89063 v 11.57813 q 0,1.5625 -0.71875,2.71875 -0.70313,1.17187 -2,1.78125 -1.29688,0.60937 -3.03125,0.60937 -1.3125,0 -2.5625,-0.53125 -1.25,-0.53125 -1.89063,-1.35937 l 1.40625,-1.9375 q 1.20313,1.32812 2.90625,1.32812 1.26563,0 1.96875,-0.6875 0.71875,-0.67187 0.71875,-1.92187 v -0.64063 q -1.10937,1.25 -2.90625,1.25 -2.17187,0 -3.5,-1.6875 -1.32812,-1.6875 -1.32812,-4.46875 z m 3.1875,0.23437 q 0,1.625 0.65625,2.54688 0.65625,0.92187 1.79687,0.92187 1.45313,0 2.09375,-1.09375 v -5.03125 q -0.64062,-1.09375 -2.07812,-1.09375 -1.14063,0 -1.8125,0.95313 -0.65625,0.9375 -0.65625,2.79687 z m 13.32281,-4.82812 q 1.28125,-1.51563 3.20313,-1.51563 3.89062,0 3.95312,4.51563 v 7.67187 h -3.20312 v -7.57812 q 0,-1.03125 -0.45313,-1.51563 -0.4375,-0.5 -1.45312,-0.5 -1.40625,0 -2.04688,1.09375 v 8.5 h -3.1875 v -17 h 3.1875 z m 15.77155,5.0625 h -6.21875 v -2.57813 h 6.21875 z m 5.95557,5.60937 h -3.21875 v -17 h 3.21875 z m 8.13201,0.21875 q -2.625,0 -4.28125,-1.60937 -1.65625,-1.625 -1.65625,-4.3125 v -0.29688 q 0,-1.8125 0.6875,-3.23437 0.70313,-1.42188 1.98438,-2.1875 1.28125,-0.76563 2.92187,-0.76563 2.45313,0 3.85938,1.54688 1.40625,1.54687 1.40625,4.39062 v 1.3125 h -7.625 q 0.15625,1.17188 0.9375,1.875 0.78125,0.70313 1.98437,0.70313 1.84375,0 2.875,-1.32813 l 1.57813,1.75 q -0.71875,1.01563 -1.95313,1.59375 -1.21875,0.5625 -2.71875,0.5625 z m -0.35937,-9.82812 q -0.95313,0 -1.54688,0.65625 -0.59375,0.64062 -0.75,1.82812 h 4.4375 v -0.25 q -0.0156,-1.0625 -0.57812,-1.64062 -0.54688,-0.59375 -1.5625,-0.59375 z m 11.43057,5.70312 2.23438,-8.0625 h 3.32812 l -4.03125,11.96875 h -3.04687 l -4.04688,-11.96875 h 3.34375 z m 12.33719,4.125 q -2.625,0 -4.28125,-1.60937 -1.65625,-1.625 -1.65625,-4.3125 v -0.29688 q 0,-1.8125 0.6875,-3.23437 0.70313,-1.42188 1.98438,-2.1875 1.28125,-0.76563 2.92187,-0.76563 2.45313,0 3.85938,1.54688 1.40625,1.54687 1.40625,4.39062 v 1.3125 h -7.625 q 0.15625,1.17188 0.9375,1.875 0.78125,0.70313 1.98437,0.70313 1.84375,0 2.875,-1.32813 l 1.57813,1.75 q -0.71875,1.01563 -1.95313,1.59375 -1.21875,0.5625 -2.71875,0.5625 z m -0.35937,-9.82812 q -0.95313,0 -1.54688,0.65625 -0.59375,0.64062 -0.75,1.82812 h 4.4375 v -0.25 q -0.0156,-1.0625 -0.57812,-1.64062 -0.54688,-0.59375 -1.5625,-0.59375 z m 10.48071,9.60937 h -3.21875 v -17 h 3.21875 z m 13.24267,-2.35937 q 0.89063,0 1.4375,-0.48438 0.5625,-0.48437 0.57813,-1.29687 h 3 q -0.0156,1.21875 -0.67188,2.23437 -0.64062,1.01563 -1.78125,1.57813 -1.125,0.54687 -2.5,0.54687 -2.57812,0 -4.0625,-1.625 -1.46875,-1.64062 -1.46875,-4.51562 v -0.20313 q 0,-2.76562 1.46875,-4.40625 1.46875,-1.65625 4.03125,-1.65625 2.25,0 3.60938,1.28125 1.35937,1.26563 1.375,3.39063 h -3 q -0.0156,-0.92188 -0.57813,-1.5 -0.54687,-0.59375 -1.45312,-0.59375 -1.125,0 -1.70313,0.82812 -0.5625,0.8125 -0.5625,2.625 v 0.34375 q 0,1.84375 0.5625,2.65625 0.57813,0.79688 1.71875,0.79688 z m 6.34613,-3.73438 q 0,-1.78125 0.6875,-3.17187 0.6875,-1.40625 1.96875,-2.15625 1.28125,-0.76563 3,-0.76563 2.42188,0 3.95313,1.48438 1.53125,1.48437 1.70312,4.01562 l 0.0156,0.82813 q 0,2.75 -1.53125,4.42187 -1.53125,1.65625 -4.125,1.65625 -2.59375,0 -4.14063,-1.65625 -1.53125,-1.65625 -1.53125,-4.51562 z m 3.1875,0.23438 q 0,1.70312 0.64063,2.60937 0.64062,0.89063 1.84375,0.89063 1.15625,0 1.8125,-0.89063 0.65625,-0.89062 0.65625,-2.84375 0,-1.67187 -0.65625,-2.59375 -0.65625,-0.92187 -1.82813,-0.92187 -1.1875,0 -1.82812,0.92187 -0.64063,0.90625 -0.64063,2.82813 z m 13.1074,-6.10938 0.10937,1.34375 q 1.26563,-1.5625 3.4375,-1.5625 2.3125,0 3.17188,1.82813 1.26562,-1.82813 3.59375,-1.82813 1.95312,0 2.90625,1.14063 0.95312,1.125 0.95312,3.40625 v 7.64062 h -3.21875 v -7.64062 q 0,-1.01563 -0.40625,-1.48438 -0.39062,-0.46875 -1.39062,-0.46875 -1.4375,0 -1.98438,1.375 v 8.21875 h -3.1875 v -7.625 q 0,-1.03125 -0.42187,-1.5 -0.40625,-0.46875 -1.39063,-0.46875 -1.35937,0 -1.96875,1.125 v 8.46875 h -3.1875 v -11.96875 z m 19.61404,0 0.10937,1.34375 q 1.26563,-1.5625 3.4375,-1.5625 2.31247,0 3.17185,1.82813 1.26562,-1.82813 3.59375,-1.82813 1.95312,0 2.90625,1.14063 0.95312,1.125 0.95312,3.40625 v 7.64062 h -3.21875 v -7.64062 q 0,-1.01563 -0.40625,-1.48438 -0.39062,-0.46875 -1.39062,-0.46875 -1.4375,0 -1.98438,1.375 v 8.21875 h -3.18747 v -7.625 q 0,-1.03125 -0.42187,-1.5 -0.40625,-0.46875 -1.39063,-0.46875 -1.35937,0 -1.96875,1.125 v 8.46875 h -3.1875 v -11.96875 z m 23.78586,10.75 q -1.17188,1.4375 -3.26563,1.4375 -1.92187,0 -2.9375,-1.09375 -1.01562,-1.10937 -1.03125,-3.25 v -7.84375 h 3.1875 v 7.73438 q 0,1.85937 1.70313,1.85937 1.625,0 2.23437,-1.125 v -8.46875 h 3.21875 v 11.96875 h -3.01562 z m 8.45904,-10.75 0.0937,1.375 q 1.28125,-1.59375 3.4375,-1.59375 1.90625,0 2.82813,1.125 0.9375,1.10938 0.96875,3.32813 v 7.73437 H 517.889 v -7.65625 q 0,-1.01562 -0.45312,-1.46875 -0.4375,-0.46875 -1.45313,-0.46875 -1.35937,0 -2.03125,1.15625 v 8.4375 h -3.20312 v -11.96875 z m 13.12628,11.96875 h -3.21875 v -11.96875 h 3.21875 z m -3.40625,-15.0625 q 0,-0.71875 0.48438,-1.1875 0.48437,-0.46875 1.3125,-0.46875 0.8125,0 1.29687,0.46875 0.5,0.46875 0.5,1.1875 0,0.71875 -0.5,1.1875 -0.48437,0.46875 -1.29687,0.46875 -0.8125,0 -1.3125,-0.46875 -0.48438,-0.46875 -0.48438,-1.1875 z m 11.00702,12.70313 q 0.89063,0 1.4375,-0.48438 0.5625,-0.48437 0.57813,-1.29687 h 3 q -0.0156,1.21875 -0.67188,2.23437 -0.64062,1.01563 -1.78125,1.57813 -1.125,0.54687 -2.5,0.54687 -2.57812,0 -4.0625,-1.625 -1.46875,-1.64062 -1.46875,-4.51562 v -0.20313 q 0,-2.76562 1.46875,-4.40625 1.46875,-1.65625 4.03125,-1.65625 2.25,0 3.60938,1.28125 1.35937,1.26563 1.375,3.39063 h -3 q -0.0156,-0.92188 -0.57813,-1.5 -0.54687,-0.59375 -1.45312,-0.59375 -1.125,0 -1.70313,0.82812 -0.5625,0.8125 -0.5625,2.625 v 0.34375 q 0,1.84375 0.5625,2.65625 0.57813,0.79688 1.71875,0.79688 z m 13.78363,2.35937 q -0.23437,-0.4375 -0.32812,-1.07812 -1.15625,1.29687 -3.01563,1.29687 -1.76562,0 -2.92187,-1.01562 -1.15625,-1.01563 -1.15625,-2.5625 0,-1.90625 1.40625,-2.92188 1.42187,-1.01562 4.07812,-1.03125 h 1.46875 v -0.6875 q 0,-0.82812 -0.42187,-1.32812 -0.42188,-0.5 -1.34375,-0.5 -0.79688,0 -1.26563,0.39062 -0.45312,0.39063 -0.45312,1.0625 h -3.20313 q 0,-1.04687 0.64063,-1.92187 0.64062,-0.89063 1.8125,-1.39063 1.17187,-0.5 2.64062,-0.5 2.20313,0 3.5,1.10938 1.3125,1.10937 1.3125,3.125 v 5.1875 q 0.0156,1.70312 0.46875,2.57812 v 0.1875 z m -2.65625,-2.21875 q 0.71875,0 1.3125,-0.3125 0.59375,-0.32812 0.875,-0.85937 v -2.04688 h -1.1875 q -2.40625,0 -2.5625,1.65625 v 0.1875 q 0,0.59375 0.42188,0.98438 0.42187,0.39062 1.14062,0.39062 z m 11.69367,-12.6875 v 2.9375 h 2.04687 v 2.34375 h -2.04687 v 5.96875 q 0,0.67188 0.25,0.96875 0.25,0.28125 0.96875,0.28125 0.53125,0 0.9375,-0.0781 v 2.42187 q -0.9375,0.28125 -1.9375,0.28125 -3.35938,0 -3.42188,-3.39062 v -6.45313 h -1.75 v -2.34375 h 1.75 v -2.9375 z m 7.20221,14.90625 h -3.21875 v -11.96875 h 3.21875 z m -3.40625,-15.0625 q 0,-0.71875 0.48437,-1.1875 0.48438,-0.46875 1.3125,-0.46875 0.8125,0 1.29688,0.46875 0.5,0.46875 0.5,1.1875 0,0.71875 -0.5,1.1875 -0.48438,0.46875 -1.29688,0.46875 -0.8125,0 -1.3125,-0.46875 -0.48437,-0.46875 -0.48437,-1.1875 z m 5.53821,8.96875 q 0,-1.78125 0.6875,-3.17187 0.6875,-1.40625 1.96875,-2.15625 1.28125,-0.76563 3,-0.76563 2.42187,0 3.95312,1.48438 1.53125,1.48437 1.70313,4.01562 l 0.0156,0.82813 q 0,2.75 -1.53125,4.42187 -1.53125,1.65625 -4.125,1.65625 -2.59375,0 -4.14062,-1.65625 -1.53125,-1.65625 -1.53125,-4.51562 z m 3.1875,0.23438 q 0,1.70312 0.64062,2.60937 0.64063,0.89063 1.84375,0.89063 1.15625,0 1.8125,-0.89063 0.65625,-0.89062 0.65625,-2.84375 0,-1.67187 -0.65625,-2.59375 -0.65625,-0.92187 -1.82812,-0.92187 -1.1875,0 -1.82813,0.92187 -0.64062,0.90625 -0.64062,2.82813 z m 13.06054,-6.10938 0.0937,1.375 q 1.28125,-1.59375 3.4375,-1.59375 1.90625,0 2.82813,1.125 0.9375,1.10938 0.96875,3.32813 v 7.73437 h -3.20313 v -7.65625 q 0,-1.01562 -0.45312,-1.46875 -0.4375,-0.46875 -1.45313,-0.46875 -1.35937,0 -2.03125,1.15625 v 8.4375 h -3.20312 v -11.96875 z m 22.112,3 q -0.65625,-0.0937 -1.15625,-0.0937 -1.8125,0 -2.375,1.23438 v 7.82812 h -3.1875 v -11.96875 h 3.01563 l 0.0937,1.42188 q 0.95312,-1.64063 2.65625,-1.64063 0.53125,0 1,0.14063 z m 6.83472,9.1875 q -2.625,0 -4.28125,-1.60937 -1.65625,-1.625 -1.65625,-4.3125 v -0.29688 q 0,-1.8125 0.6875,-3.23437 0.70313,-1.42188 1.98438,-2.1875 1.28125,-0.76563 2.92187,-0.76563 2.45313,0 3.85938,1.54688 1.40625,1.54687 1.40625,4.39062 v 1.3125 h -7.625 q 0.15625,1.17188 0.9375,1.875 0.78125,0.70313 1.98437,0.70313 1.84375,0 2.875,-1.32813 l 1.57813,1.75 q -0.71875,1.01563 -1.95313,1.59375 -1.21875,0.5625 -2.71875,0.5625 z m -0.35937,-9.82812 q -0.95313,0 -1.54688,0.65625 -0.59375,0.64062 -0.75,1.82812 h 4.4375 v -0.25 q -0.0156,-1.0625 -0.57812,-1.64062 -0.54688,-0.59375 -1.5625,-0.59375 z m 6.60571,3.51562 q 0,-2.82812 1.25,-4.45312 1.25,-1.64063 3.45312,-1.64063 1.92188,0 3.0625,1.46875 l 0.20313,-1.25 h 2.8125 v 16.57813 h -3.20313 v -5.64063 q -1.10937,1.25 -2.90625,1.25 -2.125,0 -3.40625,-1.65625 -1.26562,-1.65625 -1.26562,-4.65625 z m 3.1875,0.23438 q 0,1.70312 0.60937,2.60937 0.60938,0.89063 1.70313,0.89063 1.46875,0 2.07812,-1.17188 v -4.9375 q -0.60937,-1.14062 -2.0625,-1.14062 -1.10937,0 -1.71875,0.90625 -0.60937,0.89062 -0.60937,2.84375 z m 17.26819,4.64062 q -1.17188,1.4375 -3.26563,1.4375 -1.92187,0 -2.9375,-1.09375 -1.01562,-1.10937 -1.03125,-3.25 v -7.84375 h 3.1875 v 7.73438 q 0,1.85937 1.70313,1.85937 1.625,0 2.23437,-1.125 v -8.46875 h 3.21875 v 11.96875 h -3.01562 z m 8.89654,1.21875 h -3.21875 v -11.96875 h 3.21875 z m -3.40625,-15.0625 q 0,-0.71875 0.48438,-1.1875 0.48437,-0.46875 1.3125,-0.46875 0.8125,0 1.29687,0.46875 0.5,0.46875 0.5,1.1875 0,0.71875 -0.5,1.1875 -0.48437,0.46875 -1.29687,0.46875 -0.8125,0 -1.3125,-0.46875 -0.48438,-0.46875 -0.48438,-1.1875 z m 12.75696,6.09375 q -0.65625,-0.0937 -1.15625,-0.0937 -1.8125,0 -2.375,1.23438 v 7.82812 h -3.1875 v -11.96875 h 3.01562 l 0.0937,1.42188 q 0.95313,-1.64063 2.65625,-1.64063 0.53125,0 1,0.14063 z m 6.83472,9.1875 q -2.625,0 -4.28125,-1.60937 -1.65625,-1.625 -1.65625,-4.3125 v -0.29688 q 0,-1.8125 0.6875,-3.23437 0.70312,-1.42188 1.98437,-2.1875 1.28125,-0.76563 2.92188,-0.76563 2.45312,0 3.85937,1.54688 1.40625,1.54687 1.40625,4.39062 v 1.3125 h -7.625 q 0.15625,1.17188 0.9375,1.875 0.78125,0.70313 1.98438,0.70313 1.84375,0 2.875,-1.32813 l 1.57812,1.75 q -0.71875,1.01563 -1.95312,1.59375 -1.21875,0.5625 -2.71875,0.5625 z m -0.35938,-9.82812 q -0.95312,0 -1.54687,0.65625 -0.59375,0.64062 -0.75,1.82812 h 4.4375 v -0.25 q -0.0156,-1.0625 -0.57813,-1.64062 -0.54687,-0.59375 -1.5625,-0.59375 z m 10.09009,-2.35938 0.10937,1.34375 q 1.26563,-1.5625 3.4375,-1.5625 2.3125,0 3.17188,1.82813 1.26562,-1.82813 3.59375,-1.82813 1.95312,0 2.90625,1.14063 0.95312,1.125 0.95312,3.40625 v 7.64062 h -3.21875 v -7.64062 q 0,-1.01563 -0.40625,-1.48438 -0.39062,-0.46875 -1.39062,-0.46875 -1.4375,0 -1.98438,1.375 v 8.21875 h -3.1875 v -7.625 q 0,-1.03125 -0.42187,-1.5 -0.40625,-0.46875 -1.39063,-0.46875 -1.35937,0 -1.96875,1.125 v 8.46875 h -3.1875 v -11.96875 z m 22.12964,12.1875 q -2.625,0 -4.28125,-1.60937 -1.65625,-1.625 -1.65625,-4.3125 v -0.29688 q 0,-1.8125 0.6875,-3.23437 0.70312,-1.42188 1.98437,-2.1875 1.28125,-0.76563 2.92188,-0.76563 2.45312,0 3.85937,1.54688 1.40625,1.54687 1.40625,4.39062 v 1.3125 h -7.625 q 0.15625,1.17188 0.9375,1.875 0.78125,0.70313 1.98438,0.70313 1.84375,0 2.875,-1.32813 l 1.57812,1.75 q -0.71875,1.01563 -1.95312,1.59375 -1.21875,0.5625 -2.71875,0.5625 z m -0.35938,-9.82812 q -0.95312,0 -1.54687,0.65625 -0.59375,0.64062 -0.75,1.82812 h 4.4375 v -0.25 q -0.0156,-1.0625 -0.57813,-1.64062 -0.54687,-0.59375 -1.5625,-0.59375 z m 10.04322,-2.35938 0.0937,1.375 q 1.28125,-1.59375 3.4375,-1.59375 1.90625,0 2.82812,1.125 0.9375,1.10938 0.96875,3.32813 v 7.73437 h -3.20312 v -7.65625 q 0,-1.01562 -0.45313,-1.46875 -0.4375,-0.46875 -1.45312,-0.46875 -1.35938,0 -2.03125,1.15625 v 8.4375 h -3.20313 v -11.96875 z m 13.57946,-2.9375 v 2.9375 h 2.04688 v 2.34375 h -2.04688 v 5.96875 q 0,0.67188 0.25,0.96875 0.25,0.28125 0.96875,0.28125 0.53125,0 0.9375,-0.0781 v 2.42187 q -0.9375,0.28125 -1.9375,0.28125 -3.35937,0 -3.42187,-3.39062 v -6.45313 h -1.75 v -2.34375 h 1.75 v -2.9375 z m 10.29596,11.59375 q 0,-0.57812 -0.57812,-0.90625 -0.57813,-0.34375 -1.85938,-0.60937 -4.26562,-0.90625 -4.26562,-3.64063 0,-1.59375 1.3125,-2.65625 1.32812,-1.0625 3.46875,-1.0625 2.26562,0 3.625,1.07813 1.375,1.0625 1.375,2.78125 h -3.1875 q 0,-0.6875 -0.45313,-1.125 -0.4375,-0.45313 -1.375,-0.45313 -0.8125,0 -1.25,0.35938 -0.4375,0.35937 -0.4375,0.92187 0,0.53125 0.5,0.85938 0.5,0.32812 1.6875,0.57812 1.20313,0.23438 2.01563,0.53125 2.53125,0.92188 2.53125,3.21875 0,1.64063 -1.40625,2.65625 -1.39063,1 -3.625,1 -1.5,0 -2.67188,-0.53125 -1.15625,-0.54687 -1.82812,-1.46875 -0.65625,-0.9375 -0.65625,-2.03125 h 3.03125 q 0.0312,0.85938 0.625,1.3125 0.59375,0.45313 1.57812,0.45313 0.90625,0 1.375,-0.34375 0.46875,-0.35938 0.46875,-0.92188 z"
     fill-rule="nonzero"
     id="path43"
     style="stroke:none" />
  <path
     fill="#1700b3"
     fill-opacity="0.3333"
     d="m 107.28598,191.47223 h 141.85826 v 79.40158 H 107.28598 Z"
     fill-rule="evenodd"
     id="path45"
     style="stroke:none" />
  <path
     stroke="#ffffff"
     stroke-width="1"
     stroke-linejoin="round"
     stroke-linecap="butt"
     d="m 107.28598,191.47223 h 141.85826 v 79.40158 H 107.28598 Z"
     fill-rule="evenodd"
     id="path47"
     style="stroke:none" />
  <path
     fill="#1700b3"
     d="m 146.25121,232.44864 h -6.375 v 4.3125 h 7.48437 v 2.67187 h -10.79687 v -16.10937 h 10.78125 v 2.6875 h -7.46875 v 3.84375 h 6.375 z m 6.68164,-7.92188 v 2.9375 h 2.04688 v 2.34375 h -2.04688 v 5.96875 q 0,0.67188 0.25,0.96875 0.25,0.28125 0.96875,0.28125 0.53125,0 0.9375,-0.0781 v 2.42187 q -0.9375,0.28125 -1.9375,0.28125 -3.35937,0 -3.42187,-3.39062 v -6.45313 h -1.75 v -2.34375 h 1.75 v -2.9375 z m 6.93659,4.23438 q 1.28125,-1.51563 3.20312,-1.51563 3.89063,0 3.95313,4.51563 v 7.67187 h -3.20313 v -7.57812 q 0,-1.03125 -0.45312,-1.51563 -0.4375,-0.5 -1.45313,-0.5 -1.40625,0 -2.04687,1.09375 v 8.5 h -3.1875 v -17 h 3.1875 z m 15.06839,10.89062 q -2.625,0 -4.28125,-1.60937 -1.65625,-1.625 -1.65625,-4.3125 v -0.29688 q 0,-1.8125 0.6875,-3.23437 0.70312,-1.42188 1.98437,-2.1875 1.28125,-0.76563 2.92188,-0.76563 2.45312,0 3.85937,1.54688 1.40625,1.54687 1.40625,4.39062 v 1.3125 h -7.625 q 0.15625,1.17188 0.9375,1.875 0.78125,0.70313 1.98438,0.70313 1.84375,0 2.875,-1.32813 l 1.57812,1.75 q -0.71875,1.01563 -1.95312,1.59375 -1.21875,0.5625 -2.71875,0.5625 z m -0.35938,-9.82812 q -0.95312,0 -1.54687,0.65625 -0.59375,0.64062 -0.75,1.82812 h 4.4375 v -0.25 q -0.0156,-1.0625 -0.57813,-1.64062 -0.54687,-0.59375 -1.5625,-0.59375 z m 13.82445,0.64062 q -0.65625,-0.0937 -1.15625,-0.0937 -1.8125,0 -2.375,1.23438 v 7.82812 h -3.1875 v -11.96875 h 3.01562 l 0.0937,1.42188 q 0.95313,-1.64063 2.65625,-1.64063 0.53125,0 1,0.14063 z m 4.48253,-3 0.0937,1.375 q 1.28125,-1.59375 3.4375,-1.59375 1.90625,0 2.82812,1.125 0.9375,1.10938 0.96875,3.32813 v 7.73437 h -3.20312 v -7.65625 q 0,-1.01562 -0.45313,-1.46875 -0.4375,-0.46875 -1.45312,-0.46875 -1.35938,0 -2.03125,1.15625 v 8.4375 h -3.20313 v -11.96875 z m 15.25132,12.1875 q -2.625,0 -4.28125,-1.60937 -1.65625,-1.625 -1.65625,-4.3125 v -0.29688 q 0,-1.8125 0.6875,-3.23437 0.70313,-1.42188 1.98438,-2.1875 1.28125,-0.76563 2.92187,-0.76563 2.45313,0 3.85938,1.54688 1.40625,1.54687 1.40625,4.39062 v 1.3125 h -7.625 q 0.15625,1.17188 0.9375,1.875 0.78125,0.70313 1.98437,0.70313 1.84375,0 2.875,-1.32813 l 1.57813,1.75 q -0.71875,1.01563 -1.95313,1.59375 -1.21875,0.5625 -2.71875,0.5625 z m -0.35937,-9.82812 q -0.95313,0 -1.54688,0.65625 -0.59375,0.64062 -0.75,1.82812 h 4.4375 v -0.25 q -0.0156,-1.0625 -0.57812,-1.64062 -0.54688,-0.59375 -1.5625,-0.59375 z m 10.93382,-5.29688 v 2.9375 h 2.04688 v 2.34375 h -2.04688 v 5.96875 q 0,0.67188 0.25,0.96875 0.25,0.28125 0.96875,0.28125 0.53125,0 0.9375,-0.0781 v 2.42187 q -0.9375,0.28125 -1.9375,0.28125 -3.35937,0 -3.42187,-3.39062 v -6.45313 h -1.75 v -2.34375 h 1.75 v -2.9375 z"
     fill-rule="nonzero"
     id="path49"
     style="stroke:none" />
  <path
     fill="#1700b3"
     fill-opacity="0.3333"
     d="m 258.59323,191.47223 h 141.85825 v 79.40158 H 258.59323 Z"
     fill-rule="evenodd"
     id="path51"
     style="stroke:none" />
  <path
     stroke="#ffffff"
     stroke-width="1"
     stroke-linejoin="round"
     stroke-linecap="butt"
     d="m 258.59323,191.47223 h 141.85825 v 79.40158 H 258.59323 Z"
     fill-rule="evenodd"
     id="path53"
     style="stroke:none" />
  <path
     fill="#1700b3"
     d="m 320.56807,234.07364 q -0.1875,2.59375 -1.92188,4.09375 -1.71875,1.48437 -4.5625,1.48437 -3.09375,0 -4.875,-2.07812 -1.76562,-2.09375 -1.76562,-5.73438 v -0.98437 q 0,-2.3125 0.8125,-4.07813 0.82812,-1.78125 2.34375,-2.71875 1.51562,-0.95312 3.53125,-0.95312 2.79687,0 4.5,1.5 1.70312,1.48437 1.96875,4.1875 h -3.32813 q -0.10937,-1.5625 -0.85937,-2.26563 -0.75,-0.70312 -2.28125,-0.70312 -1.65625,0 -2.48438,1.1875 -0.8125,1.1875 -0.84375,3.6875 v 1.21875 q 0,2.60937 0.78125,3.82812 0.79688,1.20313 2.5,1.20313 1.54688,0 2.29688,-0.70313 0.76562,-0.70312 0.875,-2.17187 z m 11.27707,2.04687 h -5.8125 l -1.10938,3.3125 h -3.53128 l 6.00003,-16.10937 h 3.07813 l 6.01562,16.10937 h -3.51562 z m -4.92188,-2.6875 h 4.03125 l -2.03125,-6.03125 z m 24.16617,6 h -3.3125 l -6.46875,-10.59375 v 10.59375 h -3.3125 v -16.10937 h 3.3125 l 6.48438,10.625 v -10.625 h 3.29687 z"
     fill-rule="nonzero"
     id="path55"
     style="stroke:none" />
  <path
     fill="#1700b3"
     fill-opacity="0.3333"
     d="m 409.90041,191.47223 h 141.85828 v 79.40158 H 409.90041 Z"
     fill-rule="evenodd"
     id="path57"
     style="stroke:none" />
  <path
     stroke="#ffffff"
     stroke-width="1"
     stroke-linejoin="round"
     stroke-linecap="butt"
     d="m 409.90041,191.47223 h 141.85828 v 79.40158 H 409.90041 Z"
     fill-rule="evenodd"
     id="path59"
     style="stroke:none" />
  <path
     fill="#1700b3"
     d="m 450.97833,234.7924 2.17187,-11.46875 h 3.29688 l -3.5625,16.10938 h -3.34375 l -2.625,-10.78125 -2.625,10.78125 h -3.34375 l -3.5625,-16.10938 h 3.29687 l 2.1875,11.4375 2.65625,-11.4375 h 2.8125 z m 10.43817,4.64063 h -3.21875 v -11.96875 h 3.21875 z m -3.40625,-15.0625 q 0,-0.71875 0.48438,-1.1875 0.48437,-0.46875 1.3125,-0.46875 0.8125,0 1.29687,0.46875 0.5,0.46875 0.5,1.1875 0,0.71875 -0.5,1.1875 -0.48437,0.46875 -1.29687,0.46875 -0.8125,0 -1.3125,-0.46875 -0.48438,-0.46875 -0.48438,-1.1875 z m 12.75699,6.09375 q -0.65625,-0.0937 -1.15625,-0.0937 -1.8125,0 -2.375,1.23437 v 7.82813 h -3.1875 v -11.96875 h 3.01562 l 0.0937,1.42187 q 0.95313,-1.64062 2.65625,-1.64062 0.53125,0 1,0.14062 z m 6.83475,9.1875 q -2.625,0 -4.28125,-1.60938 -1.65625,-1.625 -1.65625,-4.3125 v -0.29687 q 0,-1.8125 0.6875,-3.23438 0.70312,-1.42187 1.98437,-2.1875 1.28125,-0.76562 2.92188,-0.76562 2.45312,0 3.85937,1.54687 1.40625,1.54688 1.40625,4.39063 v 1.3125 h -7.625 q 0.15625,1.17187 0.9375,1.875 0.78125,0.70312 1.98438,0.70312 1.84375,0 2.875,-1.32812 l 1.57812,1.75 q -0.71875,1.01562 -1.95312,1.59375 -1.21875,0.5625 -2.71875,0.5625 z m -0.35938,-9.82813 q -0.95312,0 -1.54687,0.65625 -0.59375,0.64063 -0.75,1.82813 h 4.4375 v -0.25 q -0.0156,-1.0625 -0.57813,-1.64063 -0.54687,-0.59375 -1.5625,-0.59375 z m 10.48068,9.60938 h -3.21872 v -17 h 3.21872 z m 8.13202,0.21875 q -2.625,0 -4.28125,-1.60938 -1.65625,-1.625 -1.65625,-4.3125 v -0.29687 q 0,-1.8125 0.6875,-3.23438 0.70313,-1.42187 1.98438,-2.1875 1.28125,-0.76562 2.92187,-0.76562 2.45313,0 3.85938,1.54687 1.40625,1.54688 1.40625,4.39063 v 1.3125 h -7.625 q 0.15625,1.17187 0.9375,1.875 0.78125,0.70312 1.98437,0.70312 1.84375,0 2.875,-1.32812 l 1.57813,1.75 q -0.71875,1.01562 -1.95313,1.59375 -1.21875,0.5625 -2.71875,0.5625 z m -0.35937,-9.82813 q -0.95313,0 -1.54688,0.65625 -0.59375,0.64063 -0.75,1.82813 h 4.4375 v -0.25 q -0.0156,-1.0625 -0.57812,-1.64063 -0.54688,-0.59375 -1.5625,-0.59375 z m 13.57446,6.29688 q 0,-0.57813 -0.57812,-0.90625 -0.57813,-0.34375 -1.85938,-0.60938 -4.26562,-0.90625 -4.26562,-3.64062 0,-1.59375 1.3125,-2.65625 1.32812,-1.0625 3.46875,-1.0625 2.26562,0 3.625,1.07812 1.375,1.0625 1.375,2.78125 h -3.1875 q 0,-0.6875 -0.45313,-1.125 -0.4375,-0.45312 -1.375,-0.45312 -0.8125,0 -1.25,0.35937 -0.4375,0.35938 -0.4375,0.92188 0,0.53125 0.5,0.85937 0.5,0.32813 1.6875,0.57813 1.20313,0.23437 2.01563,0.53125 2.53125,0.92187 2.53125,3.21875 0,1.64062 -1.40625,2.65625 -1.39063,1 -3.625,1 -1.5,0 -2.67188,-0.53125 -1.15625,-0.54688 -1.82812,-1.46875 -0.65625,-0.9375 -0.65625,-2.03125 h 3.03125 q 0.0312,0.85937 0.625,1.3125 0.59375,0.45312 1.57812,0.45312 0.90625,0 1.375,-0.34375 0.46875,-0.35937 0.46875,-0.92187 z m 11.64893,0 q 0,-0.57813 -0.57813,-0.90625 -0.57812,-0.34375 -1.85937,-0.60938 -4.26563,-0.90625 -4.26563,-3.64062 0,-1.59375 1.3125,-2.65625 1.32813,-1.0625 3.46875,-1.0625 2.26563,0 3.625,1.07812 1.375,1.0625 1.375,2.78125 h -3.1875 q 0,-0.6875 -0.45312,-1.125 -0.4375,-0.45312 -1.375,-0.45312 -0.8125,0 -1.25,0.35937 -0.4375,0.35938 -0.4375,0.92188 0,0.53125 0.5,0.85937 0.5,0.32813 1.6875,0.57813 1.20312,0.23437 2.01562,0.53125 2.53125,0.92187 2.53125,3.21875 0,1.64062 -1.40625,2.65625 -1.39062,1 -3.625,1 -1.5,0 -2.67187,-0.53125 -1.15625,-0.54688 -1.82813,-1.46875 -0.65625,-0.9375 -0.65625,-2.03125 h 3.03125 q 0.0312,0.85937 0.625,1.3125 0.59375,0.45312 1.57813,0.45312 0.90625,0 1.375,-0.34375 0.46875,-0.35937 0.46875,-0.92187 z"
     fill-rule="nonzero"
     id="path61"
     style="stroke:none" />
  <path
     fill="#1700b3"
     fill-opacity="0.3333"
     d="m 561.20766,191.47223 h 141.85822 v 79.40158 H 561.20766 Z"
     fill-rule="evenodd"
     id="path63"
     style="stroke:none" />
  <path
     stroke="#ffffff"
     stroke-width="1"
     stroke-linejoin="round"
     stroke-linecap="butt"
     d="m 561.20766,191.47223 h 141.85822 v 79.40158 H 561.20766 Z"
     fill-rule="evenodd"
     id="path65"
     style="stroke:none" />
  <path
     fill="#1700b3"
     d="m 612.6343,235.21427 q 0,-0.95313 -0.67188,-1.45313 -0.65625,-0.5 -2.39062,-1.0625 -1.71875,-0.5625 -2.73438,-1.09375 -2.73437,-1.48437 -2.73437,-4 0,-1.29687 0.73437,-2.3125 0.73438,-1.03125 2.10938,-1.60937 1.375,-0.57813 3.09375,-0.57813 1.71875,0 3.0625,0.625 1.35937,0.625 2.10937,1.76563 0.75,1.14062 0.75,2.59375 h -3.32812 q 0,-1.10938 -0.70313,-1.71875 -0.6875,-0.625 -1.95312,-0.625 -1.21875,0 -1.89063,0.51562 -0.67187,0.51563 -0.67187,1.35938 0,0.78125 0.78125,1.3125 0.79687,0.53125 2.34375,1 2.82812,0.84375 4.125,2.10937 1.29687,1.26563 1.29687,3.14063 0,2.09375 -1.59375,3.28125 -1.57812,1.1875 -4.25,1.1875 -1.85937,0 -3.39062,-0.67188 -1.51563,-0.6875 -2.32813,-1.85937 -0.79687,-1.1875 -0.79687,-2.75 h 3.32812 q 0,2.65625 3.1875,2.65625 1.1875,0 1.84375,-0.46875 0.67188,-0.48438 0.67188,-1.34375 z m 10.86536,4.4375 q -2.625,0 -4.28125,-1.60938 -1.65625,-1.625 -1.65625,-4.3125 v -0.29687 q 0,-1.8125 0.6875,-3.23438 0.70312,-1.42187 1.98437,-2.1875 1.28125,-0.76562 2.92188,-0.76562 2.45312,0 3.85937,1.54687 1.40625,1.54688 1.40625,4.39063 v 1.3125 h -7.625 q 0.15625,1.17187 0.9375,1.875 0.78125,0.70312 1.98438,0.70312 1.84375,0 2.875,-1.32812 l 1.57812,1.75 q -0.71875,1.01562 -1.95312,1.59375 -1.21875,0.5625 -2.71875,0.5625 z m -0.35938,-9.82813 q -0.95312,0 -1.54687,0.65625 -0.59375,0.64063 -0.75,1.82813 h 4.4375 v -0.25 q -0.0156,-1.0625 -0.57813,-1.64063 -0.54687,-0.59375 -1.5625,-0.59375 z m 13.8244,0.64063 q -0.65625,-0.0937 -1.15625,-0.0937 -1.8125,0 -2.375,1.23437 v 7.82813 h -3.1875 v -11.96875 h 3.01563 l 0.0937,1.42187 q 0.95312,-1.64062 2.65625,-1.64062 0.53125,0 1,0.14062 z m 4.92005,8.96875 h -3.21875 v -11.96875 h 3.21875 z m -3.40625,-15.0625 q 0,-0.71875 0.48437,-1.1875 0.48438,-0.46875 1.3125,-0.46875 0.8125,0 1.29688,0.46875 0.5,0.46875 0.5,1.1875 0,0.71875 -0.5,1.1875 -0.48438,0.46875 -1.29688,0.46875 -0.8125,0 -1.3125,-0.46875 -0.48437,-0.46875 -0.48437,-1.1875 z m 12.97577,15.0625 q -0.23438,-0.4375 -0.32813,-1.07813 -1.15625,1.29688 -3.01562,1.29688 -1.76563,0 -2.92188,-1.01563 -1.15625,-1.01562 -1.15625,-2.5625 0,-1.90625 1.40625,-2.92187 1.42188,-1.01563 4.07813,-1.03125 h 1.46875 v -0.6875 q 0,-0.82813 -0.42188,-1.32813 -0.42187,-0.5 -1.34375,-0.5 -0.79687,0 -1.26562,0.39063 -0.45313,0.39062 -0.45313,1.0625 H 644.298 q 0,-1.04688 0.64062,-1.92188 0.64063,-0.89062 1.8125,-1.39062 1.17188,-0.5 2.64063,-0.5 2.20312,0 3.5,1.10937 1.3125,1.10938 1.3125,3.125 v 5.1875 q 0.0156,1.70313 0.46875,2.57813 v 0.1875 z m -2.65625,-2.21875 q 0.71875,0 1.3125,-0.3125 0.59375,-0.32813 0.875,-0.85938 v -2.04687 h -1.1875 q -2.40625,0 -2.5625,1.65625 v 0.1875 q 0,0.59375 0.42187,0.98437 0.42188,0.39063 1.14063,0.39063 z m 11.24047,2.21875 h -3.21875 v -17 h 3.21875 z"
     fill-rule="nonzero"
     id="path67"
     style="stroke:none" />
  <path
     fill="#1700b3"
     fill-opacity="0.3333"
     d="m 712.51483,191.47223 h 141.85828 v 79.40158 H 712.51483 Z"
     fill-rule="evenodd"
     id="path69"
     style="stroke:none" />
  <path
     stroke="#ffffff"
     stroke-width="1"
     stroke-linejoin="round"
     stroke-linecap="butt"
     d="m 712.51483,191.47223 h 141.85828 v 79.40158 H 712.51483 Z"
     fill-rule="evenodd"
     id="path71"
     style="stroke:none" />
  <path
     fill="#1700b3"
     d="m 776.5328,237.8549 q 0,-0.75 0.51563,-1.21875 0.51562,-0.48437 1.29687,-0.48437 0.78125,0 1.29688,0.48437 0.51562,0.46875 0.51562,1.21875 0,0.76563 -0.51562,1.23438 -0.5,0.46875 -1.29688,0.46875 -0.79687,0 -1.3125,-0.46875 -0.5,-0.46875 -0.5,-1.23438 z m 5.23438,0 q 0,-0.75 0.51562,-1.21875 0.51563,-0.48437 1.29688,-0.48437 0.78125,0 1.29687,0.48437 0.51563,0.46875 0.51563,1.21875 0,0.76563 -0.51563,1.23438 -0.5,0.46875 -1.29687,0.46875 -0.79688,0 -1.3125,-0.46875 -0.5,-0.46875 -0.5,-1.23438 z m 5.125,0 q 0,-0.75 0.51562,-1.21875 0.51563,-0.48437 1.29688,-0.48437 0.78125,0 1.29687,0.48437 0.51563,0.46875 0.51563,1.21875 0,0.76563 -0.51563,1.23438 -0.5,0.46875 -1.29687,0.46875 -0.79688,0 -1.3125,-0.46875 -0.5,-0.46875 -0.5,-1.23438 z"
     fill-rule="nonzero"
     id="path73"
     style="stroke:none" />
  <path
     fill="#1700b3"
     d="m 20.703125,214.85343 q -0.765625,0 -1.171875,0.54687 -0.421875,0.54688 -0.875,1.96875 -0.46875,1.42188 -0.921875,2.25 -1.21875,2.26563 -3.28125,2.26563 -1.078125,0 -1.921875,-0.60938 -0.84375,-0.60937 -1.3125,-1.73437 -0.484375,-1.14063 -0.484375,-2.5625 0,-1.40625 0.515625,-2.51563 0.515625,-1.125 1.453125,-1.73437 0.9375,-0.60938 2.140625,-0.60938 v 2.71875 q -0.90625,0 -1.40625,0.57813 -0.515625,0.57812 -0.515625,1.60937 0,1.01563 0.421875,1.57813 0.421875,0.54687 1.109375,0.54687 0.65625,0 1.09375,-0.65625 0.4375,-0.65625 0.8125,-1.92187 0.703125,-2.32813 1.75,-3.39063 1.03125,-1.0625 2.578125,-1.0625 1.71875,0 2.703125,1.29688 0.984375,1.29687 0.984375,3.5 0,1.53125 -0.5625,2.79687 -0.5625,1.25 -1.53125,1.92188 -0.984375,0.65625 -2.265625,0.65625 v -2.75 q 2.1875,0 2.1875,-2.625 0,-0.96875 -0.390625,-1.51563 -0.390625,-0.54687 -1.109375,-0.54687 z M 22.25,206.33771 q 0,-0.73437 -0.390625,-1.1875 -0.40625,-0.45312 -1.078125,-0.46875 v -2.46875 q 1,0 1.84375,0.54688 0.828125,0.53125 1.296875,1.46875 0.453125,0.9375 0.453125,2.0625 0,2.10937 -1.34375,3.34375 -1.34375,1.21875 -3.71875,1.21875 h -0.171875 q -2.28125,0 -3.625,-1.21875 -1.359375,-1.21875 -1.359375,-3.32813 0,-1.84375 1.046875,-2.95312 Q 16.25,202.22834 18,202.21271 v 2.46875 q -0.765625,0.0156 -1.234375,0.46875 -0.484375,0.45313 -0.484375,1.20313 0,0.92187 0.671875,1.39062 0.671875,0.46875 2.171875,0.46875 h 0.265625 q 1.53125,0 2.203125,-0.45312 0.65625,-0.46875 0.65625,-1.42188 z m -3.078125,-5.21332 q -1.46875,0 -2.609375,-0.5625 -1.15625,-0.57812 -1.78125,-1.64062 -0.625,-1.0625 -0.625,-2.45313 0,-2 1.21875,-3.26562 1.21875,-1.26563 3.3125,-1.40625 l 0.671875,-0.0156 q 2.265625,0 3.640625,1.26563 1.375,1.26562 1.375,3.40625 0,2.125 -1.359375,3.40625 -1.375,1.26562 -3.734375,1.26562 z m 0.1875,-2.64062 q 1.40625,0 2.15625,-0.53125 0.734375,-0.53125 0.734375,-1.51563 0,-0.95312 -0.734375,-1.48437 -0.734375,-0.54688 -2.34375,-0.54688 -1.375,0 -2.125,0.54688 -0.765625,0.53125 -0.765625,1.51562 0,0.95313 0.75,1.48438 0.75,0.53125 2.328125,0.53125 z m -0.01563,-17.20505 q 2.28125,0 3.65625,1.04688 1.375,1.03125 1.375,2.78125 0,1.5 -1.046875,2.42187 h 4.65625 v 2.625 H 14.328125 v -2.4375 l 0.96875,-0.0937 q -1.140625,-0.95312 -1.140625,-2.5 0,-1.8125 1.34375,-2.82812 1.34375,-1.01563 3.71875,-1.01563 z m -0.1875,2.64063 q -1.375,0 -2.109375,0.48437 -0.75,0.48438 -0.75,1.42188 0,1.23437 0.9375,1.70312 h 4.03125 q 0.984375,-0.48437 0.984375,-1.71875 0,-1.89062 -3.09375,-1.89062 z m 5.21875,-8.80014 q 0,2.17187 -1.328125,3.53125 -1.34375,1.35937 -3.546875,1.35937 h -0.26562 q -1.484375,0 -2.640625,-0.5625 -1.171875,-0.57812 -1.796875,-1.625 -0.640625,-1.0625 -0.640625,-2.40625 0,-2.03125 1.28125,-3.1875 1.265625,-1.15625 3.609375,-1.15625 h 1.0625 v 6.26563 q 0.96875,-0.125 1.5625,-0.76563 0.578125,-0.64062 0.578125,-1.625 0,-1.51562 -1.109375,-2.375 l 1.453125,-1.29687 q 0.84375,0.59375 1.3125,1.60937 0.46875,1 0.46875,2.23438 z m -8.09375,0.29687 q 0,0.78125 0.53125,1.28125 0.53125,0.48438 1.515625,0.60938 v -3.65625 h -0.21875 q -0.875,0.0156 -1.34375,0.48437 -0.484375,0.45313 -0.484375,1.28125 z m 2.890625,-10.07379 q -1.46875,0 -2.609375,-0.5625 -1.15625,-0.57812 -1.78125,-1.64062 -0.625,-1.0625 -0.625,-2.45313 0,-2 1.21875,-3.26562 1.21875,-1.26563 3.3125,-1.40625 l 0.671875,-0.0156 q 2.265625,0 3.640625,1.26563 1.375,1.26562 1.375,3.40625 0,2.125 -1.359375,3.40625 -1.375,1.26562 -3.734375,1.26562 z m 0.1875,-2.64062 q 1.40625,0 2.15625,-0.53125 0.734375,-0.53125 0.734375,-1.51563 0,-0.95312 -0.734375,-1.48437 -0.734375,-0.54688 -2.34375,-0.54688 -1.375,0 -2.125,0.54688 -0.765625,0.53125 -0.765625,1.51562 0,0.95313 0.75,1.48438 0.75,0.53125 2.328125,0.53125 z m 4.828125,-9.0488 h -7.92187 v 1.46875 h -1.9375 v -1.46875 H 13.5 q -1.671875,0 -2.578125,-0.95313 Q 10,151.74662 10,150.04349 q 0,-0.54687 0.1875,-1.34375 l 2.046875,0.0312 q -0.09375,0.32813 -0.09375,0.79688 0,1.48437 1.390625,1.48437 h 0.796875 v -1.95312 h 1.9375 v 1.95312 H 24.1875 Z"
     fill-rule="nonzero"
     id="path77"
     style="stroke:none" />
  <path
     fill="#1700b3"
     d="m 36.794375,222.6013 h 12.484379 q 3.109375,0 4.921875,1.95313 1.8125,1.9375 1.8125,5.3125 0,3.3125 -1.75,5.26562 -1.765625,1.95313 -4.84375,1.98438 H 36.794375 v -3.90625 h 12.515629 q 1.859375,0 2.71875,-0.89063 0.84375,-0.89062 0.84375,-2.45312 0,-3.29688 -3.46875,-3.35938 H 36.794375 Z m 15.046879,-13.61816 v 6.84375 l 3.90625,1.29687 v 4.15625 l -18.953129,-7.04687 v -3.625 l 18.953129,-7.09375 v 4.15625 z m -3.15625,5.79687 v -4.75 l -7.09375,2.39063 z m 2.359375,-19.02682 -14.250004,-4.29688 v -4.35937 l 18.953129,6.60937 v 4.0625 l -18.953129,6.57813 v -4.32813 z m -1.609375,-25.13382 q 3.0625,0.21875 4.828125,2.25 1.75,2.03125 1.75,5.375 0,3.64062 -2.453125,5.73437 -2.453125,2.07813 -6.734375,2.07813 h -1.171875 q -2.734375,0 -4.8125,-0.95313 -2.078129,-0.96875 -3.187504,-2.75 -1.125,-1.79687 -1.125,-4.17187 0,-3.28125 1.765625,-5.28125 1.750004,-2 4.937504,-2.3125 v 3.90625 q -1.84375,0.14062 -2.671875,1.01562 -0.828125,0.875 -0.828125,2.67188 0,1.95312 1.40625,2.92187 1.390625,0.96875 4.34375,1 h 1.421875 q 3.078125,0 4.5,-0.92187 1.421875,-0.9375 1.421875,-2.9375 0,-1.8125 -0.828125,-2.70313 -0.828125,-0.89062 -2.5625,-1.03125 z m 2.40625,-13.26923 v 6.84375 l 3.90625,1.29688 v 4.15625 l -18.953129,-7.04688 v -3.625 l 18.953129,-7.09378 v 4.15628 z m -3.15625,5.79688 v -4.75 l -7.09375,2.39062 z m 7.0625,-28.45136 v 3.90625 l -12.46875,7.60938 h 12.46875 v 3.90625 H 36.794375 v -3.90625 l 12.500004,-7.625 H 36.794375 v -3.89063 z"
     fill-rule="nonzero"
     id="path79"
     style="stroke:none" />
  <path
     fill="#efefef"
     d="M 610.57808,10 H 728.56233 V 89.40158 H 610.57808 Z"
     fill-rule="evenodd"
     id="path81"
     style="stroke:none" />
  <path
     fill="#999999"
     d="m 666.91673,50.97641 h -6.375 v 4.3125 h 7.48437 v 2.67187 H 657.22923 V 41.85141 h 10.78125 v 2.6875 h -7.46875 v 3.84375 h 6.375 z m 9.00977,2.98437 3.65625,-12.10937 h 3.6875 l -5.60938,16.10937 h -3.45312 L 668.614,41.85141 h 3.6875 z"
     fill-rule="nonzero"
     id="path83"
     style="stroke:none" />
</svg>
