<?xml version="1.0" encoding="UTF-8" standalone="no"?>
<svg
   xmlns:dc="http://purl.org/dc/elements/1.1/"
   xmlns:cc="http://creativecommons.org/ns#"
   xmlns:rdf="http://www.w3.org/1999/02/22-rdf-syntax-ns#"
   xmlns:svg="http://www.w3.org/2000/svg"
   xmlns="http://www.w3.org/2000/svg"
   xmlns:sodipodi="http://sodipodi.sourceforge.net/DTD/sodipodi-0.dtd"
   xmlns:inkscape="http://www.inkscape.org/namespaces/inkscape"
   version="1.1"
   id="svg2"
   xml:space="preserve"
   width="906.28088"
   height="281.87888"
   viewBox="0 0 906.28088 281.87888"
   sodipodi:docname="scope_of_uavcan.svg"
   inkscape:version="1.0.1 (3bc2e813f5, 2020-09-07)"><metadata
     id="metadata8"><rdf:RDF><cc:Work
         rdf:about=""><dc:format>image/svg+xml</dc:format><dc:type
           rdf:resource="http://purl.org/dc/dcmitype/StillImage" /><dc:title></dc:title></cc:Work></rdf:RDF></metadata><defs
     id="defs6"><clipPath
       clipPathUnits="userSpaceOnUse"
       id="clipPath20"><path
         d="M 0,0 H 365760 V 205740 H 0 Z"
         id="path18" /></clipPath></defs><sodipodi:namedview
     pagecolor="#ffffff"
     bordercolor="#666666"
     borderopacity="1"
     objecttolerance="10"
     gridtolerance="10"
     guidetolerance="10"
     inkscape:pageopacity="0"
     inkscape:pageshadow="2"
     inkscape:window-width="3840"
     inkscape:window-height="2102"
     id="namedview4"
     showgrid="false"
     lock-margins="true"
     fit-margin-top="10"
     fit-margin-left="10"
     fit-margin-right="10"
     fit-margin-bottom="10"
     inkscape:zoom="2.2666667"
     inkscape:cx="455.24081"
     inkscape:cy="121.02131"
     inkscape:window-x="3840"
     inkscape:window-y="0"
     inkscape:window-maximized="1"
     inkscape:current-layer="g220" /><g
     id="g10"
     inkscape:groupmode="layer"
     inkscape:label="Scope of UAVCAN"
     transform="matrix(1.3333333,0,0,-1.3333333,-24.759193,391.02131)"><g
       id="g30"
       transform="matrix(0.0019685,0,0,-0.0019685,0,405)"><g
         id="g32"><g
           id="g34"><path
             d="m 45516.906,159966.05 c -2983.324,0 -5401.786,-2418.47 -5401.786,-5401.8 v -21608.42 c 0,-2983.33 -2418.46,-5401.79 -5401.78,-5401.79 2983.32,0 5401.78,-2418.46 5401.78,-5401.78 v -21608.43 0 c 0,-2983.33 2418.462,-5401.79 5401.786,-5401.79 H 339737.78 c 1432.62,0 2806.6,569.12 3819.62,1582.15 1013.04,1013.03 1582.16,2386.99 1582.16,3819.64 v 21608.43 c 0,2983.32 2418.44,5401.78 5401.78,5401.78 -2983.34,0 -5401.78,2418.46 -5401.78,5401.79 v 21608.42 c 0,2983.33 -2418.46,5401.8 -5401.78,5401.8 z"
             style="fill:#000000;fill-opacity:0;fill-rule:evenodd;stroke:none"
             id="path36" /></g></g><g
         id="g38"><g
           id="g40"><path
             d="m 45516.906,159966.05 c -2983.324,0 -5401.786,-2418.47 -5401.786,-5401.8 v -21608.42 c 0,-2983.33 -2418.46,-5401.79 -5401.78,-5401.79 2983.32,0 5401.78,-2418.46 5401.78,-5401.78 v -21608.43 0 c 0,-2983.33 2418.462,-5401.79 5401.786,-5401.79 m 294220.874,0 c 1432.62,0 2806.6,569.12 3819.62,1582.15 1013.04,1013.03 1582.16,2386.99 1582.16,3819.64 v 21608.43 c 0,2983.32 2418.44,5401.78 5401.78,5401.78 -2983.34,0 -5401.78,2418.46 -5401.78,5401.79 v 21608.42 c 0,2983.33 -2418.46,5401.8 -5401.78,5401.8"
             style="fill:#000000;fill-opacity:0;fill-rule:evenodd;stroke:none"
             id="path42" /></g></g><path
         d="m 45516.906,159966.05 c -2983.324,0 -5401.786,-2418.47 -5401.786,-5401.8 v -21608.42 c 0,-2983.33 -2418.46,-5401.79 -5401.78,-5401.79 2983.32,0 5401.78,-2418.46 5401.78,-5401.78 v -21608.43 0 c 0,-2983.33 2418.462,-5401.79 5401.786,-5401.79 m 294220.874,0 c 1432.62,0 2806.6,569.12 3819.62,1582.15 1013.04,1013.03 1582.16,2386.99 1582.16,3819.64 v 21608.43 c 0,2983.32 2418.44,5401.78 5401.78,5401.78 -2983.34,0 -5401.78,2418.46 -5401.78,5401.79 v 21608.42 c 0,2983.33 -2418.46,5401.8 -5401.78,5401.8"
         style="fill:none;stroke:#000000;stroke-width:762;stroke-linecap:butt;stroke-linejoin:round;stroke-miterlimit:8;stroke-dasharray:none;stroke-opacity:1"
         id="path44" /></g><g
       id="g46"
       transform="matrix(0.0019685,0,0,-0.0019685,0,405)"><g
         id="g48"><path
           d="m 98245.65,60571 h 44951.99 V 90823 H 98245.65 Z"
           style="fill:#efefef;fill-opacity:1;fill-rule:evenodd;stroke:none"
           id="path50" /></g></g><g
       id="g52"
       transform="matrix(0.7499985,0,0,-0.7499985,0,405)"><g
         id="g54"
         transform="translate(257.86258,158.979)"><g
           id="g56"><text
             transform="translate(23.09945,34.460785)"
             style="font-variant:normal;font-weight:normal;font-size:22.6667px;font-family:sans-serif;-inkscape-font-specification:sans-serif;writing-mode:lr-tb;fill:#999999;fill-opacity:1;fill-rule:nonzero;stroke:none"
             id="text60"><tspan
               x="0 15.096 27.698666 40.301331 51.634666 64.237335 71.785332"
               y="0"
               sodipodi:role="line"
               id="tspan58">Space- </tspan></text><text
             transform="translate(36.960915,61.460785)"
             style="font-variant:normal;font-weight:normal;font-size:22.6667px;font-family:sans-serif;-inkscape-font-specification:sans-serif;writing-mode:lr-tb;fill:#999999;fill-opacity:1;fill-rule:nonzero;stroke:none"
             id="text64"><tspan
               x="0 11.333333 18.881332 31.483999 37.762665"
               y="0"
               sodipodi:role="line"
               id="tspan62">craft</tspan></text></g></g></g><g
       id="g68"
       transform="matrix(0.0019685,0,0,-0.0019685,0,405)"><g
         id="g70"><path
           d="M 50307,60571 H 95259 V 90823 H 50307 Z"
           style="fill:#efefef;fill-opacity:1;fill-rule:evenodd;stroke:none"
           id="path72" /></g></g><g
       id="g74"
       transform="matrix(0.7499985,0,0,-0.7499985,0,405)"><g
         id="g76"
         transform="translate(132.03937,158.979)"><g
           id="g78"><text
             transform="translate(36.540924,47.960785)"
             style="font-variant:normal;font-weight:normal;font-size:22.6667px;font-family:sans-serif;-inkscape-font-specification:sans-serif;writing-mode:lr-tb;fill:#999999;fill-opacity:1;fill-rule:nonzero;stroke:none"
             id="text82"><tspan
               x="0 16.365334 29.783998"
               y="0"
               sodipodi:role="line"
               id="tspan80">UAV</tspan></text></g></g></g><g
       id="g86"
       transform="matrix(0.0019685,0,0,-0.0019685,0,405)"><g
         id="g88"><path
           d="m 146184.3,60571 h 44952 v 30252 h -44952 z"
           style="fill:#efefef;fill-opacity:1;fill-rule:evenodd;stroke:none"
           id="path90" /></g></g><g
       id="g92"
       transform="matrix(0.7499985,0,0,-0.7499985,0,405)"><g
         id="g94"
         transform="translate(383.68582,158.979)"><g
           id="g96"><text
             transform="translate(18.054893,34.460785)"
             style="font-variant:normal;font-weight:normal;font-size:22.6667px;font-family:sans-serif;-inkscape-font-specification:sans-serif;writing-mode:lr-tb;fill:#999999;fill-opacity:1;fill-rule:nonzero;stroke:none"
             id="text100"><tspan
               x="0 18.881332 31.483999 44.086666 56.689331 69.292 81.894661"
               y="0"
               sodipodi:role="line"
               id="tspan98">Manned </tspan></text><text
             transform="translate(24.37165,61.460785)"
             style="font-variant:normal;font-weight:normal;font-size:22.6667px;font-family:sans-serif;-inkscape-font-specification:sans-serif;writing-mode:lr-tb;fill:#999999;fill-opacity:1;fill-rule:nonzero;stroke:none"
             id="text104"><tspan
               x="0 12.602666 17.634666 25.182667 36.515999 44.063999 56.666664 62.945332"
               y="0"
               sodipodi:role="line"
               id="tspan102">aircraft</tspan></text></g></g></g><g
       id="g108"
       transform="matrix(0.0019685,0,0,-0.0019685,0,405)"><g
         id="g110"><path
           d="m 194122.94,60571 h 44952 v 30252 h -44952 z"
           style="fill:#efefef;fill-opacity:1;fill-rule:evenodd;stroke:none"
           id="path112" /></g></g><g
       id="g114"
       transform="matrix(0.7499985,0,0,-0.7499985,0,405)"><g
         id="g116"
         transform="translate(509.50903,158.979)"><g
           id="g118"><text
             transform="translate(20.582703,34.460785)"
             style="font-variant:normal;font-weight:normal;font-size:22.6667px;font-family:sans-serif;-inkscape-font-specification:sans-serif;writing-mode:lr-tb;fill:#999999;fill-opacity:1;fill-rule:nonzero;stroke:none"
             id="text122"><tspan
               x="0 16.365334 28.967999 41.570667 54.173332 60.452 65.484001 76.817329"
               y="0"
               sodipodi:role="line"
               id="tspan120">Robotic </tspan></text><text
             transform="translate(17.45198,61.460785)"
             style="font-variant:normal;font-weight:normal;font-size:22.6667px;font-family:sans-serif;-inkscape-font-specification:sans-serif;writing-mode:lr-tb;fill:#999999;fill-opacity:1;fill-rule:nonzero;stroke:none"
             id="text126"><tspan
               x="0 11.333333 22.666666 34 40.278664 52.881332 71.762665"
               y="0"
               sodipodi:role="line"
               id="tspan124">systems</tspan></text></g></g></g><g
       id="g130"
       transform="matrix(0.0019685,0,0,-0.0019685,0,405)"><g
         id="g132"><path
           d="m 290000.16,60571 h 44952 v 30252 h -44952 z"
           style="fill:#efefef;fill-opacity:1;fill-rule:evenodd;stroke:none"
           id="path134" /></g></g><g
       id="g136"
       transform="matrix(0.7499985,0,0,-0.7499985,0,405)"><g
         id="g138"
         transform="translate(761.1552,158.979)"><g
           id="g140"><text
             transform="translate(47.664,47.960785)"
             style="font-variant:normal;font-weight:normal;font-size:22.6667px;font-family:sans-serif;-inkscape-font-specification:sans-serif;writing-mode:lr-tb;fill:#999999;fill-opacity:1;fill-rule:nonzero;stroke:none"
             id="text144"><tspan
               x="0"
               y="0"
               id="tspan142">…</tspan></text></g></g></g><g
       id="g148"
       transform="matrix(0.0019685,0,0,-0.0019685,0,405)"><g
         id="g150"><path
           d="m 50307.26,95141.7 h 284639.99 v 30252 H 50307.26 Z"
           style="fill:#00dac6;fill-opacity:1;fill-rule:evenodd;stroke:none"
           id="path152" /></g><path
         d="m 50307.26,95141.7 h 284639.99 v 30252 H 50307.26 Z"
         style="fill:none;stroke:#ffffff;stroke-width:381;stroke-linecap:butt;stroke-linejoin:round;stroke-miterlimit:8;stroke-dasharray:none;stroke-opacity:1"
         id="path154" /></g><g
       id="g156"
       transform="matrix(0.7499985,0,0,-0.7499985,0,405)"><g
         id="g158"
         transform="translate(132.04005,249.71574)"><g
           id="g160"><text
             transform="translate(61.250916,47.960785)"
             style="font-variant:normal;font-weight:normal;font-size:22.6667px;font-family:sans-serif;-inkscape-font-specification:sans-serif;writing-mode:lr-tb;fill:#000000;fill-opacity:1;fill-rule:nonzero;stroke:none"
             id="text164"><tspan
               x="0 16.365334 28.967999 47.849331 66.730667 79.333328 91.935997 98.214661 110.81733 115.84933 128.452 141.05466 148.60266 153.63466 166.23734 177.57066 190.17332 195.20532 201.48399 212.81732 225.42 244.30133 256.90399 269.50665 275.78534 280.81732 293.41998 306.02264 312.30133 327.39734 333.67599 345.00934 357.612 376.49332 395.37466 407.97733 420.57999 425.612 436.94531 449.54797 455.82666 460.85864 473.46133 486.064 492.34265 499.89066 512.49335 525.09601 537.69867 542.73065 550.27863 562.88129 581.76263 594.3653 606.96796 613.24664"
               y="0"
               sodipodi:role="line"
               id="tspan162">Common high-level computing &amp; communication requirements</tspan></text></g></g></g><g
       id="g168"
       transform="matrix(0.0019685,0,0,-0.0019685,0,405)"><g
         id="g170"><path
           d="m 50307.26,129711.92 h 54048.01 v 30252 H 50307.26 Z"
           style="fill:#00dac6;fill-opacity:1;fill-rule:evenodd;stroke:none"
           id="path172" /></g><path
         d="m 50307.26,129711.92 h 54048.01 v 30252 H 50307.26 Z"
         style="fill:none;stroke:#ffffff;stroke-width:381;stroke-linecap:butt;stroke-linejoin:round;stroke-miterlimit:8;stroke-dasharray:none;stroke-opacity:1"
         id="path174" /></g><g
       id="g176"
       transform="matrix(0.7499985,0,0,-0.7499985,0,405)"><g
         id="g178"
         transform="translate(132.04005,340.45123)"><g
           id="g180"><text
             transform="translate(28.105724,47.960785)"
             style="font-variant:normal;font-weight:normal;font-size:22.6667px;font-family:sans-serif;-inkscape-font-specification:sans-serif;writing-mode:lr-tb;fill:#000000;fill-opacity:1;fill-rule:nonzero;stroke:none"
             id="text184"><tspan
               x="0 15.096 21.374666 33.977333 46.579998 54.127998 66.730667 79.333328"
               y="0"
               sodipodi:role="line"
               id="tspan182">Ethernet</tspan></text></g></g></g><g
       id="g188"
       transform="matrix(0.0019685,0,0,-0.0019685,0,405)"><g
         id="g190"><path
           d="m 107955.31,129711.92 h 54048 v 30252 h -54048 z"
           style="fill:#00dac6;fill-opacity:1;fill-rule:evenodd;stroke:none"
           id="path192" /></g><path
         d="m 107955.31,129711.92 h 54048 v 30252 h -54048 z"
         style="fill:none;stroke:#ffffff;stroke-width:381;stroke-linecap:butt;stroke-linejoin:round;stroke-miterlimit:8;stroke-dasharray:none;stroke-opacity:1"
         id="path194" /></g><g
       id="g196"
       transform="matrix(0.7499985,0,0,-0.7499985,0,405)"><g
         id="g198"
         transform="translate(283.3473,340.45123)"><g
           id="g200"><text
             transform="translate(47.011745,47.960785)"
             style="font-variant:normal;font-weight:normal;font-size:22.6667px;font-family:sans-serif;-inkscape-font-specification:sans-serif;writing-mode:lr-tb;fill:#000000;fill-opacity:1;fill-rule:nonzero;stroke:none"
             id="text204"><tspan
               x="0 16.365334 31.461332"
               y="0"
               sodipodi:role="line"
               id="tspan202">CAN</tspan></text></g></g></g><g
       id="g208"
       transform="matrix(0.0019685,0,0,-0.0019685,0,405)"><g
         id="g210"><path
           d="m 165603.36,129711.92 h 54048 v 30252 h -54048 z"
           style="fill:#00dac6;fill-opacity:1;fill-rule:evenodd;stroke:none"
           id="path212" /></g><path
         d="m 165603.36,129711.92 h 54048 v 30252 h -54048 z"
         style="fill:none;stroke:#ffffff;stroke-width:381;stroke-linecap:butt;stroke-linejoin:round;stroke-miterlimit:8;stroke-dasharray:none;stroke-opacity:1"
         id="path214" /></g><g
       id="g216"
       transform="matrix(0.7499985,0,0,-0.7499985,0,405)"><g
         id="g218"
         transform="translate(434.65448,340.45123)"><g
           id="g220"><text
             transform="translate(27.502811,47.960785)"
             style="font-variant:normal;font-weight:normal;font-size:22.6667px;font-family:sans-serif;-inkscape-font-specification:sans-serif;writing-mode:lr-tb;fill:#000000;fill-opacity:1;fill-rule:nonzero;stroke:none"
             id="text224"><tspan
               x="0 21.374666 26.406666 33.954666 46.557331 51.589333 64.192001 75.52533"
               y="0"
               sodipodi:role="line"
               id="tspan222">Wireless</tspan></text></g></g></g><g
       id="g228"
       transform="matrix(0.0019685,0,0,-0.0019685,0,405)"><g
         id="g230"><path
           d="m 223251.4,129711.92 h 54048 v 30252 h -54048 z"
           style="fill:#00dac6;fill-opacity:1;fill-rule:evenodd;stroke:none"
           id="path232" /></g><path
         d="m 223251.4,129711.92 h 54048 v 30252 h -54048 z"
         style="fill:none;stroke:#ffffff;stroke-width:381;stroke-linecap:butt;stroke-linejoin:round;stroke-miterlimit:8;stroke-dasharray:none;stroke-opacity:1"
         id="path234" /></g><g
       id="g236"
       transform="matrix(0.7499985,0,0,-0.7499985,0,405)"><g
         id="g238"
         transform="translate(585.96173,340.45123)"><g
           id="g240"><text
             transform="translate(41.96719,47.960785)"
             style="font-variant:normal;font-weight:normal;font-size:22.6667px;font-family:sans-serif;-inkscape-font-specification:sans-serif;writing-mode:lr-tb;fill:#000000;fill-opacity:1;fill-rule:nonzero;stroke:none"
             id="text244"><tspan
               x="0 15.096 27.698666 35.246666 40.278664 52.881332"
               y="0"
               sodipodi:role="line"
               id="tspan242">Serial</tspan></text></g></g></g><g
       id="g248"
       transform="matrix(0.0019685,0,0,-0.0019685,0,405)"><g
         id="g250"><path
           d="m 280899.47,129711.92 h 54048 v 30252 h -54048 z"
           style="fill:#00dac6;fill-opacity:1;fill-rule:evenodd;stroke:none"
           id="path252" /></g><path
         d="m 280899.47,129711.92 h 54048 v 30252 h -54048 z"
         style="fill:none;stroke:#ffffff;stroke-width:381;stroke-linecap:butt;stroke-linejoin:round;stroke-miterlimit:8;stroke-dasharray:none;stroke-opacity:1"
         id="path254" /></g><g
       id="g256"
       transform="matrix(0.7499985,0,0,-0.7499985,0,405)"><g
         id="g258"
         transform="translate(737.2689,340.45123)"><g
           id="g260"><text
             transform="translate(59.60101,47.960785)"
             style="font-variant:normal;font-weight:normal;font-size:22.6667px;font-family:sans-serif;-inkscape-font-specification:sans-serif;writing-mode:lr-tb;fill:#000000;fill-opacity:1;fill-rule:nonzero;stroke:none"
             id="text264"><tspan
               x="0"
               y="0"
               id="tspan262">…</tspan></text></g></g></g><g
       id="g276"
       transform="matrix(0.7499985,0,0,-0.7499985,0,405)"><g
         id="g278"
         transform="rotate(-90,225.44488,203.75196)"><g
           id="g280"><text
             transform="translate(57.58886,27.248661)"
             style="font-variant:normal;font-weight:normal;font-size:18.6667px;font-family:sans-serif;-inkscape-font-specification:sans-serif;writing-mode:lr-tb;fill:#000000;fill-opacity:1;fill-rule:nonzero;stroke:none"
             id="text284"><tspan
               x="0 12.431999 21.765333 32.143997 42.522667 52.901333 58.071999 68.450661"
               y="0"
               sodipodi:role="line"
               id="tspan282">Scope of</tspan></text><text
             transform="translate(39.854332,58.808662)"
             style="font-variant:normal;font-weight:normal;font-size:26.6667px;font-family:sans-serif;-inkscape-font-specification:sans-serif;writing-mode:lr-tb;fill:#000000;fill-opacity:1;fill-rule:nonzero;stroke:none"
             id="text288"><tspan
               x="0 19.253332 35.040001 52.799999 72.053329 89.813332"
               y="0"
               sodipodi:role="line"
               id="tspan286">UAVCAN</tspan></text></g></g></g><g
       id="g292"
       transform="matrix(0.0019685,0,0,-0.0019685,0,405)"><g
         id="g294"><path
           d="m 242061.55,60571 h 44951.98 v 30252 h -44951.98 z"
           style="fill:#efefef;fill-opacity:1;fill-rule:evenodd;stroke:none"
           id="path296" /></g></g><g
       id="g298"
       transform="matrix(0.7499985,0,0,-0.7499985,0,405)"><g
         id="g300"
         transform="translate(635.33215,158.979)"><g
           id="g302"><text
             transform="translate(43.880585,47.960785)"
             style="font-variant:normal;font-weight:normal;font-size:22.6667px;font-family:sans-serif;-inkscape-font-specification:sans-serif;writing-mode:lr-tb;fill:#999999;fill-opacity:1;fill-rule:nonzero;stroke:none"
             id="text306"><tspan
               x="0 15.096"
               y="0"
               sodipodi:role="line"
               id="tspan304">EV</tspan></text></g></g></g></g></svg>
