<?xml version="1.0" encoding="UTF-8" standalone="no"?>
<svg
   xmlns:dc="http://purl.org/dc/elements/1.1/"
   xmlns:cc="http://creativecommons.org/ns#"
   xmlns:rdf="http://www.w3.org/1999/02/22-rdf-syntax-ns#"
   xmlns:svg="http://www.w3.org/2000/svg"
   xmlns="http://www.w3.org/2000/svg"
   xmlns:sodipodi="http://sodipodi.sourceforge.net/DTD/sodipodi-0.dtd"
   xmlns:inkscape="http://www.inkscape.org/namespaces/inkscape"
   version="1.1"
   id="svg2"
   xml:space="preserve"
   width="5333.3335"
   height="5333.3335"
   viewBox="0 0 5333.3335 5333.3335"
   sodipodi:docname="uavcan-conformance-mark.svg"
   inkscape:version="1.0.1 (3bc2e813f5, 2020-09-07)"><metadata
     id="metadata8"><rdf:RDF><cc:Work
         rdf:about=""><dc:format>image/svg+xml</dc:format><dc:type
           rdf:resource="http://purl.org/dc/dcmitype/StillImage" /><dc:title></dc:title></cc:Work></rdf:RDF></metadata><defs
     id="defs6"><clipPath
       clipPathUnits="userSpaceOnUse"
       id="clipPath18"><path
         d="M 0,4000 H 4000 V 0 H 0 Z"
         id="path16" /></clipPath></defs><sodipodi:namedview
     pagecolor="#ffffff"
     bordercolor="#666666"
     borderopacity="1"
     objecttolerance="10"
     gridtolerance="10"
     guidetolerance="10"
     inkscape:pageopacity="0"
     inkscape:pageshadow="2"
     inkscape:window-width="3840"
     inkscape:window-height="2102"
     id="namedview4"
     showgrid="false"
     inkscape:zoom="0.22949999"
     inkscape:cx="2666.6667"
     inkscape:cy="2666.6667"
     inkscape:window-x="3840"
     inkscape:window-y="0"
     inkscape:window-maximized="1"
     inkscape:current-layer="g10" /><g
     id="g10"
     inkscape:groupmode="layer"
     inkscape:label="UAVCAN"
     transform="matrix(1.3333333,0,0,-1.3333333,0,5333.3333)"><g
       id="g12"><g
         id="g14"
         clip-path="url(#clipPath18)"><g
           id="g20"
           transform="translate(2226.6738,2731.0093)"><path
             d="m 0,0 v -856.299 c 0,-67.18 -33.58,-100.76 -100.74,-100.76 h -251.858 c -67.161,0 -100.741,33.58 -100.741,100.76 V 0 h -302.228 v -856.299 c 0,-117.54 26.306,-203.18 78.916,-256.9 53.728,-52.62 139.359,-78.92 256.892,-78.92 h 164.349 v -155.575 c -60.977,-15.697 -106.036,-71.051 -106.036,-136.925 0,-78.099 63.304,-141.399 141.386,-141.399 78.1,0 141.4,63.3 141.4,141.399 0,62.654 -40.762,115.782 -97.22,134.333 v 158.167 h 142.3 c 117.54,0 202.6,26.3 255.22,78.92 53.719,53.72 80.58,139.36 80.58,256.9 L 302.22,0 Z"
             style="fill:#1700b3;fill-opacity:1;fill-rule:nonzero;stroke:none"
             id="path22" /></g><g
           id="g24"
           transform="translate(2000,616.0713)"><path
             d="m 0,0 c -764.323,0 -1383.929,619.605 -1383.929,1383.929 0,764.322 619.606,1383.928 1383.929,1383.928 764.323,0 1383.929,-619.606 1383.929,-1383.928 C 1383.929,619.605 764.323,0 0,0 m 2000,1383.929 c 0,45.185 -11.16,92.969 -34.117,146.082 -20.455,47.326 -48.038,94.12 -74.712,139.374 -37.603,63.794 -76.485,129.76 -94.216,196.095 -18.651,69.785 -18.184,148.573 -17.733,224.767 0.306,51.887 0.624,105.542 -5.171,155.423 -6.486,55.83 -20.137,101.113 -41.733,138.44 -21.992,38.01 -54.894,72.954 -100.588,106.828 -40.776,30.229 -87.7,56.803 -133.078,82.502 -65.633,37.171 -133.501,75.607 -183.517,125.623 -50.016,50.016 -88.452,117.884 -125.623,183.519 -25.699,45.377 -52.274,92.3 -82.503,133.078 -33.874,45.693 -68.818,78.595 -106.827,100.587 -75.035,43.412 -168.613,47.045 -258.03,47.045 -11.924,0 -24.08,-0.072 -35.835,-0.142 -11.78,-0.069 -23.961,-0.142 -35.919,-0.142 -59.01,0 -127.135,1.382 -188.846,17.876 -66.336,17.73 -132.302,56.613 -196.096,94.216 -45.254,26.674 -92.048,54.256 -139.373,74.712 C 92.97,3372.769 45.186,3383.929 0,3383.929 c -45.186,0 -92.969,-11.16 -146.083,-34.117 -47.325,-20.456 -94.12,-48.038 -139.374,-74.712 -63.793,-37.603 -129.759,-76.486 -196.095,-94.216 -61.713,-16.495 -129.84,-17.876 -188.85,-17.876 -11.959,0 -24.138,0.072 -35.916,0.141 -11.753,0.07 -23.906,0.142 -35.813,0.142 -89.429,0 -183.017,-3.632 -258.051,-47.045 -38.009,-21.992 -72.953,-54.893 -106.827,-100.586 -30.23,-40.778 -56.804,-87.701 -82.503,-133.079 -37.17,-65.634 -75.607,-133.501 -125.622,-183.518 -50.016,-50.016 -117.885,-88.451 -183.518,-125.622 -45.378,-25.699 -92.302,-52.274 -133.079,-82.503 -45.693,-33.874 -78.595,-68.817 -100.587,-106.828 -21.596,-37.327 -35.247,-82.611 -41.733,-138.44 -5.795,-49.882 -5.477,-103.536 -5.17,-155.423 0.451,-76.195 0.918,-154.983 -17.735,-224.767 -17.73,-66.335 -56.612,-132.302 -94.215,-196.095 -26.674,-45.254 -54.257,-92.049 -74.712,-139.374 -22.957,-53.113 -34.117,-100.897 -34.117,-146.082 0,-45.186 11.16,-92.97 34.116,-146.082 20.456,-47.326 48.039,-94.12 74.713,-139.374 37.603,-63.794 76.485,-129.76 94.215,-196.097 18.653,-69.783 18.186,-148.571 17.735,-224.766 -0.307,-51.887 -0.625,-105.542 5.17,-155.423 6.486,-55.829 20.137,-101.113 41.734,-138.44 21.991,-38.01 54.893,-72.954 100.586,-106.827 40.777,-30.23 87.701,-56.804 133.079,-82.503 65.633,-37.171 133.501,-75.607 183.517,-125.623 50.016,-50.016 88.452,-117.884 125.623,-183.518 25.699,-45.378 52.273,-92.301 82.503,-133.078 33.874,-45.693 68.817,-78.595 106.827,-100.588 75.035,-43.412 168.622,-47.045 258.048,-47.045 11.908,0 24.062,0.073 35.816,0.142 11.779,0.07 23.959,0.143 35.917,0.143 59.013,-0.001 127.14,-1.382 188.849,-17.876 66.336,-17.731 132.302,-56.614 196.096,-94.216 45.253,-26.674 92.048,-54.257 139.374,-74.712 53.113,-22.957 100.897,-34.117 146.082,-34.117 45.186,0 92.97,11.16 146.083,34.117 47.325,20.455 94.119,48.038 139.373,74.712 63.794,37.602 129.76,76.485 196.096,94.216 61.717,16.496 129.841,17.876 188.849,17.876 11.948,0 24.117,-0.073 35.885,-0.143 11.765,-0.069 23.93,-0.142 35.848,-0.142 89.427,0 183.012,3.633 258.048,47.045 38.009,21.993 72.954,54.895 106.827,100.588 30.229,40.777 56.804,87.7 82.503,133.078 37.171,65.634 75.607,133.501 125.623,183.518 50.015,50.016 117.884,88.452 183.517,125.623 45.378,25.699 92.302,52.273 133.078,82.503 45.694,33.874 78.596,68.817 100.588,106.827 21.596,37.327 35.247,82.611 41.733,138.44 5.795,49.882 5.477,103.536 5.171,155.423 -0.451,76.195 -0.918,154.984 17.733,224.767 17.731,66.336 56.613,132.302 94.216,196.096 26.674,45.254 54.257,92.048 74.712,139.373 22.957,53.113 34.117,100.897 34.117,146.083"
             style="fill:#1700b3;fill-opacity:1;fill-rule:nonzero;stroke:none"
             id="path26" /></g><g
           id="g28"
           transform="translate(3752.8145,1304.3682)"><path
             d="m 0,0 c 0.303,-51.119 0.615,-103.978 -5.095,-153.135 -6.396,-55.053 -19.862,-99.717 -41.167,-136.539 -48.376,-83.613 -140.87,-135.996 -230.319,-186.654 -64.611,-36.591 -131.423,-74.429 -180.634,-123.64 -49.211,-49.211 -87.049,-116.022 -123.639,-180.634 -50.659,-89.449 -103.042,-181.943 -186.655,-230.319 -74.006,-42.818 -166.252,-46.401 -254.393,-46.401 -11.729,0 -23.702,0.071 -35.28,0.139 -11.602,0.07 -23.599,0.14 -35.375,0.14 -58.085,0 -125.139,-1.359 -185.859,-17.588 -65.267,-17.444 -130.205,-55.723 -193.005,-92.739 -89.456,-52.73 -181.957,-107.253 -281.393,-107.253 -99.437,0 -191.938,54.523 -281.394,107.253 -62.8,37.016 -127.738,75.295 -193.005,92.739 -60.72,16.229 -127.774,17.588 -185.859,17.588 -11.78,0 -23.781,-0.07 -35.386,-0.14 -11.575,-0.068 -23.544,-0.139 -35.269,-0.139 -88.14,0 -180.385,3.582 -254.394,46.401 -83.611,48.375 -135.994,140.869 -186.652,230.318 -36.592,64.613 -74.43,131.424 -123.642,180.635 -49.211,49.211 -116.022,87.049 -180.633,123.64 -89.45,50.659 -181.945,103.042 -230.32,186.654 -21.304,36.822 -34.77,81.486 -41.166,136.539 -5.711,49.157 -5.398,102.016 -5.095,153.135 0.444,75.009 0.903,152.57 -17.449,221.233 -17.444,65.267 -55.721,130.205 -92.738,193.006 -52.729,89.456 -107.253,181.957 -107.253,281.393 0,99.436 54.524,191.937 107.252,281.392 37.017,62.8 75.295,127.739 92.739,193.006 18.352,68.663 17.893,146.226 17.449,221.234 -0.303,51.118 -0.616,103.977 5.095,153.134 6.396,55.054 19.862,99.717 41.166,136.54 48.375,83.611 140.869,135.994 230.319,186.652 64.611,36.592 131.424,74.431 180.635,123.642 49.211,49.211 87.049,116.023 123.641,180.634 50.658,89.449 103.041,181.944 186.652,230.319 74.007,42.818 166.254,46.401 254.396,46.401 11.729,0 23.701,-0.071 35.278,-0.14 11.601,-0.068 23.596,-0.139 35.373,-0.139 58.085,0 125.14,1.359 185.861,17.588 65.267,17.444 130.205,55.722 193.005,92.739 89.456,52.729 181.957,107.253 281.394,107.253 99.435,0 191.936,-54.524 281.391,-107.253 62.801,-37.017 127.739,-75.294 193.007,-92.738 60.721,-16.23 127.776,-17.589 185.862,-17.589 11.776,0 23.772,0.071 35.372,0.139 11.578,0.069 23.549,0.14 35.278,0.14 88.142,0 180.389,-3.583 254.395,-46.401 83.613,-48.375 135.995,-140.87 186.655,-230.32 36.59,-64.611 74.428,-131.422 123.639,-180.634 49.211,-49.211 116.023,-87.049 180.635,-123.641 89.448,-50.658 181.943,-103.04 230.318,-186.652 21.305,-36.823 34.771,-81.486 41.167,-136.54 5.71,-49.157 5.398,-102.016 5.095,-153.134 -0.444,-75.008 -0.903,-152.57 17.448,-221.233 17.445,-65.267 55.723,-130.205 92.74,-193.005 C 162.917,887.57 217.44,795.068 217.44,695.632 217.44,596.195 162.917,503.694 110.188,414.238 73.171,351.438 34.893,286.5 17.448,221.233 -0.903,152.57 -0.444,75.009 0,0 m 217.939,695.632 c 0,170.268 -158.035,317.493 -200.007,474.527 -43.429,162.485 18.547,368.769 -63.76,511.03 -83.493,144.307 -293.918,193.281 -411.033,310.396 -117.116,117.115 -166.089,327.54 -310.397,411.033 -72.91,42.184 -162.615,46.468 -254.644,46.468 -23.476,-10e-4 -47.119,-0.279 -70.653,-0.279 -64.219,0 -127.765,2.078 -185.732,17.571 -157.035,41.973 -304.26,200.008 -474.527,200.008 -170.269,0 -317.493,-158.035 -474.528,-200.008 -57.976,-15.496 -121.506,-17.571 -185.736,-17.571 -23.535,0 -47.17,0.278 -70.645,0.278 -92.018,0 -181.747,-4.289 -254.649,-46.468 -144.307,-83.492 -193.281,-293.917 -310.396,-411.032 -117.114,-117.115 -327.54,-166.088 -411.032,-310.396 -82.308,-142.261 -20.332,-348.546 -63.761,-511.03 -41.972,-157.034 -200.008,-304.26 -200.008,-474.527 0,-170.268 158.036,-317.492 200.008,-474.528 43.429,-162.484 -18.547,-368.768 63.761,-511.029 83.492,-144.307 293.918,-193.281 411.032,-310.396 117.115,-117.116 166.088,-327.54 310.396,-411.033 72.911,-42.184 162.618,-46.468 254.647,-46.468 23.476,0 47.114,0.279 70.648,0.279 64.22,0 127.769,-2.078 185.735,-17.571 157.035,-41.973 304.26,-200.008 474.528,-200.008 170.267,0 317.492,158.035 474.527,200.008 57.976,15.496 121.505,17.572 185.735,17.571 23.534,0 47.173,-0.279 70.648,-0.279 92.017,0 181.745,4.29 254.646,46.468 144.308,83.493 193.281,293.917 310.397,411.033 117.115,117.115 327.54,166.089 411.033,310.396 82.307,142.262 20.331,348.545 63.76,511.029 41.972,157.036 200.007,304.26 200.007,474.528"
             style="fill:#000000;fill-opacity:1;fill-rule:nonzero;stroke:none"
             id="path30" /></g><g
           id="g32"
           transform="translate(3769.7803,1525.7305)"><path
             d="m 0,0 c -18.37,-68.729 -17.91,-146.325 -17.466,-221.367 0.303,-51.103 0.615,-103.945 -5.092,-153.072 -6.388,-54.986 -19.833,-99.584 -41.101,-136.347 -21.66,-37.436 -54.065,-71.851 -99.067,-105.212 -40.16,-29.773 -86.374,-55.945 -131.065,-81.256 -64.642,-36.608 -131.483,-74.463 -180.743,-123.723 -49.26,-49.259 -87.114,-116.101 -123.723,-180.743 -25.31,-44.691 -51.482,-90.905 -81.256,-131.065 -33.361,-45.002 -67.776,-77.406 -105.212,-99.067 -73.899,-42.755 -166.071,-46.333 -254.145,-46.333 -11.737,0 -23.719,0.072 -35.305,0.14 -11.591,0.068 -23.575,0.14 -35.343,0.14 -58.116,10e-4 -125.21,-1.36 -185.993,-17.606 -65.333,-17.462 -130.301,-55.757 -193.13,-92.791 -44.569,-26.27 -90.656,-53.436 -137.266,-73.582 -52.31,-22.61 -99.371,-33.6 -143.873,-33.6 -44.502,0 -91.564,10.99 -143.873,33.6 -46.61,20.146 -92.697,47.312 -137.266,73.582 -62.829,37.034 -127.798,75.329 -193.131,92.791 -60.776,16.244 -127.872,17.606 -185.992,17.606 -11.778,0 -23.774,-0.072 -35.375,-0.14 -11.576,-0.068 -23.546,-0.14 -35.274,-0.14 -88.074,0 -180.246,3.578 -254.145,46.333 -37.436,21.661 -71.851,54.065 -105.212,99.067 -29.773,40.16 -55.945,86.374 -81.256,131.066 -36.608,64.641 -74.463,131.483 -123.723,180.742 -49.259,49.26 -116.101,87.115 -180.742,123.723 -44.692,25.311 -90.905,51.483 -131.066,81.256 -45.002,33.361 -77.406,67.776 -99.065,105.212 -21.27,36.763 -34.715,81.361 -41.103,136.347 -5.707,49.127 -5.394,101.969 -5.092,153.072 0.445,75.042 0.904,152.638 -17.466,221.367 -17.462,65.333 -55.757,130.301 -92.791,193.131 -26.27,44.568 -53.436,90.655 -73.582,137.265 -22.61,52.31 -33.601,99.372 -33.601,143.874 0,44.501 10.991,91.563 33.601,143.873 20.146,46.609 47.312,92.696 73.582,137.266 37.034,62.828 75.329,127.797 92.791,193.13 18.37,68.728 17.911,146.325 17.466,221.367 -0.302,51.103 -0.615,103.946 5.092,153.073 6.388,54.984 19.833,99.584 41.102,136.347 21.659,37.435 54.064,71.85 99.066,105.212 40.161,29.772 86.374,55.944 131.066,81.255 64.641,36.608 131.483,74.463 180.743,123.723 49.259,49.259 87.114,116.101 123.723,180.742 25.31,44.692 51.482,90.906 81.255,131.066 33.361,45.002 67.777,77.406 105.212,99.066 73.899,42.756 166.072,46.333 254.148,46.333 11.727,0 23.696,-0.071 35.271,-0.14 11.6,-0.068 23.595,-0.139 35.373,-0.139 58.118,0 125.214,1.361 185.994,17.606 65.333,17.462 130.301,55.757 193.13,92.79 44.57,26.271 90.656,53.437 137.266,73.583 52.31,22.61 99.371,33.601 143.874,33.601 44.502,0 91.563,-10.991 143.873,-33.601 46.61,-20.146 92.697,-47.312 137.266,-73.583 62.829,-37.033 127.797,-75.328 193.13,-92.79 60.778,-16.245 127.872,-17.606 185.99,-17.606 11.778,0 23.775,0.072 35.376,0.14 11.578,0.068 23.549,0.14 35.293,0.14 88.065,0 180.228,-3.578 254.127,-46.334 37.436,-21.659 71.851,-54.063 105.212,-99.066 29.774,-40.16 55.946,-86.374 81.256,-131.065 36.609,-64.642 74.463,-131.484 123.723,-180.743 49.26,-49.26 116.101,-87.115 180.743,-123.724 44.691,-25.31 90.905,-51.482 131.065,-81.254 45.002,-33.362 77.407,-67.777 99.067,-105.212 21.268,-36.763 34.713,-81.362 41.101,-136.347 5.707,-49.127 5.395,-101.97 5.092,-153.073 C -17.91,1094.864 -18.37,1017.268 0,948.539 17.462,883.206 55.757,818.238 92.791,755.409 c 26.271,-44.57 53.437,-90.656 73.582,-137.266 22.61,-52.31 33.601,-99.371 33.601,-143.873 0,-44.502 -10.991,-91.564 -33.601,-143.874 C 146.228,283.786 119.062,237.699 92.791,193.13 55.757,130.301 17.462,65.333 0,0 m 200.475,474.27 c 0,99.436 -54.524,191.938 -107.253,281.394 -37.017,62.799 -75.295,127.737 -92.74,193.004 -18.351,68.664 -17.892,146.226 -17.448,221.234 0.303,51.118 0.615,103.976 -5.095,153.134 -6.396,55.054 -19.862,99.716 -41.167,136.54 -48.375,83.612 -140.87,135.994 -230.318,186.652 -64.612,36.592 -131.424,74.43 -180.635,123.641 -49.211,49.212 -87.048,116.023 -123.639,180.634 -50.659,89.45 -103.042,181.945 -186.655,230.32 -74.005,42.818 -166.253,46.401 -254.395,46.401 -11.729,0 -23.7,-0.071 -35.277,-0.14 -11.601,-0.068 -23.597,-0.14 -35.373,-0.14 -58.085,0 -125.141,1.36 -185.862,17.589 -65.267,17.445 -130.206,55.722 -193.007,92.739 -89.455,52.728 -181.956,107.252 -281.391,107.252 -99.437,0 -191.938,-54.524 -281.394,-107.253 -62.8,-37.017 -127.738,-75.294 -193.005,-92.738 -60.72,-16.229 -127.776,-17.589 -185.861,-17.589 -11.776,0 -23.772,0.072 -35.373,0.14 -11.577,0.068 -23.549,0.14 -35.278,0.14 -88.142,0 -180.389,-3.583 -254.395,-46.401 -83.612,-48.375 -135.995,-140.87 -186.653,-230.319 -36.592,-64.611 -74.429,-131.423 -123.641,-180.634 -49.211,-49.212 -116.023,-87.05 -180.635,-123.642 -89.449,-50.658 -181.943,-103.041 -230.318,-186.652 -21.305,-36.824 -34.771,-81.486 -41.167,-136.54 -5.711,-49.158 -5.398,-102.016 -5.095,-153.134 0.444,-75.008 0.903,-152.571 -17.449,-221.234 -17.444,-65.268 -55.722,-130.206 -92.739,-193.006 -52.728,-89.455 -107.252,-181.956 -107.252,-281.392 0,-99.436 54.524,-191.937 107.253,-281.393 37.017,-62.801 75.294,-127.739 92.739,-193.006 18.352,-68.663 17.892,-146.225 17.448,-221.233 -0.302,-51.119 -0.615,-103.978 5.095,-153.135 6.396,-55.054 19.862,-99.717 41.167,-136.539 48.375,-83.612 140.87,-135.995 230.319,-186.654 64.611,-36.591 131.422,-74.429 180.634,-123.64 49.211,-49.211 87.049,-116.023 123.641,-180.635 50.658,-89.449 103.041,-181.943 186.653,-230.318 74.008,-42.82 166.253,-46.402 254.393,-46.402 11.725,0 23.694,0.072 35.269,0.14 11.606,0.069 23.606,0.14 35.386,0.14 58.085,0 125.139,-1.36 185.859,-17.588 65.267,-17.445 130.205,-55.723 193.005,-92.739 89.456,-52.73 181.957,-107.253 281.394,-107.253 99.436,0 191.937,54.523 281.393,107.253 62.8,37.016 127.739,75.294 193.005,92.739 60.72,16.228 127.775,17.588 185.86,17.588 11.775,0 23.772,-0.071 35.375,-0.14 11.578,-0.068 23.55,-0.14 35.279,-0.14 88.141,0 180.388,3.583 254.393,46.402 83.614,48.376 135.996,140.87 186.655,230.319 36.591,64.611 74.428,131.423 123.639,180.634 49.211,49.211 116.023,87.049 180.634,123.64 89.449,50.658 181.943,103.041 230.319,186.654 21.305,36.822 34.771,81.485 41.167,136.539 5.71,49.157 5.398,102.016 5.095,153.135 -0.444,75.008 -0.903,152.57 17.448,221.233 17.445,65.267 55.723,130.205 92.74,193.005 52.729,89.456 107.253,181.957 107.253,281.394"
             style="fill:#000000;fill-opacity:1;fill-rule:nonzero;stroke:none"
             id="path34" /></g></g></g></g></svg>
